<mxfile host="app.diagrams.net" modified="2022-11-28T10:36:22.226Z" agent="5.0 (Windows NT 10.0; Win64; x64) AppleWebKit/537.36 (KHTML, like Gecko) Chrome/107.0.0.0 Safari/537.36" etag="guqJqxBCJcV9Tw-QP_j5" version="20.6.0" type="github">
  <diagram id="C5RBs43oDa-KdzZeNtuy" name="Page-1">
    <mxGraphModel dx="1237" dy="2256" grid="1" gridSize="10" guides="1" tooltips="1" connect="1" arrows="1" fold="1" page="1" pageScale="1" pageWidth="1200" pageHeight="1600" math="0" shadow="0">
      <root>
        <mxCell id="WIyWlLk6GJQsqaUBKTNV-0" />
        <mxCell id="WIyWlLk6GJQsqaUBKTNV-1" parent="WIyWlLk6GJQsqaUBKTNV-0" />
        <mxCell id="zkfFHV4jXpPFQw0GAbJ--6" value="People" style="swimlane;fontStyle=0;align=center;verticalAlign=top;childLayout=stackLayout;horizontal=1;startSize=26;horizontalStack=0;resizeParent=1;resizeLast=0;collapsible=1;marginBottom=0;rounded=0;shadow=0;strokeWidth=1;" parent="WIyWlLk6GJQsqaUBKTNV-1" vertex="1">
          <mxGeometry x="520" y="-1490" width="200" height="150" as="geometry">
            <mxRectangle x="130" y="380" width="160" height="26" as="alternateBounds" />
          </mxGeometry>
        </mxCell>
        <mxCell id="zkfFHV4jXpPFQw0GAbJ--7" value="+ name: string&#xa;+ age: number&#xa;# weight: number = 100&#xa;- girlfriend: string = &#39;小黑&#39;" style="text;align=left;verticalAlign=top;spacingLeft=4;spacingRight=4;overflow=hidden;rotatable=0;points=[[0,0.5],[1,0.5]];portConstraint=eastwest;" parent="zkfFHV4jXpPFQw0GAbJ--6" vertex="1">
          <mxGeometry y="26" width="200" height="74" as="geometry" />
        </mxCell>
        <mxCell id="zkfFHV4jXpPFQw0GAbJ--9" value="" style="line;html=1;strokeWidth=1;align=left;verticalAlign=middle;spacingTop=-1;spacingLeft=3;spacingRight=3;rotatable=0;labelPosition=right;points=[];portConstraint=eastwest;" parent="zkfFHV4jXpPFQw0GAbJ--6" vertex="1">
          <mxGeometry y="100" width="200" height="8" as="geometry" />
        </mxCell>
        <mxCell id="zkfFHV4jXpPFQw0GAbJ--11" value="+ eat()&#xa;+ speak()" style="text;align=left;verticalAlign=top;spacingLeft=4;spacingRight=4;overflow=hidden;rotatable=0;points=[[0,0.5],[1,0.5]];portConstraint=eastwest;" parent="zkfFHV4jXpPFQw0GAbJ--6" vertex="1">
          <mxGeometry y="108" width="200" height="40" as="geometry" />
        </mxCell>
        <mxCell id="ITZqo2qJiZWr1Mnri4VZ-11" value="" style="shape=image;verticalLabelPosition=bottom;labelBackgroundColor=default;verticalAlign=top;aspect=fixed;imageAspect=0;image=data:image/png,iVBORw0KGgoAAAANSUhEUgAAAkMAAAGyCAYAAADnH8C6AAAgAElEQVR4nOzde1yUZcI//o/JaYaBGWCEATkKpCAoKh4SkhJLLRVdzd2N3LTHTla8zLJ96dZKT239yl23r7u5Vj5pa/Y86+qqZa1uatqKaZKSEqmAKMcBh8PAMBwG8/fH7H0z98ygwxmcz/v12tcy91z3dV0zTsyH63DfQ2Lip90AERERkZO6o787QERERNSfGIaIiIjIqTEMERERkVNjGCIiIiKn5tKdk0P9IvDiA+ug8FAAAAzNBvz+i1dRXF3UI51zNlFBHti8MhxBalcAQKvpBv7wdy22H9L1Sfu73z6DmHADGowuWPXHGGR979Mn7RIREfWnboWh4uoiZGxfCgBYfk8GxoSM75FO9YXdmVGICZVJjpXrTHjqnSsoKG/ulz4VlDdjxksXAACrFwciPdWvz9p+96UfEOzfjMd/F88QRERETsWpp8nKdSbMezkfsY+dx7yX8wEAO34TiaQ4RT/3rG9FBRsxMqwR2XlKBiEiInI6Th2GLBWUN+Ojf+ng7jIEU2O9+rs7RERE1EduOU22Zu7riNaMAgC0Xm/F1mObcKrweKcbWn5PBqZGTxMfa/XleHt/JuqMNeKxBxMWYOHEdMl5u0/vwOc5e8THKrkvXpqTCY0y6KZ1dcVlbTNa2m4gXOMm7YPVlNrWAzqs31khKfNuRhjuTfAWH/9Y3ISFmQXi49WLA7EoxRd/2qvFc/M18JKZc+hXOfV4ZuPVTvd19eJALJul7rA9IiIickyHYUgIHQp3b2T+YzWKq4ugkvvikaTluFiR16ng8WDCAgDAYx8sAtC+8Prp1FV487OXAQCTI5Mxd/xDNuHH2tOpqwAAq3Y80e3wY22ExgPuLkNwRdsKoH1Bs97YhtjHzgMAlsxQ44WHNAAgBqLdmVEIHuaOxzcUISvXgKQ4BTY8HYZDb4+SrEHykt2Btb8MEsOUEGhWLw60CVc3825GGBJHKsT2hH7uzoxiICIiIuqkDqfJFk16BL4KNXac2CLuDqsz1uDPX77d6RDyec4ebDm6UXxcXF2EirpSeMm8oZL7AgDUXsMAALqGax3Wo5L7wkvmjYam+h4PQklxCjy7IAA6fRv2HK8FACxI9oGX51Bs2KUVy20/pENhRTOmxHoCMIejyEAP7DpWg6xcAwAgK9eAXcdqoFa64K5Y6fojy1GlPcdrUa4ziXU52s/EkQpJewXlzTiYrUfwMPcurXe6a0wtvDzbcDJX1elziYiIBrsOR4aGefmjxqDDxYq8bjdib2oLME9vCbIuHUPSnffiyekr8eT0lXZHiOqMNci69BUWTkzHh4/v6vb0WJDaFZ++Hi0+tp6yCte4wUt2Bz5YFWFzbrnOhKggD2h8XdHSdgMn8hokz5/Ia8CiFF9ofF3FY62mG9DWmMTHBeXN0BvboJS7ICrIw6FdbMLo1bJZask0mVD/CI2HGJJuZckDZXghvQi6Ojekv5yAglK5Q+cRERHdTrq1td4R9qbbAPNaJC9Z+xqbOmMN1u7MEJ9bODEdCyem40T+15JRpc9z9uDznD2YHJmMZSkrsCH9/S5f38iRrfQNTT9h1V+uOhwwukJvbOv0dn5765Y6a/sXw7H9i+FY8kAZdr11BjsOBGH99hHdqpOIiGiw6XCa7FpDFRTu3vCWKbvVgLdMCYW7N86VnHE4rLz52ct47INFyNdewAj/KHEqzdKpwuN46sOH8d6Rd+Dm6ob4kIRu9dOeK9pWuLsMwQiNR4dltDUmuzvQpsZ6wd1liGQkyFpUkAeUcpeblrHW0SLv7vjmnA90dW4ID2zqsTqJiIgGiw7D0L/OfwYAeCr1eTGMqOS+ePa+l+yGk47UN+lhaKnHMC9/8ZjlDrWOOLo+yJG1Rl2153gtdPo2PLsgoMO1ON/kGaDTt2FRiq9YJilOgUUpviisaL7p1aPfeiIYXp5D8cmRaof7lJVrQPZFA+5N8MbqxYGde0FERERkY0hM/LQbHT1pvdbHemu9MFXlNtR2lMJyesu6XL72Aq41VGGEf5S45sd6671QTthtBtje/sNenxy1OzMKSrnLLafJrG+RIbCeprLefm+9/sh6KzxgO00n7EITtt1bst46b72V314ZR0UFG7F5TS4uXvXEM2+P7vT5REREg9lNwxD1HOH2Gn15rzFHMQwREZEz4xWoCQWlcugbXZAYq0fS2Nr+7g4REVGfYhgiAMCvN45CQ6MLPvjNeZzadoKhiIiInAanyYiIiMipcWSIiIiInBrDEBERETk1u2FI5RNk7zARERHRbYcjQ0REROTUGIaIiIjIqTEMERERkVNjGCIiIiKnxjA0iL2bEYa8D+OxOzOqv7tCREQ0aDEM9aGoIA8censUwwsREdEA4tLfHaCue2bj1f7uAhER0aDHkSEiIiJyar0+MuSlUGLJ0hUoKy0GAIwZmwgAaDIa8fH2TdBqy8SyScmpmJ46R3xsWUao51pVJYb5B8DPzx/nvs8W6ywpLsK2rRs7rMv6eUHi0hWIm/9z1FzOx6erlnf5db6bEYZ7E7zFx62mG/jD37XYfkiHJTPUeOEhDdxchwAAguCKvA/jxbJbD+iwfmcFooI8sHllOC6WNuGKthXLZqlt6rLX1lc59TajRKsXB2JRii/+tFeL5+Zr4CW7w27ZpDgFNjwdJj5vr/89/V4RERENJH02TSYEltdefR4azXA8smQFZs1eKAaUuLjxCAuPxmuvPg+gPUT9bNGvsH3bJrGeUTHxOHJ4P9RqDaLvjEV5eQmOHN6Pu1NmIi5uPHJzzyBtfjqio2PxwXu/lwSppcsy7Aai7lq9OBBJo73w5icVkvAg2H5Ih+2HdGLY0RvbsDCzoMP67k3wRkPTT3h8QxGycg3YnRmFR+9X45s8AwrKm8UwIwSZjnjJ7sCLiwLFUPNuRhiSRnthyQw1th/SieeXXmsR+yOUsQ5CREREt6s+myazHJnRasug01VC7ukJL4USAJCbewaffLxZLN9g0KOstBhymQKeCoV4vLq6CudyzCNCLq6uOJfzraQdjWY4oqNj8c03R8RRpwaDHt/nfAu1OgAazXBJ+extm7Btfkq3RjrCNW5oabuBy9rmLtdhqVxnQvrvCpGVawAAaGtM8PIcigDfzmVX69Gdk3mNAACNrysAYITGA+4uQ8Tj9spY6on3ioiIaKAZUAuoly7LQEhohORYk9EoeWxsbESDQQ8AaGs1QaerhFLlIz6vVgfAxc0V01PnSKbJAMDUZoJaHSCZmusJnxypRuJIBT5YFWF3eqmz9MY2FJS3B6veWih9WduMlrYbmBLrKR6bEuuJlrYbOJHX0CttEhERDTQDJgwtXZYBTVAw9uzejtzcMwAgTnd1xZHD+5F1/HBPdrFDWbkGTH7mB3EabM3DgVjzcKC4FmigqqxpQ0PjdcSEysQ1TEKYE0aliIiIbncDIgx5KZSQe3pCW14qBqGu0ukq0dZqglqt6aHeOa6gvBkzXroghiLLEZeBaEGyD7w8h4prk4iIiJzRgNha32DQw9jYKFlDlDY/Xdx51hlabRny8/MwZmwikpJTb1k+cekKLN17DPM2bOl0Wx0J8HWBl+dQaGtMkuMF5c3QG9sQPMwdSXGKDs7uW+4uQzBC4+FQWeG9WvT+TqhCIm59AhER0SAwIEaGAODAP3fjkSUrsPKFTADmhdJZxw9j/Pi7Ol3Xvr07AMBm3VBH2+u7a3dmFGJCZZJj9ra7A8Cv3y/F5pXh+GBVe5jo7HSadXv3Jngj78N4NDT9hFV/uerwKM/6nRWYEuspTuvdqv9GXRWum0yQ+fgiaOwE1JUUOdxnIiKigWpITPy0G9YHVT5BqKst74/+UB96NyMMiSMVNgHqZtvr523YAmVIOL77aDPy9u/q6y4TERH1uAExTUb9w972eeG4vUsFxM5ZBGVIOPQlVxiEiIjotsGRIScmLPQOUktDUbnOhKfeuSJu7x8+biJSVr8KN7knSr7NwuE31vZHd4mIiHoFwxARERE5NU6TERERkVNjGCIiIiKnxjBERERETo1hiIiIiJwawxARERE5NYYhIiIicmoMQ0REROTUGIYGkCUz1Mh5Lw6rFwfeujARERH1CIYhIiIicmoMQ0REROTUGIaIiIjIqbn0VUNp89MxZmyi+Li6ugrbt21Cg0HfYRlBSXERtm3dKD5euiwDIaER4uMjh/cj6/hhm/NS176BkElJXb656JIZajy7IAAfHbyGnyX7ijc0/bG4CQszCwC03+xUb2wTjwHA7swoKOUueOqdKwjwdcGGp8Nw7Pt6pIz1hpfsDmw9oMOUWE/EhMrwVU49ntl4FQDQ0nYDjc3XcejtUXbbE6xeHIhls9TiY+sySXEKbHg6DLuO1SBc44Z7E7wBAA1NP2HVX64iK9cgllWFRGDGK29B5uOL7z7azDvSExGRU+mTkaGk5FQAwGuvPo/XXn0eH7z3e8hlCix86FGxTNr8dMSMHos9u7eLZZqMRkkQ8lIoseLZNZK69uzejrtTZopt9DR3lyF4dn4ADmbrEfvYeWw9oENMqKxLi5zvn6DEn/dU4sfiJsybqoK2xoSvcuqROFKBpDiF3fbe/KQCkYEekvbezQjDohRfPL6hCLGPnce8l/OhlLtgd2aUTZvLZqkxMliGeS/nY97L+WhovI5VizRdf0OIiIhuM30yMmQ9aqPVlkGnq4Tc0xNeCiUaDHr4+PihXl+Lq1cKOywzJiERcpkC/9j1V7Gu3NwzSJyYjOjo0TbtdGU0yJ6tB3RYv7MCAHAirwGLUnwRrnHrdD2FFc3YfkiH+ckquLnegU+OVOPh6X43bU8oPyXWE4B5xCdxpAK7jtWIozsF5c04mK3HohRfJMUpJKM+1iNGemMblHIXRAV5oKC8GQBQV1KEXU8s7vTrISIiuh30SRjyUiixZOkK+Pn5S45XV1eJP9fWVkMTFIyw8Ejk5p6BRjMcanUA8vPzxKk0tVoDmVyOx5980aaN6uoqMTQNVNoak/hzQ+N1VNa0OXzeyGAZooI8MELjAXeXIVg2Sy2ZJgOAVtMNjNB4SMKQZZsAbKbbiIiInF2vhyEhCMllCnzw3u+h1ZYBMK/7kXt6iuV0Oi1cXRKxYOESLFi4BIB5rdC+vTsk9TUZjfh4+yaxHmeg8XW1OWY5ekRERERd1+thyFOhgFymQH5+XocBxkuhxNiESTj3fbZN+LGk02kRM3os1OoApwlDUUEeUMpdoDe2oaC8GQG+Lmhpu9GlaToiIiKy1esLqBsNBhibDPDxaV8bY70bTGBZxp5zOdmo19di1uyF0GiG37Lt1LVvYOneY0hd+0bnO+6ggvJmyTocwLyTLCZU1iP1P78oAGqlC/YerwMAZOUakH3RgHsTvHvsStWqkAgsen8nlu49hsSlK3qkTiIiosGi10eGGgx6fH30IOak/QKvrPsjAPP017nvszE8OLTDMgLLabEGgx7bt23CkqUrbNYNdbS9vi9s2KXFhqfD8Onr0QCAr3LqxXU+nXFZ24yWthuS9UANTT/hmT9dkawDembjVbybEWazbsjeFnxH1JUUodVQD/gHIGjM+E6fT0RENJgNiYmfdsP6oMonCHW15X3WCY1mOB5ZsgL5+XmSaTLhuE5XKbnOEPW82DmLMOHRp6AvuYJPVy3v7+4QERH1mQFxBWq1OgAubraLhIXjtbXV/dAr5xI1fRYAoODIgX7uCRERUd/qsytQ30xu7hkoVT6YnjrH5grU/Tn95QyEq3S3Ghtx5I01KDt7ur+7RERE1KcGxDQZERERUX8ZENNkRERERP2FYYiIiIicGsMQEREROTWGISIiInJqDENERETk1BiGiIiIyKkxDBEREZFTGzosICzT+qCHzAvNzQ390R+yEuoXgdcWvYPhvqE4c+VUr7ThpVBi+ROrMGv2Qly/3oaS4qJO15GUnIr0JU+jrrYaVVUVvdDLgS8qyAM7X4lCWpIKO4/W9Hd3iIjIQQPiCtS94cGEBZg7/iFsPbYJpwqP33btDWZLl2VA7umJ7ds2ocGg7+/uUBe8lhyKByNVyKlqxGP/LLR5fpjMFe/PGoEwb3cAgL7lOp7612VcrGmSlPtwdiQS/D0BAM3Xf8J/Z5XiQFFd778AIiILt20YIsc1GPTY9Oc3+7sbNAjMilDht0nBOFvZCH3LdbtlhCBU29yGBXsuAjCHns33j5AEog9nR8LHwwUzd/6Ia00mvJYcit8mBQMAAxER9SmuGSIih4z0lWFlYiD+O6sUG7/TdlguY0IgVO4ueOtU+y19hJ8fiR0GAFgW749RfjK8l1OJa00mAMDG7ypQ2WjC4lF+vfgqiIhs9frIkErui5fmZOJyVQEAYGr0NACAodmA33/xKoqrzetTHkxYgJnxaXjvyAakJy2HRhkEAMjXXsCbn71sU5/wPADsPr0Dn+fsAQCsmfs6ojWjxOeenL4ST05fCQDQ6svx9v5M1BnN6zkmRyZjWcoKuA11s/u8wLqcZZ86055131uvt9qdVrOus7Pi4sZj1gMLceCL3cjNPSN5TqMZjkeWrMA33xzBuZxsLFm6An5+/gAAU5sJ+/f9n805AJA2P93mJroAUFJchG1bNwIA2lpNuIEbeHH17yCTywG032hXaFc4DgArX2hfrnbu+2zs27tDUnfi0hWIm/9z1FzOx6erlnf6fYgK8sDmleG4WGoeibg3wRsA0ND0E1b95Sqycg0AgN2ZUVDKXfDUO1dQUN4MAHg3IwyJIxVY9ZerAIANT4fh2Pf1SBnrDS/ZHdh6QIcpsZ6ICZXhq5x6PLPxqtiutsaEdzPCOmwPAJbMUOOFhzRwcx0CACjXmSTtJ8UpsOHpMOw6VoNwjdtN6+orF2uaMOvvPwIwB6OODPdyRZG+WTIlNnW4F5TuQxE3TIZhMleMUHqgstGE77SNYpkJGk8EeLpC5e6Ckb4yyfnCDYVLvs3C4TfW9sKrIyJn1mfTZFOjp0GrL8eqHU8AAF6ak4mnUp+XhAWFhwIvPPBbnMj/Gmt3Zogh5MGEBfg8Zw9C/SLw4gPrUFFXirU7MwCYQ9TCiekIVIVgy9GNYki51Roee8+vmfs6XpqTKemTUP+J/K+x5ehG8ZjQJ0fbE/p+ruSMpO/LUlYAAE4VHhfDEgCs2vEE6ow14nmd5eLqCqXKx+a4Wh0ADAH0dbWS6bGk5FTcnTLTbl1p89MRM3os9uzejtzcM2Kw0ekqxSAEADK5HHPTfikGqrT56bg7ZSb0dbXIzT2D36//DYC+XzN0b4I3fixuQuxj58WQsWqRBlm5BZ2q5/4JSvzh71rMT1Zh3lQVzl02QltjQuJIBZLiFKisabNpTwhklu2tXhyI9FQ//OHvWmw/pANgDmSbV4ZLAhEALJulRrnOhHkv5wOATV0DzTCZK3w8XJB7rT3IvJYcirhhMnxVXI/xAZ7wlblguJcrapvbxFGhZfH++NXoYdiXX4u0aB9EKN1t1hcREfWWPgtD1qMkWZe+wtzxD2FkYKwkPFiO8lTUlaHV1IpAVQgA4P74uQCAHSf+Ryz/ec4ejAmZgBH+UVDJfW1GdexRyX2RdOe9yL58UtL2kbwDeCTpv8Q+hfpFYGZ8GvK1F8QgJLTZWffHz4WhpR67vv1YPJZ16RiS7rwX8SHjcarwOJLuTIGvQo2txzY59Do6otNVoq3VJD5euswcvrZt3WgOSDfMZRzl4+OHen0trl4xL5TVasug01VC7ukJL4VSDDTWI0uFBT8iZvRYu6HMEdnbNiF726YunWvpx+ImLMw0h4esXANKr7VAKXdBVJCHJHjcSmFFM7Yf0mF+sgpurnfgkyPVeHi67ZSOZXsF5c04mK3HohRfMTDNTFQi64cGMQgBwN7jdXh2QQDuilVI+mRZFwDojW2d6rsqJAIzXnkLCv8Au8/n7v1bj7zHAl+ZC1Tu7b9WPpwdCQBYsOciXksOBQD4eLjAx8MFtc3m8CiEpcX7LmFOlP3PCkeDiKg39VkYamiql3zB6xquAQDUXsPEY63XW8XjAFBcXYSM7UvFx8O8/FFRVypOrQnOlXyHmfFp8JYpHQoR3jIlFO7emBo9TZy2syT0KVA1HG6ubjhX8p2Dr7Jjw7z8oVEGYUP6+zbPNTTV/6e9ENQYdLhYkdetthoNBhibDFCrNdBohptHg2CeIgMAY5MBjQbHp1lqa6uhCQpGWHikODKkVgcgPz/PqXaDaWvaA2ZD43VxJMjR80ZoPAA0w8tzKO5N8Ebeh/E2ZTW+rh22CUASjBxRV1KEXU8s7tQ53VHT1Ia6ljbIXe/AngUjkXutCa8cL27vT0sbCmubxSBkGZYELW03UKRv6bM+ExH1624yU1uLJPz0Ncupr77Q0ZqkntZg0MPY2AgfHz+o1QEoryiBm6sbIqNGQa3WdLo+nU4LV5dELFi4BAsWLgFgXitkvcaH7NP4usLdZYjkmPU6o9vFtSYTapvbcG+oN/50Rout56vE54Z7tQe9sgYTHoxU4fPCOklYGqH06NP+EhEB/RiG1F7DcOPGEFTUlTl8zrWGKowJGY9QvwjJ6NCYkAkwtNSjvsmxUYr6Jj0MLfUY5uV/03LW03Tdca2hCoGq4FuOXincvSVlhNGpzqqtrYaPjx8io2Jw9Yp5vUl09GgAgLGx0eERHS+FEmMTJtld4EyOCde4oaXtBi5rm1FZ04aGxus2I0C9pa+nyQBz0IlQXseJsvYLt470lSFC6YHjpQ241mTCZX0zmq//hKyyerHMMJkr4obJbBZfExH1tn7ZWj85Mhlzxz+EcyVnbKa8buZ8yRm4ubohfep/icceTFiAaM0oZF36yu40XHzIeJt66ow1yLr0FaI1o7D8nowO2yuuLsK5kjOYGj0NDyYskLRp+fhW7QHAv85/BgB4KvV5qOS+N319wtoo611snaHTaaEeFoCIiCgUFlxAYcEFqFQ+UA8LQG1tdafr8/Hpue3OtbXV8Fb6ICw88qblEpeuwNK9xzBvw5Yea9sebY0JXp5DEeBr/tvAcidYdy2ZoUbSaC9kXzQgK9cgriGKCZXh3YywHmnjZoRpsm3zU+z+r6eDEAB8nGf+b+HXk9t3fAo/C8/tL6hFZaMJTyYEYJjMHAwzJgQiwNMVOy/Yfj5T177RJ58FInJOfTYyFK0ZhQ8f3yU+tlwo7ahThcdRUVeGFx9YJ9bVer0V7x15x2YH16nC41B7DcPCieniuiDLaSqhbcvnrcsAwJajG1FRV4KFE9OxcGI6ANvt/o60V1xdhN9/8SpefGCdZN2Q5fZ66zoMzQb86eD/h/Skzm8r19fVwsXVFbprldBqzaNvdXW1CAmNgE5nvkaMve3uwlSYsGW+waDH10cPYk7aL/DKuj9K2mgyGvHx9k1i/Y7at3cHfHz8JNNu/Tny9Mddldi8UoYPVkUAMC9a3npAh0Up9kNrRwrKm6E3tiEmVCZZD7T1gA7rd7bfokT4edkstaSc9fb6gcjyitEAkODviTOPjpFcPfpiTROe+tdlbL5/BM48OgYAcLW+BYv3XRJ3j11rMuGJA5fx/qwROLg4BoD5KtXLvii0OyqkLy9FCACFJgjDx01E2dnTvf9iichpDImJn3bD+qDKJwh1teX2yneasF28oaneJkDQwCcEpvz8PElY6Wh7PVFvEKb73BQKHFu/jmGIiHoUr0BNN6VWB8DFzXZ9i3C8K1NuRJ0VlTobCv8AVObmMAgRUY/jvcnopnJzz0Cp8sH01Dk2V6AWri5N1Fti5yzChEefwlBX115Z7E1EBPTBNBkRERHRQMZpMiIiInJqDENERETk1BiGiIiIyKkxDBEREZFTYxgiIiIip8YwRER95tUt0/HW/87EyAR1f3eFiEjE6wwR0YAzMkGNx349AT7qzt3FvlbXjA/f+g4Xc3S91DMiuh0NyjAk3OJDowzq0j3ObhcTJ92NsLBI6HSVOPrVP7tVl4eHHCkpM+HlrRSPnT//HS5eON/dbt6USuWLadNmokJbitPf/rtX2+pLws1efyxuwsLMgv7uTo8RLoLYVFuDb/6yHnc9vRoyH19899Fm5O3fdesKOunCWfONXZW+Hli3/AgA8+gSAKxbfgRT7gvGgsdGY8+HP2DqfaEICPGSnD9vwxb4johG7t6/AQDi5v8cNZfz8emqzt/vj4huX5wmc8Caua/jjcUbO7zb/O1gyl0pAID9n+3Err9vw66/b+v1IDSQLJmhRs57cVi9OLC/uzKg6cuu4rqpFa2GepSdPY1WQ32HZafcF4yN+x7Eqren3vT5X61KuGmbn39yCR6ernbrmf3zO9Fmut7huY26Klw3mWDUVcH4n5+JiKwNypGhOmMN1u7M6O9u9LvT3/67R0ZTVCpfeHupcPFSLpqbjT3QM3pm49X+7kKfuW5qhb7M9vXeGW9eF3Tiy2K759Vea0aTsQ2jJwZgZIK6w6mtizk6ZB24invmRWDKfcHi8V+tSoCHp6s4LTb1vlCH+tuoq3KoHBE5j0EZhqhneXurMNRlaH93gwahRl0VFJogu89Fxvqi9loTTn5Zavf5izk6/HC6EsmzwzB5erDdMDRq3DC8/2Wa+PixlyaIPweGmafEXlifJB6r1TV32FdhVIuIyFqvhyFhfc/lKvO6ianR0wAAhmYDfv/FqyiuLgIAPJiwADPj0/DekQ1IT1oOjdL8CzZfewFvfvaypC7hudbrrdh6bBNOFR4X23swYQHmjn/I5vjkyGQsS1mB7MsnseXoRrHswonpYhnLPoX6ReDFB9ZB4aEQn9+Q/r7484n8r8V67NVl2e9OvV//WUPj5u4uOX79ehu+yz6B4uLL4lohwdWrhTYjREI9Fy/lwttbJZZvbWnB118fRF1dTaf6FRo6AhMSp2LoUPNHpqFej2PHDoojSSNHxWPknXE4e/Ykxo2bIvbfXt/uuXc21OqAW7aZuHRFj6zxENbvCFpNN0t6UgYAACAASURBVPCHv2ux/ZDO5rlls9RYNss8otHQ9BNW/eUqsnINSIpTYMPTYdh1rAbhGjfxHMsy9tr6KqfeZpRod2YUAOBkXqPYlmWfBEKbXjLpbLa9sn2l7OxpfPLwA+Ljw2+stVtu3qOjMCzIEycPldy0vlNHSjF6YkCHo0MXzl7DhpdOSI5ZrhmytOrtqTZrhqz7Z9l3S6qQCMx45a1eXf9ERANXn40MTY2eBq2+HKt2PAEAeGlOJp5KfR5v789EndH8xazwUOCFB36LE/lfY+3ODDHAPJiwAJ/n7JFMjwmhx9r5khzMjE/D9NhZkjAUHzIeraZW/Ov8ZwDM4WhkYBwe+2ARgPagJfSpuLoIGduXAjCvGfKSeUv6amn5PRkYEzIemf9YjeLqIrGuNXNf71QgEgJMfUMdjn5qXhA9cdLdCA4OE4MQ0D49JpS/mfj4CWio12P/ZzsBACkpM5EwbjJOfnPMZsF0fPwExMeb//K2DDsjR8UjNnaspA/33DsbKSkzJYHIzd0diROTJKEtODgMldoyFBdfFhdpA+a1Sc3NRodeQ3esXhyIpNFeePOTCrvhQQgqS2ao8cJDGuw4XI31Oys6rG/ZLDXKdSbMezkfALB5ZThWLdIgK7dAUp8QZDoSEyqDUu4iqefR+9X4Js+AgvJm8fzSay3iAux3M8KQNNqr34JQZ0SN9kWDvhWnjtgfFRJ0NDp0MUeHX//yYKfatA5NRESO6rMwpNWXS8JE1qWvMHf8QxgZGCsJLZa7wyrqytBqakWgKsThdoqri3Cu5AzGhIxHqF+EGE5G+Eehoq5UHIk6VXhc0m6dsQaXqwowJmQ8vGVKu6HHnlC/CIwJGY+D5/eJddcZa5B16SvMjE8T++AIYbqqoqL9C6RSW4bg4DDI5J6OvgUS1jvNWlqb4e5m3q588KD5fRZGffLyvrdZNO3hIUd4WBRKS6+KQQgALhdeRMK4yfD314jHLUev7PU9LDwSck9PfJd9wqG1SdnbNiF726YuvW5BuMYNLW03cFnb8fRJZ1jvDtMb26CUuyAqyAMF5Y63Ua4z4al3rojnXCxtQuJIBQJ8XVBQDozQeMDdZQhO5jWK55zMa0TSaC9ofF0dbkcY8VD42x+Jy937t26/x9am3BeM8JE+yD5W5tAWd3ujQ1PuC8bDz46Fh7zjX1GW02eCZmMbPvnz9x1OzXWkrqQIu55Y3KlziOj20WdhqKGpXhIwdA3mLbNqr2HisdbrreJxAJLRmc44X3IGiSOmID4kAcXVRRgZGAsvDy/s+26npNyaua8jWjNKcszQbOhUW4Gq4XBzdcPCiemSaTLA/HoCVcMdDkP19XW43nYdgYHBYigJ0AzH9bbrqNSWdapfgsZG6evp7BZ8Dw8PuLt7ICwsUjI1J+hMSPP2VsHY2IiqKm2n+tAdnxypRuJIBT5YFdEj00vaGulupN7aNn9Z24yWthuYEtv+/k6J9URL2w2cyGtwuJ7++JIXFjJfOu/Y+3wxR4fKkgaMGjdMHB06+WVph4Gmo2kyIqKu6tcF1Ka2Fkn46SmnCo9jeuwsjAmZgM9z9iA+ZDwamhtwsSJPLLNm7usIGzYC7x15RxwhEqa7uqInrnfU3NyMlpZmqNUBWPSQOQQKoy2dXePT0+yt/RkMsnINmPzMD4gK8sDmleFY83Ag1jwciK0HdDedDutvlTVtaGi8jphQGfI+jAfQvlZIWJ80EAmjQlcu1nZqdObEl8UIH+lzy51lRES9od/CkNprGG7cGIKKuq6NeNzKuZLvMDM+DaOHj8EI/yhkXfpKHJlSyX3hJfPG1WuXJVNlXdGVqbyOhIVHwt3dA4e+/LTfw49ACGienopbF3aAu7sHPDw8xGmyvtrJVlDejBkvXRBDkeWIy0C0INkHXp5D8fiGom6Fn76eJvMPUqBB34LPP7nUqfNOflkqXjTx/oeiJDvEOmJvmgzo+lQZETmvfglDkyOTMXf8Q8i+fNLhKaTOEhZS3xs7C+4u7jhfkiM+V2esQUNTPbxk3lDJfVFnrMHyezIwNXqa3Wmyaw1VCBs2wmZ9E9C+Rmlq9DRU1JV0e3RoqMtQeHurBlAYMuLK1QLEx0/AxEl3d2t0SFhDFH3naJz+9t82O9Ss9dRuMksBvi7w8hyKi6VNkuP2pqX6m7vLEIzQeHQrDPX1NNmnH13Apx9d6NK5/bkA2jI09sY6KiIa2PosDEVrRuHDx9u3q3ZlWsnedvcnp6/Ek9NX2mxltwwpJ/K/tgldO078D158YJ24XV6rL8fnOXuQMuo+m3a3HN2IYV7+YluAdGu98P/W64Y6u73+4oXzCAwMxqTJ0zBp8jTJc5bTVNZb04X1PF3dNu9IvwDzbjPLdUPW2+tvpbj4MmRyT7Ge1pYWnMg6goSEyT3aX0u7M6MQEyqTHLO33T0r14A/76nECw9pxGkp623zXWnv3gRv5H0Y3+m61u+swJRYT3Fa71b9HwxGJqjh4enY4m/h3mTNjSasW37EZp2Q9eN5j47CPfMisHPz+S6NCNWVFJmvpu0fgKAxXZsqJ6LBa0hM/LQb1gdVPkGoqy3vkQaEbeYNTfVduu6OM5k46W4EaoJtAo297fV0e3s3IwyJIxU2AWowba8HzFeJTp7dfomBNtNPOPC3/FuOHq16eyrCR/qI013zHh2FWT+PxslDJfjrhhxxt1n2sTLxccqDEQi7U+VQ/fYI913Tl1zhvcuInAyvQD2AdLQux9NTgett11FfX9fHPaL+0tH2eY2va49eKqC3/XVDDv66IefWBS3Me3QUouL8cPJQiTjK8+lHFzDh7iBExprvD3jyy1LcGa8WF1wLu89WvT0VE+4O6lIYipo+CwBQcORAp88losGNI0MDiL07xwOdn46iwU9Y6B2kloYi6+sTUfelrn0DIZOS0GpsxLH161B29nR/d4mI+livhyEiIiKigeyOWxchIiIiun0xDBEREZFTYxgiIiIip8YwRERERE6NYYiIiIicGsMQEREROTWGISIiInJqDENERETk1BiGiIiIyKkxDBEREZFTYxgiIiIip8YwRERERE6NYYiIiIicGsMQEREROTWGISIiInJqDENERETk1BiGiIiIyKkxDBEREZFTYxgiIiIip8YwRERERE6NYYiIiIicGsMQEREROTWGISIiInJqDENERETk1BiGiIiIyKkxDBEREZFTYxgiIiIip8YwRERERE6NYYiIiIicGsMQEREROTWGIZJYN+45rBv3XH93wymsXhyIvA/jcejtUYgK8ujv7lAPWjJDjZz34rB6cWCftalw9cT/m/Qy7gtK7tF61417DvtSN+Oju9dDI1P3aN1EA4VTh6HJkcnY/NgneDBhQX93RWLN3NfxxuKNUMl9+7Td5XcuxghFKN678L992u5gERXkgUNvj8LuzKj+7gqRDYOpEftLj+LZmEd6LBAJvxOePPEyHv33amibdD1SL9FA49LfHaCB4b6gZNwflIw3z2/mL7w+sn5nBdbvrOjvbtBt5Mvy4whTBOGRyDScr73Qrf+WFa6eiFfdiX9XnubvBLrtOfXIEJlpZGo8EpmGf5Ufx9nqvP7uDhF1w/8VfY66Fj2eHPXL/u4K0aDRZyNDKrkvXpqTCY0yCABgaDbg91+8iuLqIrHMgwkLsHBiuvhYqy/H2/szUWesAWCe1nok6b/wj9P/i/vi54h15Wsv4M3PXpa0t/yeDEyNniY+br3eiq3HNuFU4XGb5xZOTBfbteyX0OfLVQWoqCsRy1jWJZRpaKqX9GHN3NfhJfOW9N/eazyR/zW2HN2IUL8IvPjAOig8FOJzG9LftynX0euzfg+E+g6e34dAVYhY1t77Hu8zCgCwv+QI7ImLG49ZDyzEgS92I3FiMkJCIwAA1dVV2L5tExoMerFsUnIqpqfOkZzfZDTi4+2boFYHYMZ9c3H69HHcnTITAPDlwb2YPCUFfn7+OPd9Nvbt3SGelzY/HWPGJoqPS4qLsG3rRkndw8dNRMrqVwEAx9avQ9nZ03Zfw62sXhyIZbOk6yG2HtBh/c4KLJmhxgsPaeDmOgQAEARX5H0Yb1MOAN7NCMPIYBn+355KvPxIELxk5r83vsqpxzMbr9pt68fiJizMLJC0vWSGGs8uCMBHB6/hZ8m+CFK7dlh2d2YUYkJlNq/Jss2e5KVQYsnSFfDz85cct/73u9lnQastAwBoNMPxyJIVkMnlAABTmwn79/0fcnPPSM5LXfsGQiYloeTbLBx+Y22n++zo+7k7MwpKuQueeucKCsqbAZj/TRNHKrDqL+b3csPTYTj2fT1SxnrDS3YHth7QYUqsJ2JCZZL3vKXtBhqbr+PQ26Nu+u9n/fkq15kk7SfFKbDh6TDsOlaDcI0b7k3wBgA0NP2EVX+5iqxcg6Q+Ybrs8TsXY5xfLP/AIXJAn4Qh4YvZ0FKPVTueQJ2xBqF+EZg7bhHePbQegPnLPXHEFLx35B1JyPjvhRskX96uLu5YkvwEdp/egc9z9ojh4sGEBfg8Zw8Ac+CwrMvalqMbseXoRkyOTMaylBX47MzfxXPtmRo9DYZmAzL/sRrF1UVYM/d1pE1YjIsVnfslIwQYoe8AkJ60HJMjk3Gq8Dgyti8F0HGQEqyZ+zoCVcFif4T3943FG23OWTgxHVp9OVbteAIA8NKcTKRP/S9JcJoaMA51LXoY2prs9lup8gFuANPumQljYyNee/V5xMWNx5y0X2BMQiKyjh8GACxdlgFNUDD27N4ufpktXZYBuacnGg0GREaNgourG+6aOh3/PnYQd901HQ88+BCOHN6P6OjR8PHxA9D+ZQsA7/whEw0GvfilmTY/XfKF2xOWzFAjPdVPEmosbT+kw/ZDOkQFeWDzynDojW02X2iWgtSueOvxYLG+1YsDkZ7qhyUz1Nh+SCdOjwn1dcTdZQienR8gqWfZLDVWLw4U+7k7MwrBw9zx+IYiZOUaxC/WrB8aeiUICf/u2vJSbPrz85JjOp1WLHerzwLQHpaOHN4vfobS5qdj1uyF0OkqxcDUUxx5Px11/wQl/vB3LeYnqzBvqgrnLhuhrTEhcaQCSXEKu+0J/zaW7QmfjT/8XYvth8xTUbszo7B5ZbgkEAHAsllqlOtMmPdyPgBg88pwrFqkQVau7WfxfO0FNF1vgdq9b9cdEg1WfTJNlj71vwAAmw//UfyiLq4uEoNQqF8ExoSMR/blk2J4qTPWYN93O+Hm6ob4kARJfZZh4nxJDgzNBgSqQsTnA1UhaDW1oqKuZ36ZavXl+O3uVWIgu9ZQBYW7N7xlSofrmByZjMQRU3Ai/2tJ8NqRtcVuYLtZPWHDRuDg+X1if4qri3Dw/D74KtQYGRgrKZ+vvYC1OzNQZ6xBnbEGDU318JJ5i4uzFa6e8HVV4nzdJRhMjXbbVKs1kMnlMDY2iiMzOl0l2lpNYpmk5FRogoIlf9V7KZSQe3rC2NiIBoPeXI9Mjm9OHIG+rhYubq4oKS7CuZxsyD09UVtbDQCYPsM8mmA56hQZNQoyuVzyhQsAZWdP45OHH8AnDz/Q5VEhja/5r3ZtjekWJR3TarqBNz9pXw8k1Cu00xmWAe1EXgMamn5CuMYNgHlBt1LugtJrLeLowDd5Buj0bV1q61a8FEpMu2cmtOWlkhE6pcoHAKCvqwXg2GdBoxmOu+6aLglCXgolhgeHwthkEAOT4PAba7FtfkqXRoUs3ez97IzCimYxvLi53oFPjlTfsr3th3QorGjGlFhPAOZ/v5mJSmT90CDWBQB7j9fBy3Mo7opVSOr6sbgJM166gILyZhSUN0NvbINS7mJ3J6KhrQl1LXpMDRjX6dcmiPYOg4+7N76rzu1yHUSDRa+PDKnkvvCSeaOirlQyNWMpUDUcQ4bcwPkS6dD4xYo81Bh0kqDjiH+d/wxjQsYj82frJVNaXdXQVC8ZbbGcrnJ0x5faaxgA2LzGzlJ7DUOrqRXnS3Ikx8+X5GBmfJrYjuBaQ5XksfV0osJFBpX7rUOdqc2E7NPt72Fk1Ci4uLmKX4DR0aNRr6/F1SuFYhlPhQJymQJlpcUAAB8fP1RXV+FcTjbGJJinv7JPH4enQgE3VzcUFvwofiH6+flj5QuZkvYtRxl60p7jtZiZqMSahwOx5uHADkeIHNXSdgOXte1/0QsjSz1N+EIMHuaOpDgFsnINuCtWAbXSBQez9beuoJPCwiPhrfTB9znfSo6r1Rq0tZqg01UCsP9ZsD5XCLfTU+dIptLsTYUORJbBuaHxOipr2hw+b2SwDFFBHgjwdYGX51Dcm+AtmXYVWAda67B+s9HJ7hjnF4s18U+hwliFFSdf7fCPJKLbyW25m6y4uggZ25eKU21PTl+JJ6evlIwokZnwF2RHhHCiLS+VBBHLL0Dhr/6y0mLJ+qHJU+6Bi5urGHIsy6jVGvELc0xCIlxc3KDTVYpfmpYjBr2toLwZM166AMA8RbFslhrLZql7bc1NT9LWmBATKsMHqyLEY1/l1PfKLjWlygdtrSYUFlwQj2k0wxEdHStOa3X0WYiMigEASXi2t+bsdmdvxK43P2dljZWdPudsdR4WH83AOL9YfJj0Jj64tBNflnf9j0miwaDXp8nsTc1Yq6grw40bQxAfMl5yfGRgLHwValTUlXS57bU7M7BqxxPQ6ssxJmRCl+rpCbqGawBgM3LTlXrsTR3GhyTAzdVNbMdRBlMjakx6xKvuhMLV0+Z5YXRHmMIS+Pj42Z3OEAhfkkJgEurR6bRiwLIMRjerqy8tzCxA7GPn8WNxk/gX/ECVFKdA4kgFth7QIfax8+L/+jLATZ5yD2Ryuc3nw1Jc3HjEjB4rGT1yRsK0pt7YhoLyZlTWtKGh8XqvTGkKI75XDeVdriO//ioqjFUIUwT1YM+IBqY+WTN0JO8AfBVqPJ26SjwW6heBZ2asBmAeyamoK0XiiCmYHGm+WJhK7ou0CYtRY9Ah69KxbrXvLVNC4e5tM2VUUVeGVlNrt0KSvbC3Zu7riNaMkpQ7VXgcV69dxtzxD4mvEWhfQG3pWkOV3fU/QPvU4cz4NIT6mUcDQv0iMDM+DVevXe7SdOCJyrMIlPsj2jvM5jm1OgAubq6StTod/fU/PDgUXgqluNjZ8otPrQ5AW1srCgsuSIIR8J9g9Z+1JFevFKJeX4uxCZPgpbj19N3wcRPx8Cdf4OFPvsDwcRM7/drtsf7SElhPSw0Ujq55SV37BpbuPYZ5G7Z0uS2ZXI7IKPNnO21+OiIiotBQX2dTzvKzMGv2Qri6uEoCb37+D/Dz8xenSx3te+raN7rcd0doa0zw8hyKAF/zoPm7GWHi7q3uen5RANRKF+w9bn6/CsqbcTBbj5hQGd7NsP1vrzvifUZBNtQduhbbDRhEZKtPpslOFR5HRV0ZXnxgHT58fBeA9i3egjc/exnL78kQp7QA+1vmHWEvjFhvTQfMIWzHiS1YlrLCpl8drW+yZ8eJ/8GLD6wTt8KfyP8a1xqqMMJfeqVie6/xRP7XNgFmy9GNGOblb1Nuy9GN4mjXmrmvI/Nn62/6+hwl7DyZF5pqsw3X3tSI9fqPBoMeXx89iDlpvxDX+Rw5vB9qtUbcPTR5yj1oNbWi0WBAWHgkMMQ8ZaLRDIdaHYBvvjki1vWPXX/FI0tWSNYMCXX2xtSZvS88e1ugAeDX75di88pwybRUZ9cYWbcnbNVvNd2Q7Cq6laxcA3Ydq8GyWWqbNSfW27MBQF9eihAAypBwxM5ZhLz9uxzuMwBkHT+M6OjR4jqf6uoqfPrp/+JnP3tUDLbWnwVTm0m8fIJleM46fhhqtcZmzVB/T539cVclNq9sn3b8sbgJWw/osCilc7uyLmub0dJ2Q5xyBcxb4Z/50xXJVnjhc2P9b2jv389RCldPzAm+Bz/o87mtnshBQ2Lip92wPqjyCUJdbdeHV2nwuS8oGY/fuRhvnt/MX6CDhLBVe8fhakkY62h7vSokAjNeeQtuCkW3rsnUWcLW+38fO9hn68Cc2fI7F+PugIn4dfZb3b4C9e/GPY/zdZew5dLOHuwh0cDDK1ATAPNl/H/Q52NN/FMY52c7PUcDj8bXVbxQn73jV7StkuNRqbOh8A9AZW5OrwWhpORUvLj6d9BohgNo345fr6/FuZzsXmmT2t0XlIy5IdPxceG+bt9CQ1hPeHfARN6glW57HBkiCeGO9a+e/VM/94QcYW+Kz3q6TbhKt5vcE7l7/4bsbZt6tU/CSJCri3lhcH9PfTkLYSRnf+nRHtv9JdQZ7hWMutaGbo82EQ1UDENERETk1DhNRkRERE6NYYiIiIicWq+HIZUPL9hFREREAxdHhoiIiMipMQwRERGRU2MYIiIiIqfGMERERERO7bYLQ6qQCCx6f6fDN6NMXLoCS/cew6L3d0IVEnHrE4iIiOi2MijD0LwNWxheiIiIqEf0yV3rB7LsbZt6/fYERERENHANypEhIiIiop4yaEaGLG82KZj/p23izyXfZuHwG2vFx426KqSufQMhk5IAAIaqShx67deoKykCYF4rFDf/52L5msv5+HTVcpt2VSERmPHKW1D4B4jHrOtyRFJyKu66azr++c9dmD17EWRyOQDg3PfZ2Ld3h1jOS6HEkqUr4OfnLx6zLJM2Px3Dg0NxraoSo2LiUV1dhVMnj+G+mfPR1mrCx9s3Qasts1uXqc2E/fv+D7m5Zxzud09buiwDAJB9+rjkZp5HDu9H1vHDNmVDQqVToSXFRdi2dSOSklMxNmESLvx4HknJqWgyGiXvrXV91nVZv+9A+2eio88CERHdngZNGCo7exqfPPwAAPOaITeF900DScikJNRczse2+SlikJr2/G/ELzlhekwIOx2Z9vxvAAB7n1vaqfBjj0wux9y0X4qBJG1+OmJGj0VhwY9iQJk7/5f4+uhB8XFSciqmp86BTqcVv9z9/PxhbGzEnt3bMeuBhZg8JQWf7ftfzJ69CJOn3IN9e3dAoxmOR5asQH5+Hjb9+U2xrjlpvwCAfglEXgol5J6eaDOZMOuBheL7sHRZBsYmTMK5nGw0GPRi341NBrzzh0zJsdraagCAWq2BXK7AmDETcOTwftydMhNz036JLw/uxeQpKVCrNQAgnqfTVeK1V58H0H5Xdcv3lIiInNegCUOdZfnXfdnZ0zBoy+Gm8IYqJMLhUKMKiYCbwhuthvpuByHAdmSmsOBHxIweC6XKRyzzycebJecUFlzAXXdNF7/chXqyTx8HALi4uqKstBjVuirJeZOn3ANjkwFHDu0Xj53LycbYhEmIjIpxOAzZGxmzlLv3bw6vufJUKCCXKeCidJW8D7W11ZB7to/4zZq9EMYmA7Zv24QGgx4AoFYHwMXNFTqdFgDg4+MHF1dXHPhiN5QqH7i6uOLc99koK70KuUwhlps1eyF0ukps27pRrD8yKgYAoK+rlfSP68eIiJzTbRuGekJdSRGunDiKuPk/x9K9x7o0PdZZwqiFMH1kT1urCTpdJdRqc0ARvvgt+fj4wc/PHytfyLR5ztjY6HB/6kqKsOuJxQ6Xd4S2vFQMQl4KJYYHh8LY2CiOAKnVAcjPzxODEAAxMOrrasURJqGetPnpaDIacerkUajVAWhra0VhwQWxLplcjlfW/VGsq8loxLb/+X/idCIRETk3hqFbEEYLYucswoRHn8L8P21Dq7ERx9avQ9nZ0z3alhCEtOWl4kiGMM3TFdXVVZLRlf4WGTUKLm6u4qgW0D5aVFZaDMA8AoQh5lEzgZdCibEJk1Cvr8XVK4XiOd/nfAvAHPx0ukpotWWYPOUetJpa0WgwYExCIlzcXLFn9/Z+XSdFREQDG8OQg/L270Le/l1iKAocO7HHw5Aw+mEZFrqqtrYaanUAPBWKboWhnpwmU6s14qhW+zHp9Jc9YxIS4efnj5LiIjQY9AgLjwSGmEeJhNGfb745AsAcjIRRJiIiIkcMyjDUqKuCMiQcQWMn9OqUlT1ytXlnltFqjQ5gXtjtOyK6y7uRhDUsQigSRoWEnWedcerkUURHx+Jni37VrdGhnpwm8/Hxg7HJgEaDQTymVPmgrdWEwoIL4jEXV1dxXZOwC6+6ukpyjtFowNUrhZJgJEyfCaNMwnqrxInJDo0MCbvJ+mI6lIiIBo5BGYYOv7EW8zZswaTlz2HS8ucA2G6tvxXLbfcAAP8ALN17DNdNJnz30Wbk7d9ldzu/5fOWhMXW3ZGbewaRUTGYnjoH01PnAACyjh/GqJj4Ttel1Zbh4+2b8MiSFZJ1Q/21vd4yqFgGs+jo0ZKAJLwHY8YmYszYRDQZjfjHPz7CrNkLxZ1k0dGjxdEfpcoHuAHodJUIC4+EXK4Qp9i02jIc+OduzEn7hWTNUEfvgVFXhesmE2Q+vv0StImIqH8MiYmfdsP6oMonCHW15T3SQE/WRdTb5m3YAmVIuN3AS0REtydegZroP2LnLIIyJBz6kisMQkRETmRQTpMR9STL6dDOTrcSEdHgxzBETs/y6uZEROR8OE1GRERETo1hiIiIiJwawxARERE5NYYhIiIicmoMQ0REROTUGIaIiIjIqTEMERERkVO77cKQKiQCi97fiXkbtjhUPnHpCizdewyL3t8JVUhEL/eOiIiIBppBGYbmbdjC8EJEREQ9wumvQJ29bROyt23q724QERFRPxmUI0NEREREPWXQjAxZ3kxTMP9P28SfrW+w2airQuraNxAyKQkAYKiqxKHXfo26kiIA5rVCcfN/LpavuZyPT1ctt2lXFRKBGa+8BYV/gHjMui5HaTTD8ciSFZDJ5eKxI4f3I+v44ZuWAQBTmwn79/0fcnPPAACSklMxPXVO++svLsK2rRs71Z/eYN0vAGgyGvHx9k3QassAAHFx4zEn7RdwdXEVy1i/PgBIm5+OMWMTxcf2XqPwuQCAY+vXoezs6R5/TUREdHsbNGHI8maa8zZssZnooAAAIABJREFUgZvC+6aBJGRSEmou52Pb/BTxC3Pa878RA48wPSaEnY5Me/43AIC9zy3tdPix5KVQYtbshZJQkDY/HXenzIS+rha5uWfEIKTTVYpf+mnz0xEzeqwkKKTNT0d0dCw+eO/30GrL4KVQYsnSFVi6LKNfA9HSZRnQBAVjz+7tYl+XLsuA3NMTjQaD2PcxYxMlIVB4PTpdJQCIrwcA3vlDJhoMevG9SZufjn17d/TDqyMiotvVoAlDnWU50lN29jQM2nK4KbyhColwONSoQiLgpvBGq6G+W0EIABoMepugUljwI2JGj4VS5QMAUKsD4OLmivz8Hzoso9EMR3R0LL755ogYqhoMenyf8y3uums6NJrh4vFbsR4ds9TZ0a+k5FRogoIloc1LoYTc0xPGxkY0GPSIixuPmNFjbUbDfHz8YGwyiIFp+gzzyNL2bZvQYNADACKjRkEml0On00ra5R3niYiou27bMNQT6kqKcOXEUcTN/zmW7j3W5ekxgb0pJEs6XSXaWk2Ijh4thoXIqBi0tZpQWHABQHtgmp46x6YuU5sJanWAw2GoJxePR0ePRr2+FlevFIrHPBUKyGUKlJUW230tgDncqdUByM/PQ4NBDy+FEsODQ+Hn54+VL2RKXpvliBMREVFPYRi6BSEwxM5ZhAmPPoX5f9qGVmNjp9enCEHo3PfZ4jSPsHZG0GgwwNhkQEhoBF5Z90cA7WtprAOO9ehKfxJGgMpKi8WRHACYPOUeuLi5orDgRwDmESCdrlLyWqxHfMLCI+Gt9BlQr4+IiG5vDEMOytu/C3n7d4mhKHDsxE6FIbVagyajEadOHu2wzJiERMhlCnEtkD3C6JFaren0a7DWk9Nk1oTpvLZWk7gWyF6Zu+6aDlObCfq62i61Q0RE1F2DMgw16qqgDAlH0NgJ3V7L01lytT8AwKirsnlu3oYt8B0RbXdnmk6nRczoseI0lr0dVQDg4uZ606kurbYM+fl5GDM2ETqdtlujJz19jaXhwaHwUijhqVCIC8HV6gBJGbU6ABrNcDQaDPjZol9BJpejyWgUA9PVK4Wo19dibMIknMvJlow02W3zP4vjh7q64buPNiNv/64eez1EROQcBmUYOvzGWszbsAWTlj+HScufA2C7tf5WLLfdAwD8A7B07zFcN5nEL1V72/ktn7ckLLbuSNbxw4iOHo0FC5dgwcIlMLWZ8O9jB3HXXdM7LGPJcnpN+H/rdUP9tb2+waDH10cPYk7aL8R1PkcO74darZHsJDvwz914ZMkKPP7ki2KZ6OjRACBZDP6PXX/FI0tWSNYMCeWtw1+jTodWgwEK/wAEjhnPMERERJ02JCZ+2g3rgyqfINTVlvdIAz1Z1+1O2GJuuf1eOG69vf52IGyXz8/P69Z2eWG6r7OBmIiICOAVqAcUHx+/Do/fbO3NYBAXNx4vvvQ7xMWNF4/Nmr0QAG66jupWVCERCJ96D1qNjbjwzz3d7icRETkfjgwNIMLFBv38/CXHq6urJNfcGaysr65tfWXqzhLWaHV3sTcRETk3hiEiIiJyapwmIyIiIqfGMEREREROrdfDEKfIiIiIaCDjyBARERE5NYYhIiIicmoMQ0REROTUGIaIiIjIqfXJvcnuC0rGszGPAAD+/OPH+LL8eF80S0RERHRLfRKGviw/ji/Lj+O+oGQ8fudi6FpqcLY6ry+aJiIiIrqpPp0m++baWVQYqzDBL64vmyUiIiLqENcMERERkVNjGCIiIiKnxjBERERETq1Pw5DB1IjzdZdwd8BEaGTqvmyaiIiIyK4+2U1maculnfiuOhcbJ/8WFcYq/ObsH2EwNfZ1N4iIiIgA9EMYWjfuOfi6KvFY1hqGICIiIup3fTpNpnD1hK+rEufrLjEIERER0YDABdRERETk1BiGiIiIyKkxDBEREZFT+//bu/Pwpqq8D+BfoOmSpEvadEtbCpSytJS2sgilgJZFQDYRWQSxbugg+CrqMMooMuMyuDDOiIwgo+iAMurwgiKiSJGXVVlaoC3QUqCU7mnTJekOff/o3NskTdskTQMl38/z8Dzk5uSck/Qm+eWc3znXrsFQuEcoAqV+yNbm2bNZIiIiolbZ/ar13+Uk8ar1REREdMvoNjBqTKPxQS+FCmUajt4QERHR7Y85Q0REROTQGAwRERGRQ2MwRERERA6NwRARERE5NAZDRERE5NAYDBEREZFDYzBEREREDo3BEBERETk0BkNERETk0BgMERERkUNjMEREREQOjcEQEREROTQGQ0REROTQGAwRERGRQ2MwRERERA6NwRARERE5NAZDRERE5NAYDBEREZFDYzBEREREDo3BEBERETk0BkNERETk0BgMERERkUNjMEREREQOjcEQEREROTQGQ0REROTQnG52B7q6hNiSdsskJfvYoSdERERkDQZDNtBWsGNOsEREREQ3D6fJiIiIyKExGCIiIiKHxmCIiIiIHJpDBEMTVPH4bPQ7CHBTGhxfFbsMj/ebY/O2do77CDvHfYQJqnib1k1ERES21yWDofGJ6zD16S1wkyvbLRvrE4En+s3BlqydKKhWG9z37dV9mKiKt1lAJLS17twWzNj3FPbmHbJJvURERNR5umQwZK4ANyWejXgEP+UdMhmYJJek4+OMrzBRFY9Yn4gOtzfEZxDyq4pwtDi5w3URERGRfdzWwdCTA+ajrLYc2y5/32qZvXmHkFaeicSwWZBLZHbsHREREd0K7LbPUMSoBYhOWCzeLs45i583L22zTG1VBfZvXQ5NQSYUAeG4e8FauEg9xPtnPvcf8f9XzvyEozvfEG8HuCnRR94TW7J2Qluva7Nv317dh5einsJI31hObRERETkYuwRDI2esRGDfEdjz8ePQFGTCTa7EuIffx/jEdWJAFBo5Dn6hsfjyz2MBQCwz6v5V2PfZs9AUZGL7e9MANOUMucq8sO+zZ1GtVZtsM0oxAG49XKCuLW23f5kV2civKkKoXGWjZ0xERERdRadPkykCwhHYdwTOH9sGTUEmAKBaq8allB/g4RMKRUA4ACA7bR9++eIF8XHVWjVKrp2Ds6snXOUKi9sNlauQX1WEzIrsdstq63UorS9HlFc/q6fK5BIZorz64WxZRrsjUURERHTr6PSRIQ+fnujh7ILohMUGU2AA0NBQCw+fnmKQND5xHXxDogzK1FZVWNVukMzfug5byKWbHH8b/kcESv3w1tmPkFySbpd2iYiIyDbsljN0Omkj0g9vbfX+8YnroAjshyPb/4TstH0AmqfXrJGrK4S3l6dFjymtL7d4VKe2UYv/+e11yCUyvBH7HKb3HIfVyR9YVAcRERHdPJ0+TVZRchXX62rhqezVahk3uRKuMi9o8jPEQKijsrV5CJT6IdwjtN2ycokM3hJP5OoKrW5PW6/D2bIMeEs8uSqNiIioC+n0YEhTkIn8i8fQa/BERIxaYLJMtVaNGl0ZXGVe4kaKI2esRK/BE02W12ny4ebhB7/Q6FbbPas5j+rrtRjiM6jdPoZ7hCJQ6odsbZ4Zz4iIiIhuJ3aZJhOWvBvnDekvrz+552+4e8Facbl8ZWkO0g9vRVjsNJP1jVcEIm7Wq4ib9SqAlkvrC6rVuKS9itH+w7ArJ6nF7tP6pvccx80SiYiIHJTdcoaO7nzDIFgxpr90Xt/ppI0myxvvUWTKhvNfYs3QFZgakoBNGV+ZLDNBFY9Iz3C8dfYjrgIjIiJyQLf1DtQF1WpsydqJaSEJJq8/JlxL7Ke8QzZZBZatzUMv92CM9I3tcF1ERERkHz18/UNfMz7o6uaOmprKm9Efm7tUeRUltWWYFpKAY8XJ0DZUifc9OWAeUkrPtTpqZI7egdW4XCAV25JLpHgobAbm95mKktoyNMoviPcTERHRrafbwKgxjcYHvRQqlGmYTGyOhNgSJCX7WH0/ERER3Vy39TQZERERUXvslkB9O0uILbnZXSAiIiIrmQyGamt0qKywzRd8gK8bIiIikHTgpE3qu9XsPGBOKQZLRESdJec/aQCAkPsjb3JPqKuyyzRZRESEPZohIiIishhzhoiIiMihMRgiIiIih8ZgiIiIiBwaV5PZyd0JUzH53uZdsLMvZ+LDdX/utPaUQQMx5YmP4SrzAgDU6Mqw++MnoM4912ltGnCR4fqCj4BLR9Djl38AALx7hWHaW/+Ah78KxZnnsO3JB9qtJmbWQtz5yNP49dMPkbJ9i8ky+vVWFObhu5d+h9IrWWZ3dd6Gr+Hi4WnW40KHxWHSq++hh7MLjmxY22qfblfxT72A2DmJAIDkrzbj0Efv3uQeEQA8sPgOTF80GAd/uIiNbxxqt/zilfG4e3o/lBZVYf3qA0g7kd8p/RLOl+v1dW2+X25ETEDjiEXosfUpoJaXRSL748iQnexP2oXfP78Ir69+BsXFnfPBo0+dew6fvxaPjS8OQubJ7zq9PWPXp68GAPQ4+rl4rPRKFj6bPxHfrlgMT1UwHv7yJ3j3CmuzHrlfAABAk3Op1TITX/oLAGDrozPw2fyJLQKa+KdewJIfTyFm1kKrngs1O/TRu/ggYRCSv9qMwfc9eMu8ppFDA/Hhd/Pw7rZZN7srnaKrPj/hfLl6/DBGL/0D4p96wWS57llHAKDpB5SLzJ5dJALAkSHqBNfv+h1uBEfD6Z8LTP7Kyz5+BBumjWyzjqmvf4DecXeLt6ev2WhyNCl0WBw8VcFI+/4/Fo0GWcucvjuC9D3/i7CxExF8x50ONzp2O9j4xiGzRpBsZdcfl7VdoFaH7t88j4bHtgIjF4mjyUT2wmCIbKoxaDAaRy5Cj52voltFkVV1zNvwNTxVwfh2xWJEzZgPuW+AWVNqRNR1dasoQo8f38aNGX9CY+ZhdMs9c7O7RA6kSwZDMbEj8cDcxyCROAMwnX8zd/6TGDJ0lHjbuMzTS18BAKSnJ4u5PPX1dfj63/9ESvJRsZyHhxeeXPISfH0DxWPFxfnYsP4tVFSUmd2eJZ5e+gpCe4eLt3/4/ivsT9plVV3tkXr4YtrvPoWnspd47Lfd7yNl/yaDcnfPewvhQ6a1eHzhlWTs/PAh8faN8FHoVnhRHPa2lDDSk3v6BLKPH8HIx5+DtrjAqrrmbfgavuEDxdujl/4Bo5f+AQBa5BbVVpQjYtJ9Yj5Mna4Se/70PLKPHxH7NenV9+Asczd5vz7jUa328iVMiYkdiZmzFuHHH75G/Jh7xPPPnHNd//y8O2Eqxt41BSkpxxA3ajyqdFrs2P4ZZs56GBJn5xbnuz3PPQB4d9ssBPX2Em/v/zajxYjFynWTMGiYSrytn+ci5Mo4SYQZfym+/PXRNutrj3F7DfU38O3nZ/D1xlPisdFTwvDIi3Fwk0palIkcGoglq8ZCXaCFMkAObz8pUo83Xetx0DAVci+X4YV528W6jJ+Dtc+vvv46aqob8OF38+Dt13Rx6NTjeXhj6R6xvJArJDDui1BmxPje+OGLVEx+cJD4HI3rAlr+/QSmypqje9YRNBZexI24RejxtekpNeH9dfnI/vZHnIjM1OWCISER+eSJw/j3lxvEY3cnTBU/tJ9e+gp8/QLxt7WvIDc3G0FBoXjiyRV48Q9rDIKY0N7hkMrleH31MwCAJ5e8hAn3zMSlrHNimYcWNb3ZXl/9jEHwo8/c9tojBF5VWi1+//wiAM2BHwCbfykJSdblxZfx7zVTm9q7+3EMn/IsFP5h2L/tJQBNgVDvwROwb+vvkZWy2+Bx+oEQXGRAnzigstDqJMjK4kLUaCsRFD0U/SdMhYuHJ64l/2pVXcJoUvxTL2DwfQ+2GZD4hg+Ei4cntj46AwAw7a1/4K7lr4kBk/702NTXP0BQ9FCT9cQ/9QJ6DhuFg+v+0uHpI4lEgvvuTxQDEuHc1z/X705o+rsJ54tw7j20aJkYNEllcoT3i8SmjWvwwJwncO/0B/Hjnm8QP+YejBo1HinJR+1+7gkBQ7WuDvPv/ARAc1AAQPyCX7wyHgDEMkIQ8sgLI/HCvO34euMpgwCkWlfX4svdEotXxmNATAC2/zPFIPjRJ/TzfEqB+IW/ct0kzHosBgpfKQ7/2BRg9xvsh/3fZsA3UI6wSF8UXq3A/m8zMHpyXzyw+A58vfEUFq+Mx+jJfQ2CrXe3zcKSVWOxfvUBi56fRNIDk+dGiAGSEPgsXhkvvp7C9JhQX2vcpBJMfzha7NfKdZMwICZA7LfQT29/GdavPoCDu7NMvi4Wq9UBl440fY64yJhMTXbTpRKog4JCMfauKci+nCkGQkDTB7XwYR0TOxKq4FAc+GU3cnOzAQC5udk48MtueHn5oE9Y80iB/i/oiooyXM2+BJnUHe7ungCaghOpXI4qrbbVgMaS9tozZGg8ZFJ37Pjf5qTjlOSjyLuWjYiIWLPrMVfU6KYvvcM73mxub/8mFF5Jhl9oFKQevgAAD59g6MoLkH/pOICm5Ozy4stwlSvEMgDQ6CLDDc8AdEv70eo+lV7Jwi9rXwPQlBjt4a9qs3zIkDgAQM5J60aiBPojRaVXslCSdQGucne4+/pbVI9XcCiu19W2mfBtCf2RmYwLZ1Gl08LPP0i8f3/SLoP3Qm5uNoqL8iGVy+Hh0fyL/cRvB6HTaiGROKOsVI20VMMvekvPPeE1CooeitBhcRY/r1H3hMFNLsHOz0+Lx77eeAqF1yrQL8pPPLbxjUMGX6wHd2ehtFAHN5kzIocGwtZ8A+Wor7+OgmvlrZa5M6EXKjQ12LG5ue87Np9GaVGVQd9Li6rEwEgi6YFTh3MM6okcGojoEcE4n1JgEHj9mnQFbnIJIu6w/PnpjxSdS85HdVU9fAPlFtdjPBqWcaZpylvhKxX77iZzRmmhDgd3Nz3H9FP5qNDUQKGUWtyevm5FF9Ho3xeNStOLK3b9cRk+SBjEUSGyqS41MuTrp4LE2Rnp6cmtllEofFBfV4eMC2cNjmdcOIuxd02BQuFjdnsVFWU48dtBTL53Dt5+73OT02O2bM/PPwhSmRz/s7zl9FpxcT48PLzMHmUyh4dPMMqLL7dYbp+dfgCDxyZC6q5EVUUxKkquwSdoIAL7DBNHhjx9eyPn/EFUVRQ3P9A9AN1cLf/gNSaMwsTMWoi4J5cjdk4iYuckGgyLC0t2izPP3VIJzWd3fomg6KGYvmajVdNjljI1jQvAYMVifX0dNJrm6+OpS1rmcllz7u364zLEzFqIe19fB12p2qItDXwD5XCTSrBk1dgWIxSlRVWIHBqItBP54giGMO2jX6Yz/N/uTIRF+mLJqrFY/PLoFtNjQhCQl11msBw97UQ+8rLLoAr1Qmg/bwBAta4OaSfyMTMxWgywhGACALz9pHCTSzBomMpg6kugX/ZWk3YiH9W6Onj7yzB6ShgO7s5CxB2B8FC44vSxaze7e0QW61LB0M0gjDoJUwZ/XPV3VOm0+HjDGnEkyJY6s25raQqzEC6ZhnEL3sa4BW8DaMoVEqbRRJUFaKzR2rTtOm0l9v7lJUTNmI+ew0YhZtZCpGzfgkMfvYtDH70rLpu/Vfb8EQI5Ye8jIU+pM/bkEQIhmdRdnKIFmqZtpXLLg1JLzz1hf6ZtTz5g1Uq+6qp6fPrOEXFkwZgQCLnJJeJUDNA0PeMmc7a4PXMc3J2Fg7uzxLZnPRaDWY/FWJV7ZC5r82tuNo26CkG9vQwC2tTjeTZ5nRprtECldbmCRNboUtNkxUV5qK+rM5gmMKbRlEDi7Ix+/aMMjvfrHwWJs7PBL2RLpCQfxco/PI4vtvzDoH5btldUmAuJszN8/dqeGrKVipJr8PTtDWWQ4VReaMRY1FaXoapSDamHL/oPn4nMk99h44uDxH8GuUL/1a1Wh+7lBWiMvMcm/ZP7BaC+rhaVxYW4dupX8Zi+nJNHcL2utsXxm03YU2nrozNQUZiH4Ng7bd6Gu7snZFJ3nDt3usPBs6XnnnevMLh4eKIk64JVgVBxvhYSSQ8EBHu23sZ/R06y0opbDZg6S9qJfDw9bRtef/oHg+kvYUREFeplME0XOTQQqlAvVOvqkJ1RalYbpUVVqNbWd3ha6WYYPSUMYZG+2P9tBubf+Yn4zxZBXaNfX3QvL0A35guRHXWpYCg3Nxvnzp3GkKGjxMRRoDmBGgAuZZ1DWVkJxt41BUFBoQCac43yrmUbrJyxhjDtJQQ5tmzv5IlDKCsrwcz7HhLrasu8DV9jWVIq5m342opnAlw9fxBOzq4YNfNl8VjM3Y/Dv1csLvy2w2AKzMMnuP0K/5v8eCM4Go0efu2Xb4dXcChqK8pReiULA+6Zget1tVblBmmLmn5hBt9h+4CkPe6+/nCVu5tcETf19Q+wLCnVrM0nTamsLIeuqhJKn+bX2ng1mLksPfc66vCPWajQ1GDy/EiMnmL6uZsKFlpbvWQ8bWMrQkCmUTdPy2WcLYK3nxQzE6PFYzMTo+GhcMWvSVfMrjvtRD5OH7uGoN5eWLluUrtlO+P5dZQ1+UhtMmMRhvC+sfZzj8iULjdN9u8vN6CoMBeT750jLonXX25cUVGGd/6yAk8vfcUg/0F/9Zm5hJU5UlnzG954+b257Rkvf4Yv8PZ7nxvUV1FRhg3r38KTS15qkbthvMRZ+GXemrCYKRg7509wkriKx2Y92/ThkXnyO+zf9hKyUnajvPgypjzxMRa/kwoAaKivEVeNAUBVRTFO/LgeY+f8SSwjMHWJj+6Zh9E4chFu3HG/VRunGS9hB4BlSamoKMzD18sWWjUKkbJ9C+R+AYidk4hlSU3PwdLLdgj5Sz0kzdMz09dsBACDXCbj5fzG9+uT+3ZsNKuiogx7f9yBB+Y+hrffa0p8zr6ciZMnDqNnaB+L6zL33LOFtBP5WL/6gDjFop83JExJpZ3Ixy/fZWD6osFiTk3u5TKkHs+DKrRlQPTpu0db1Gfp9JapYMt4GmvjG4egKa4y6Fd1VT02vnlQnGIzl9C3u6f3M8gbMnWZDFs8P+NtA4Sl+qa2D2jLwd1ZGBgb2KLfrfXdXDfC4tDo3xc9fnyn1TJl15pGQT1VwQgdFmdyewsiS3UbGDWm0figm5snigptsxomwNcNs2fPxrp//Msm9ZF9Ccvoc84fNMgRanV5Pf67A3XsLDj9c4HVGy8KOTclWRfaXDUiBE9p3/+H18myI3P/PnR7au1aaB1ZXt/o4YeGx7aie/L2Nn9ICeeeq9xd3Osr5z9pAICQ+yOte0Lk8LrUNBnZn6dvbzg5u7Z6vKKk5cqRHkc/R/fyAjQ8ttXq6TJhekn4FdgaYV+isLETrZpqIuv0vGMkZN7Kdv8+dHtS+Er1NoJsebw438KFFC4y3Jj9HrqXFxhcz9CUiEn3wcNfJW7MSmQLHBmidgkbMRoztVO1yMRV6zuL/tSaNVetJ/PpX7WeOwA7tpZTbqZ36zaHOVet15+qNl6dyZEh6igGQ0RE1KUxGKKO4jQZERERObROD4YiIiI6uwkiIiIiq5mcJvNSqFCmybNJAwmx7W86mJRs/iUriIiIiGzJLvsMtRXsmBMsEREREXUW5gwRERGRQ2MwRERERA6NwRARERE5NLvkDE1QxWPpwIUAgHXntmBvnvnX0iEiIiLqTHYJhvbmHcLevEOYoIrHE/3mQF1biuSSdHs0TURERNQmu06THS1ORn5VEYb4DLJns0REREStYs4QEREROTQGQ0REROTQGAwRERGRQ7NrMKSt1+FsWQZG+w9DgJvSnk0TERERmWSX1WT6NmV8hZMlqfj7na8iv6oIexpesXcXiIiIiER2D4ZWxS6Dt8QTjx5+Cdp6HRJitQBc7N0NIiIiIgB2niaTS2TwlnjibFkGtPU6ezZNREREZBITqImIiMihMRgiIiIih8ZgiIiIiByaXYOhcI9QBEr9kK3Ns2ezRERERK2y+1Xrv8tJ4lXriYiI6JZh16vWExEREd1qmDNEREREDs0uI0MJsSX2aIaIiIjIYp0eDCUl+3R2E0RERERW4zQZEREROTQGQ0REROTQGAwRERGRQ2MwRERERA6NwRARERE5NAZDRERE5NAYDBEREZFDYzBEREREDo3BEBERETk0BkNERETk0BgMERERkUNjMEREREQOjcEQEREROTQGQ0REROTQGAwRERGRQ2MwRERERA6NwRARERE5NAZDRERE5NAYDBEREZFDYzBEREREDo3BEBERETk0BkNERETk0BgMERERkUNjMEREREQOjcEQEREROTQGQ0REROTQGAwRERGRQ3PYYGjkjJWY9fx3UASEW/S4VbHLsCp2mcExuUSGvw3/Iyao4m3ZRayKXYad4z7CZ6PfQYCb0qZ1ExERUROnm92BruTxfnPQR94TK06sMTiurddh17VfsHTgQgDA3rxDNmvrySN/REG1usP1ERERkWkOOzJkqQmqeExUxeP99E9NBid78w7hu5wkLAyb0eFRHLlEhiivfjhYeJyBEBERUSdjMGSGADclFobNwE95h5Bckt5quW2Xv0dZbTmeHDDfjr0jIiKijrDbNNnIGSvRa/BE8XZDQy1++3YNstP2AQDGJ64DAORlHkV0wmKTZQTjE9fBNyRKvH06aSPSD29ts73K0hzs++xZVGtNj7QoAsJx94K1cJF64MqZn3B05xvifVGKAQCAXTlJbT5HYbrsiX5zEOsT0WbgRERERLcGuwRDEaMWIDhiLI5s/1OLwEafb0gUPHxCsefjx6EpyMT4xHUYMulZVJRchaYgE25yJcY9/D5qdGX48s9jAQChkeMwfPoKABADoohRCwBALCMEOqNmv4afNy9t0a5wf11NOX7Y8EiLgCnOPxZlteXQNlS3+1zPas6j+notlC7eZrwyREREdLPZZZrMU9kL1+tqUVFytc1ytVUV2L91OTQFmQCAzOP/ix7OLggMGw4A6B19D5xdPXFyz9/Ex2Sn7YMmPwOq8JHisfTDWw1GdjQFmagoyYarzAtucsNjoB0oAAAZDElEQVR8nsCw4Rj/yIeoKMnGrg8XtgiE5BIZvCWeOFuWAW29rt3nqm2oRlltOeL8Y9st25pwj1AoXDxwsiTV6jqIiIjIPHYZGTr/61cI7DsCk57Y1OrUFwDU1ZSjRqsRb1eUXMX1ulp4KnsBaAqqXKQemPTEphaPrSzNgZtciWqtWhxBcvcOaVFGn4vUA9EJi1FZmoPD37xmsu9yJzd4uXha/JytEesTgZeinkJ+VRGWHFttVvBFREREHWOXYEhTkInt700Tg5S4Wa8ibtarJnN9TClXXxH/bzx6ZExow9nVU5xuA5ryjFxlXgZla6sqcP7YNkSOebjVKTRhpMdSubpCix+TXJKOOb88g1ifCHwy6i18nPGVTZbpExERUevsupqsWqvGrg8XYsdf70dlaY7B1JYpHj490a0boCsrANAUFPVwdoGHT89WH+MqV8DZ1RP5F4+1GjDpy8/6DWn/9xl8Q6IwcsbKFvdr63UorS9HlFc/yCWydusTRpKytXntlm1NZkU28quKECpXWV0HERERmeemLK0XAhadJr/VMoqAcAyZ9CzK1dnilNrl0z+iuqIIQyY92+rO0TVaDepqyiFTBIrHjFefGUs/vBVXzvyEXoMnmgyIjhQmI1Dqh3CP0HafW5RiANx6uEBdW9puWSIiIrr57DJNZioYMV6+DgDu3iGY+dx/Wi1TrVVj32fPYtzD77fIGxKm3Kq1apz95VMMn74C8185AAAozjmLK2d+gk/wwFb7eHTnG5ApAtFr8ETIFIEGU2bCCrHpPce1uVxeLpFhavBdSCvP5LJ6IiKiLsIuwZCpXBxT2tsLCGieamtLdtq+NpfwA2gRiLXVz4JqNbZk7Wx3/6B5ve+Fl4sn3jr7UZttExER0a2DO1CbaW/eIaSVZ+KlqKcQ6xPR4v4JqnhMC0nAlqydHb6EhpCnNNp/GC/QSkRE1MkYDFlgdfIHSCvPxPSe4wyOC9Nj685tsdnqr/dSP0FZbTk2xL3Oq9YTERF1om4Do8Y0Gh/0UqhQprF+NRQRERFRV8GRISIiInJoDIaIiIjIoXV6MOSl4MaBREREdOviyBARERE5NAZDRERE5NAYDBEREZFDYzBEREREDs0ul+MgYFT8OCSMmyrezrl6GZs//XuntacICMfdC9bCReoBAKitqsD+rcuhKcjstDb1NbrIUDlzDSRXj8Pt6GcAAK+Q3hj/yhrI/fxReikT3y5/3C59cQTL347DgFhf5GdXYtXjSXZpc2jiEvSbOBUH3lmF3OTjJsvo/821RYX4+c8rUJZz2az6hcfWaSvMOleCYodh7Iur0UPijJOffYT0Xd9Y9Hy6uulrN8G7TzjqqnRt/k0cRcTU2Yh58FGkfPFJm+dCR1636Ws3wVnuYdZ5rf9eSN3xb5zYvN7sdm515ryGQxOXYNDMubheX9/m+7MufCxq7ngA7jtWoFutrrO7LuLIkJ0cPrQPf179HN5/7zWUlBR1enuagkxsf28avvzzWFw581Ont2dMN/4FAIDrqeYTviznMr5ZPAd7V78AeYAKszd+Ba+Q3gaPGzEhGH/feS/WfHkP+sc077q9/O04bNw7A8vfjrPPE6B2eaqCUafVQqdu/fIzY55bCQDYsSwR3yye0+ILY/raTSbPA7Lct8sfx+aZY6EtyMPI373o8K+pVOkHACjPzW61zLiX34Q8QIW9q1/AFw9OafElPjRxCR76+mdETJ3dqX3t6sw5905sXo/NM8ciL/k3DH98GYYmLjFZl+TqCQBA5cw1aHSRdWq/9XFkiGyueuTDaAiMhMe2JSYj+9zk4/jiwSlt1uHu6Yz+0UpcSFGjf4wS/iHundXd28La3x+xW1vCr0DBzA82I+e3w9j35ssG5YJih0EeoELGT7vMHg3qCHPOK0dwMWkPYh58FKroIXZ53W81415+EyHDR4m3J6x61+RItFdIbyh69UVhaopdRtGEH4O3M3POPePPCWPdanWQf/8aKuatR80ds8WZhc7GYIhsqiEgAjVD5kL24xp011p+wVo/lRwNDTdQlKtF30hvAED/aCUqNTWo0dXburtkAWGYH2ga6Rnz3Ero1EXtfrgR2cv0tZvEkZ4Bk++DTOnH6fguqLtWDemBD6G7ZwUkl4/DqSC909vsksHQoEF3YOqMeZA4SQCYzr+ZMXMBBkcPFW8bl0l85BkAQGZmmpjLU99Qj107tyE19ZRYzl3uiYcSl8DHx088VlJShH9tXo9KbbnZ7Vki8ZFnENKzeZgxad8uHD60z6q62uMmV2Lcw+/D3TtEPHY6aSPSD281KDdyxkr0GjyxxeOLc87i581Lxdv1vYehR/ElcajTWlcvlqN/jBL9Y5QYMlqFrPRShEV4w9PbFSMmBOPBpdHQFFe3yI9ZvSkBrjIJPllzEhdSzAvGVm9KAABkpZcifnIoAKCh/gb2/DsT3352XiwntOsqbX7bHPohG5+vTQHQNJXnH+KO0sIqhEV6Q6OuwamDeRg7tRca6m/gi3WncWzvNQDA9IcHYNLccDhJmmaqNeoai/osEHKFBOeTi02OEi1aHiM+N1N9N4cqegjcFN449/12AICz3AN5Z06186iWhNweZ2nzEPjMDzaL/zceZdKpiwx+7RvnHhnX11regn7OhsDSPCagKf9v5MgE/PDDN5g8eTbcpFIAwJnTJ7BzR/P7xtRnh34ZoZ7UtFMYNiwe1VVVYp1OzhKDzyLjukx9Vt0MxuefqfPYuIxAP7+tf4wSj64YAoXSFYDp9197hJFIYaRnyENPQqe2LiXBePRz+OPLMPzxZQBanjN12gr0HTcZg2bObbptdP4Zn3dt5cwYj2q1l1/TmvbOPYHxd42psjfr3JNcPYEexZdQM+QByL9f3eJ+4XV1U3jbJEewywVDQiKy8YfKqPhxYsCQ+MgzUCr98fGGd1FQkIuAgCAsfGgJlix9ySCICenZG1KZDO+/9xoA4KHEJRhz1z3IvpIllrn/gYcBAO+/95pB8KPP3PbaI5x0VTod/rz6OQDNgR8AmwdEQpJ1RUk2dn24EAAQMWoBohMWw1PZC0d3vgGgKRAKjhiLI9v/hOy0fQaP0w+EGl1kqO85DN21xR1OfMvLrkT/GCXuTAiGq0yCjLNqhEU0jRQd23sNcRN6old/BUZMCBYDjBETgqHwdcOJA7kWBxWBoe5wlUnw3ouHAQCPrhiCUZNCceG0Wpyqmzy3n0FAs/ztOIwYH4KykhrxQ1uhdEWNrh67tlzA+FlhuGO0Cnu2ZWL8/WGIm9ATx/Zew6LlMRgxPsTgw371pgQ8umKIxQGREPgIgZop0x8egBHjQywOfoyV52bjen0desXdhdIrF+Hk7IwqK75s9KezzElADRk+CqWXMrF55lgx8Bnz3ErxF79+feNefhP+g2JM1qOfv9TR6SM3qRTTZswXvxRmzFyAgZHRyLp4TvySmDZzPv7vlx/F28Jnl1pdIL6X3aRS9OnTD1u3/APTp8/H+IkzsH//97hzxFgMHRaP1NRT4udJZmY61q97S6xL+Fy4WQHRouVNr/PiCTsBNJ+DDy4dLAY5y9+OQ99BPti15QK+/ey8yR8ywrErFzRYMf9Hse5Jc5uCEXMDIp1ajTqtFv6DYtDnrolWB+sAxHNraOISDLx3Vptftt59wuEs98COZYkAgPGvrMHI370ontP602NCfaYMTVwCVexw/Lbpgw5/sZtz7hl/bwnfNefSTovfrTfz3OtWq4Pk6nHU9xyGRhdZpydTd6kE6oCAIIwcmYCcq5cNItzDh/aJf+BBg+5AgCoYR48moaAgFwBQUJCLo0eT4OGpQGivMPFx+iM8ldpy5F67CqmbHDK5HEBTcCKVyVCl07Ua0FjSXnsGxwyF1E2OPT/8RzyWmnoKBXnXEB4eaXY95hpwZ9Mb9OSev4nH0g9vRXHOWfgED4SbvCmBWaYIRHVFEYqyTwNoSs6uKMmGq8xLLAMAjRI33HD3g3PGL1b3ycvHFU5O3aGtqEVJQRX6xzRNkQkBiOBiWimcJN0RN6GneEz4f8ZZy6fn9H/RXkhRozCnEm5SJyh8m36pXkhRY9XjSQb9uJhWKvZZ0FB/AycP5gEAnCTdUZhTiaJ8rXh//xglIof542JqicGH/MmDeXCTOqF/dPPraStC/8pKajpUT27ycaR88QncFN4Y8+xKSGTyNssHRg8DAOSf7lg+hn6+R27ycWgL8uAs97AoQdgrpDec5R6o01bYJI/G+Ndx1sVzAABPL4VY5ostHxl8WWRdPI/qqioolQEGdZ1O+Q1VOh2cnJxRrilFxvk0g/vvHHEXqqq1SPp5l3jsTMoJVJRrENZ3YIu+5Z0+iTqtFn0TJnX4ebbl87UpBqOQx/Zeg6a4Gq4yibj4wdPbFZXldbhwWt1qmbgJPVFd1YDvv8gQ6/o16Roqy+vEqXJzlOVcxtF/vAMAGPPsSoMRQFNU0UPgLJcj38qASaA/UlSWcxmaKxfhLJdDprTsveypCsb1+ro2E77N1d65J3y3qdWF4vdW9pUsVJRroFD4iI+72edeD/UVXPftg+uK0Bb3CUHmvx4Yb5OVo11qZEip9IeTswSZmWmtlvH0UqChrh5ZFw1/TWRdPI+RIxMMPqzaU6ktx+mU35AwbipeWfVXk9NjtmxPqQyAm1SKJ558ocV9JSVFcJd7mj3KZA6ZIhAVJdktltvnZR7FgBHz4CpXoFqrhk6TD0VgP/iFRosjQx4+oci/eAzVenlBN+R+aHRt+wvSEkf2XsWDS6MNRkqED9FvPzuPIaNV8A9xFz9U/UPcceWCpkXgZCumppqMNdTfQFGeFn6qptdBXVBlcL/C1xVuUicMiPXFxr0zWjxeP7CylV+TriFymD+mLuyPqQv7d2iEKH3XN0jf9Y24TFaYPtBfKizcV3op85ZJaC7LuYwrR37BoJlzkbjjgFXTY5Yyns43pb6hHuVlGvG2RlPSooxC4QMfHz88+/xrLe6r0rX8tSx8SYx7+U0k7jhgMrndFoyntgQadXPQXV5aA1+VTFwMIYzeXrmgEd/Xnt6uUChd8fw7o2DM0jxBYZQwYupsDHn4KQyaOReDZs41eA2E+6o1pdi94ulbJsn8/A//C/9BMZiw6l2rp8cE7Z17ldpyVOl0UCr9ERAQhIKCXIT2CoOHpwKnU34Ty92q515n6FLB0M0gjDoJJ9ezz7+G6qoqbPnXejGitqXOrNta5eor6OU0EXGzXkXcrFcBNOUKCdNogu7aInSr0ZqqwirH9l4zCGzKS2vgKmt+c2ell2LE+BBxNEXi3B1H9l61Wfv6hEBIPydHyPuxRmu5PZ3hQopanH5YvSkB8ZNDWzwXawgBxZjnVqLfxKnIP30cucnHcWLzepzYvF5clnyr7Pkj9Ev4Mpz5weZO25NH+LwoyLsm5g4KUw7WMPVDrDXCVGJhago2zxxrVXvtEQIhN6kTPnn7pPg+FXL2BOqCKgyI9RUDcaApV8j4vLM2Z64t9Totkv72BgZMvg+q2OGImDpbDObTd32DiKmzMW3txzj3/fZbYs8fIZATcmFM/dAwh7nnnkZTgpCevQ1+fJ85faJFOsbNPve61WjRXdv529F0qWBIrS5EQ119i2FmfeVlGjg5SxDWd4BBQBHWdwCcnCUGv8IskZp6Cqmpp8QTTajflu2p1QUYGBkNpdLfLsGQTpOPwL4joAgINxgdUoWPRF1NOWq0GrjJlegTMxlXzvzUIvgx1q2+Gt0ri1DX7y44Zx6wqk/KACmqqxqgKW5/SkcY8RCG0q9llXfaqJAyQIqaqoYOB1ua4hpUVzXA09v2I0DmEPI0Vm9KEEfVrPkCatpjqGnKKe/MKQwM6QXPoFCDoCL/9HH0mzhV3O/lVqH/ZTjk4acQGD3M5sGQMCJ84vihDtel0ZRAqfSHTC436wvJM6hp9LKj0z9tEUY42xqJFaaE2wu6y0troPB1E6ekbUGq9ENDXR10ajXyz5yCKnZ4i/Mw7/RJRGhK4akKtlm7tiCMrghBkWrwHRY93pxzLyAgCOHhEe0uzrnZ5951ZS90ryxCt/pqm9TXli6VM1RQkIvMzHQMjh6KUfHjxONCAjXQPO85cmQCAgKCADTnGhXkXetwwpdwoglBji3bE+ZiJ02+X6yrLdPXbkLijgOYvnaTFc8EyLt4DD2cXTBk0v+IxyJGLYBvSBQupfxgMAUmUwS2W5+Q8NYQGIkbctvnvhgTcnsGxPqi7yAfMYenM6gLquAk6S5OfxmvBjPXhRQ10o4XIjDU/aZtINk/RglXmQQ1unqrf4nLlH7QqYvgFdIbveLuQrWmFHmnT1pcj05dBDeFN1TRQ6zqR0cIX46mksA7+t4SPh+Ezwvhl7mw8swSvx5rysGbNXsR3OWeVvXHmLCJqbCS0lKmgvrVmxIQGNpyP7D2An/hB8Z9j0YabLTaEfrBet+ESbheX2dV7ppwbgRaGJDYgkyphLNcbnJFXMTU2Xjo659NbghpybnX1sAC0DnnnrnaW5DjFdIbszd+hcQdB1rdwNESXWpkCAB27tgKtboACeOmikvi9ZexV2rLsX7dW0h85JkWw3/GywrbY+okMk6cNLc946X3Pj7AK6v+alBfpbYc/9q8Hg8lLmmRN2QcwQsJoa0JjRyH4dNXwMnJRTw26YmmD3ZhlCc7bR8qSq7i7gVrMf+VppGchoZacdUYAFRr1Tj7y6cYPn2FWEZg6hIfksvHUTNkLmqj7u2UzbL0k5qBpg/SXv0V0BRXW7QM11Kfr01BWIS3ONzfUH8Dx37OwdCx7QetpuoCgPjJoQZ5Q9ZMFRh/AQm5SDVVDeLKN1NLm625bIcwktJD0jQN4t0nXFzpZe1eLvvefBnT124yWLpsaZ6Bcb+Apo329OsytZy/tbyM9t5b5khNPYWwvgMNPqcOH9qHAQOjLK6roCAXW/61HgsfWmKQu9GRJc5CLpuvSobpDw+w+L1zIUWNw3uyMWluuHgO52dX4nxysbhBqqkyAv3zUxhZenBptEHekKXL6039jYX8MGtzg9J3fQOp0k/MNQMs347BVL+E813/vWO8nB9o/b0gVfqhh0SC6/Utc6rMOfeERT4J46YafC8BhtNinXHumau+51Bc9+0D6QHTU4RlOZdRp60A/PwtHj0zpdvAqDGNxge9FCqUafI6XLmt6yL7E5bR5188ZjBN1tryeqBpB+rayHvhsW2JVRsvWkJYlnviQG6Hlo2T+YQP94yfdrWZy2BuObItc67JpZ/zo79dhC3pL5nXnyZra58wWxCmlzRXLrYZVJtb7nYkpHscPPCjwY9sU8vrLWHu9eDac0OuRMW89XBJ+77NH9XCD6HynCsd3lyzS02Tkf15+PRED2eXVo/rNPkt7nM99Q26VxahYt76Tp0u6x+jxH2PRkJTXM1AyI6EvID29hgS9n3pFXeXw18ny56EKZ22lmjfmRAMhdK1U1df+qnkJqeRhePlpR3b6qE1wvRSeV7bz0sYWfAfFIOg2GGd0pdblaeXwuRKM+G4Wl1gVb3mnHvtaXSRQXvva+heWWRwbUtThCX8F5P2WN2egCND1C5hI0ZjpnaqFpi6ar2t6Ofr2PMq7WQ5/SkCeyxnd2TCNEtby7L1d1Hv6Cac5mhtOwp7tG0O/d2hO2tl4a3KOHUDsH76y5xzz1zmXLVe2Knbln8zBkNERETk0DhNRkRERA6NwRARERE5tE4PhjhFRkRERLcyjgwRERGRQ2MwRERERA6NwRARERE5NAZDRERE5NDscm2yCap4LB24EACw7twW7M3r+JWciYiIiGzBLsHQ3rxD2Jt3CBNU8Xii3xyoa0uRXJJuj6aJiIiI2mTXabKjxcnIryrCEJ9B9myWiIiIqFXMGSIiIiKHxmCIiIiIHBqDISIiInJodg2GtPU6nC3LwGj/YQhwU9qzaSIiIiKT7LKaTN+mjK9wsiQVf7/zVeRXFWFl8l+hrdfZuxtEREREAG5CMLQqdhm8JZ549PBLDIKIiIjoprPrNJlcIoO3xBNnyzIYCBEREdEtgQnURERE5NAYDBEREZFDYzBEREREDs2uwVC4RygCpX7I1ubZs1kiIiKiVtn9qvXf5STxqvVERER0y+g2MGpMo/FBL4UKZRqO3hAREdHtjzlDRERE5NAYDBEREZFDMxkMcYqMiIiIHAVHhoiIiMihMRgiIiIih8ZgiIiIiBwagyEiIiJyaK1uuvjQlFw8v+AynCU3sP+ED55+O9Ke/SIiIiKyix6+/qGvmbrjTKYHPtreExU6J8ydkA93WQOOnFHYu39EREREnardabJ/7Q5CVq4UI6LK7NEfIiIiIrtizhARERE5NAZDRERE5NAYDBEREZFDMysYOnbWC2FBVXhoSm5n94eIiIjIrroNjBrTaE7BUdEarH3uHABg+V8H4vBpriwjIiKirq/VfYb0ffj7NAyNKGcQRERERLcds6bJApS1uFbkykCIiIiIbjtMoCYiIiKHxmCIiIiIHBqDISIiInJo7QZDo6I1CParQYHaxR79ISIiIrIrs65af+6KnFetJyIiotvS/wPuKZki9Qk/1wAAAABJRU5ErkJggg==;" vertex="1" parent="WIyWlLk6GJQsqaUBKTNV-1">
          <mxGeometry x="980" y="-1522" width="242.81" height="182" as="geometry" />
        </mxCell>
        <mxCell id="ITZqo2qJiZWr1Mnri4VZ-12" value="" style="shape=image;verticalLabelPosition=bottom;labelBackgroundColor=default;verticalAlign=top;aspect=fixed;imageAspect=0;image=data:image/png,iVBORw0KGgoAAAANSUhEUgAAAkcAAAHlCAYAAAD/f1iPAAAgAElEQVR4nOzde1hU5do/8C/GIDMMDAMjDMNRARUERcUDQmqgqYWCeagdukPfrLaVP7PTq9UW38peO1jbXW5r+5Zts902LS0rTTFtg1qSoiKagMh5wOEwMDMchuL3x+y1XGsOMAwDjHB/rqvrijVrnueZmeWse577ftZyioie3gFCCCGEEAIAGNLfAyCEEEIIcSQUHBFCCCGEcFBwRAghhBDCQcERIYQQQggHBUeEEEIIIRzOvd1BkPdwPHPPRohdxQAATYsGb367CaW1xb3d9YCwfJYMTy+RY09mLd7YW9XfwyEcD89cg7GBEwbN8RymcMWOtSFQyAQAgDZ9B976XIndx1R90v/+188hIkSDJp0z1r0dgewL0j7plxAy+PR6cFRaW4w1u9MB3DqZ3E6eXeqHFXNl7N+VKj0ee+cGCitbePvtzwiDRORs9jFHxpzw1Lp2LMoo7O/hdMuU0ASsmLEaX5/7HN/kftnfw7Gr/RlhiAgS8rZZOvb6SmFlC2Y9dxWA4d9FWpJ3n/X93nOXEeDTglWvRlNQRAjpdZRW68R7a4KRluSN1z6tQuTKS4hceQkff6/CpnT//h4aGQQqVXoseLEAkSsvYcGLBQCAPS+EIj5K3M8j61thATqMCtYiJ19CgREhpE9QcGRBmMIVowKEKKpq4aUNdh9TIW1zUT+OjAxGhZUt+Ph7FYY6O2FapHt/D4cQQgY0u6TV1s9/BeHy0QCAtt/a8NHJ7fipKKvb7Tw8cw2mhU9n/1aqK/H6oQw06OrYbffGLMSiSWm85+0/u4eXVvEUeeG55AzIJYpO27KGROSMMIWr2VRGfJQYW/8UDHfhrRjzq1fC2f//IbcRj28rsZi6MpeKM67rsMQ47fLRYRVbk8S08Wt5MwDgrhgPAEBT8+9Y97cSZOdp2FomF4ETAEABAfI/jO60Pe6YbE3xGH82xscLcyydKvgRO09sA3Crbg0A3vx2E+6Ons87ThZNSmOPCeOatq76mxKagGXx/4Uvzv4Ts6OT2f0KlFfx2tcv8sbOpPFc7nBht2laNLx9jGvsLLVli+vKFrS2dyBE7sLb3tmxwHhvTTB7HADAldJmk2MRAM7ka9k0ck9qiozT0cb9EUKII+tRcMSceMRDPZDxxbMorS2Gp8gLy+Ifxq9V+d0KRO6NWQgAWPn3xQBunWT+lLSOPbFMCU3A/AlLTIIhY39KWgcAWLfnkW4HQ4zCyhYcyVFjxVwZvnol3OwJJztPgymPXwZgn5ojJtgqv9mKWSsNtR1MEMPgBlqRKy+Z7MMd410xHrhS2ozIlZfYttctliM7rxC7j6mw+5jKqpqjLY8EAAAWvFjQo3oX5jO9WHYOG/auAWD43FfMWA0A+KkoC699/SLWz38FsSOm4lLZOfxUlIW0af8FAGzQs/PENuw8sa3LmiNr+gMAgfNQLE94hD2umAD83piFbLvMNu6xZ1xD5ynywmNJT6GqodwuwZCxEXJXDHV2wg1lGwDrj4X9GWEIGDYUq7YWIztPwx4Lx14fzTteI4KEvP32Z4ThiYW+uK5sQXaexsyIzHtvTTBiR4nZdphx7s8IowCJEHJb6FFabfHkZfASy7Dn1E72l3qDrg7vHn2920HJN7lfsjMFgKGQu6qhHO5CD3iKvAAAMvdhAABV002L7XiKvOAu9EBTc6PNgRHjjb1VWLW1GE3Nv2PFXBnyP4xmf2H3hgcTDQWuW/cpLe6zMEEKd7c7ePvsPqZCUVULpka68fbl/lrPztOg/GYrOxNmrTCFKyQiZ6h17T0uBL47ej40rY3Y9/Mn7LbsaydRp1EhmhNk/C1zK+o0KqRMXIpFk9IQPGwE7xizd38Af/bxUlkuNC0a+HkGAjAcU/Ej70KB8mqnQbmHUALxUA/cbKrp1jitER8lxhMLfaFSt+PLrHoA1h0Ly2fJEOrnin0n69gAJztPg30n6yCTOCMu8tYMF3dmEQAOZDV0O40XHyVG7Cgxrz/mh0bAsKE21UvFja2Hu1s7zuR5dvu5hBBiix7NHA1z90GdRoVfq/J7PBBzqTDAkA5jZF87ifiRd+HRxLV4NHGt2RmkBl0dsq/9gEWT0vDhqn02p9PYPjmzQ0xqwvgXt73IvQQov9na6a/0ELkL3IVD8Pd1w00eq1TpuxX4WIM7g5b/YXSPVkwNc/eBXKLA1rQPTB5ram5k/79BV4cdmW/jmXs24t6YhThV8KNNaVpr++sKE/RkX/uh0/1Ka4txsewcpoVPx7Tw6T1OpylkArNpWoY1x4LcS4DW9g6cym/iPX4qvwmLZ3hB7nUrVdqk/Q3Vde3s35bSeJ1hZrdWzJXx0mqAIU03Qu5q9SzU8nsq8HRaMVQNLkh7MQaF5SKrx0EIIT3R60v5rWEuPQcY6k/chbfqJBp0dWx6ZP38V9haE259CmCYhfom90s27bI17QO7XF/p8W0lbC3FwgRpv113yPgXvjF7B0hv7K3CG3ur2JTNV6+EdzkGS6wNVv08/eEiMJyUh7n72Dz2ngbH3cWk/Jg0XE8CdGsCUVs/h+5g0njdYS4N3V27v/XH7m/9sfyeCuzbcg57Divwxu4RPWqTEEKs0aO02s2mGoiHesBDKOnRIJhf5hfLzlkdvLz29YtY+ffFKFBexQifMDb1xvVTURYe+/BBvH/8HbgIXBAdGNOjcfYF47SX3EvAFk0DhhPVUGcnjJDbNwCyxu5jKsQ8mofXPq2yadWUtcdLkPdwpE17GCU3r+P94+8geNgItiatN/qzFpNmY3QWtH2T+yVW/n0x9p/dAy+xDKP8Iu0yBi5rjgVlnd7sZzUt0h1DnZ2grNNbfC7Tbmf7GLNltqkrpy9KoWpwQYhfs93aJISQzvQoOPr+0tcAgMeSnmKDE0+RF56Y/ZzZYMWSxmY1NK2NvJMNdwWcJdbWF1lTq2QsPkqM/RlhvEAlTOGKObESVKr0bN0HQ1mnN6nhYBRWtkCta+cFPuYu8ncmXwuFTICFCYZruRiv+AGAL7PqoVK344mFvna53g0ztu7UgzCpmO6cNAHzx4s5TAH2nlP/h5+KspBz/QzmT1iCKaEJvP2qGirQpm/D2MCJPeqvK0z929jACQjyNqSwrDk+AUNA1aZvQ1VDhc39W2LNsXA6XwOVuh2LZ3ix+8RHibF4hpfJZSq4mBqn8put3Vqtlp2nQc6vGtwV44Fnl/p1/0URQogDcIqInt7RkwasWSptvPyZwU2HGe9XoLyKm001GOETxqYkjJf6M/tx6zrMLaW29fICxsvdgc6XJBsHPNwaEeNl/z/kGmpeRgUIeakT7pLrSpUef/myGi8uU2DfybpOl9YDt1IZ3bl0gKX2mLbMXa6gJ0u8O/t8fq3KZ48lbj0Zc4x5iWUmn6PxcWOcPu3qeDC34o27yo05Po2P81MFP6KqoQxzolPY/iwt9bclnWvt6seujgVue5aOTXOPm9vH3LHAMP53YXzpAHP7WCssQIcd6/Pwa4kbHn99TLefTwgh3dXj4IgQcvtz5NvfUHBECOlrdIVsQohDKywXQa11RmykGvHj6rt+AiGE9BAFR4QQh/f8ttFo0jrj7y9cwk+7TlGQRAjpVZRWI4QQQgjhoJkjQgghhBAOCo4IIYQQQjhsDo48pYqudyKEEEIIuc3QzBEhhBBCCAcFR4QQQgghHBQcEUIIIYRwUHBECCGEEMLh3N8DsLeoqAlITnkA/z55BNlZmb3en7tYguXpq+Htbbhprr5dj0MHP0Ne3rle77svce/hZXzfLkIIIWQgoZmjHmrSqLH93dfw8qancDzzUH8Ph+fZpX7IfT8Ky2fJ+nsohBBCyG1jwM0ckd5RWNmCWc9d7e9hEEIIIb2OZo4IIYQQQjgcauYoJTUNY8fFsn9bqt9JX7EGgUHDLe7TrtejpaUZq59Yz9YCXbyQg4MH9nTaX1lpMXZ9tI23T3xCEhKTktm/a2trsHvXdjRp1Da9xqQNmxE4OR5lP2cjc/MGm9rg1v8wKlV6PPbODRRWtmB/RhgigoTsY+sf9MP6B/1M9ouPEmPrn4Kx72QdQuQuuCvGAwDQ1Pw71v2tBNl5GpO+2vQdeOtzJXYfU/HGtD8jDABwJl+LFXNlFvddPkuGp5fI4SJw4j2f2ycAeAYOx6yXtkAo9cIvH+9A/qF9Nr1XhBBCSHc5THAUn5CEiDHj8OX+3RaLmZniZ5FQjL+//yaUygq4iyWYe88ilNwoYgMWZ4EA99y7BMczDyE7K5MNcFQqJVuknb5iDWQyX7Ydudwfy5avxuon1rPBT0pqGm9MTP+P/uk5fLJ7O5TKij57f7i2PBIAAFjwYgEKK1tMHl+UUQjAUHOUluRtNpjhWjFXhkqVHgteLAAA7FgbgnWL5cjOK+Sl05j2LIkIEkIicua189DdMpzO16CwsoUNjLIvN+HxbSUADEFVwLChvMCIEEII6U8OExzJZHK0t+mhUlVb3CdxVjI8JFIcOvgZG5g0adT4fO+HJvsygREAFBVeRVxcImQyOQDDija5IgD/PnmEbUeprMDp08dx54w5CA4JhUpVjfDwSFy5fIEN1po0avx44giSUx5AaNhom4IjW2eLGGEKV0hEzlDr2s0GRra4UtrMBlQAoNa1QyJyRpjCtVt9cGelAODX8mbEjhLD18sZhZWA3Msw+3QmX8s+50y+FmlJrhghd+UFRw1lxdj3yNKevjRCCCGk2xym5uinMycAAKsefQb//cLriIqaYLKPVOqNRnU9Sm4U9agviacU7W16FBXyC4yLCq+ivU0PiacUMpkv4AQUFV7h7VNyowiN6no20OprhZUtOJKjRkSQEPkfRuPY66MRpnDtUZvKOj3v70UZhZj13FW7BV/G/UyNdGO3TY10g0rdjtP5NGtECCHEMThMcKRUVuDNN17AO29loFFdj4WLluOljW8jPiGpv4fmcN7YW4XIlZfw2qdVkEmc8dUr4fjpvTGIjxL399A6dV3Zgtb2DtwV44H8D6OR/2E0AoYNxcZ/lNs9ECOEEEJs5TDBEYO5btA7b2WgtrYG4eFj2Mfq62shEorhJu5ZEKBuqIeziwChYaN520PDRsPZRQB1Q70hvdcBhIZF8PYJDgmFh0QKlUrZozHYw+5jKsQ8mofXPq3CUGcnTIt07+8hderBRG80aX/DghcLELnyEiJXXsKUxy9TrREhhBCH4nDBEcNNLIZIKEZ9fS27jUm93bf4j3AXSwAYirSXLF3J/m0NJjUWF5cIudwfACCX+yMuLhHKynLk5Z2DUlkBlaoaEWPGsSk+d7EE02fOQaO6Hhdzc2x6XUkbNiP9wEkkbdhs0/PNYWp5jNNj5tJY/c3d7Q74enVd6uYZOByLP9iL9AMnEZu+ug9GRgghhBg4TEE2d3k+w3j5vVJZgff/9jqWp6/G2qczANxayt+dpfXM7FT6ijVY9egzFvvb9dE2pKSmYeGi5Vi4aDkA0+X+zCo3oUjEbmP2N3dpgJ5ilt+7C2/FtZaW1+8+poLcS4AVc2XI/zAagGnRtC39MZcGMC7k7srb+6qxY60Qf1833OQx41uSNJQVo03TCPj4QjHWtP6MEEII6S1OEdHTO2x5oqdUgYb6SnuPhwxg+zPCIBE5mwRnlpbzRyYvxsSHHoO67Aa+WvdwfwyZEELIIOSwaTUysDCXILC0vUn7G6rr2vmPJc4FABQeP9wnYySEEEIAmjkifchcig4wvc4ScxXxNp0WJ9/YiIrzZ/t6qIQQQgYxCo4IIYQQQjgorUYIIYQQwkHBESGEEEIIBwVHhBBCCCEcFBwRQgghhHBQcEQIIYQQwkHBESGEEEIIBwVHhBBCCCEcFByRbts4/klsHP9kfw9jUHh2qR/yP4zGsddHI0zh2t/DIXa0fJYMue9H4dmlfv09lH4Xn5CE/37hdfYm330hKmoC/vuF1xGfkNRnffal+CgxfnpvDHLfj8LyWbJe7Wu2IgF/mfwixAL73eR8vHck9s7choNJO/DwyKV2a9daFBx1YUpoAnas/BT3xizs76HwrJ//CjYv3QZPkVef9vvwyKUYIQ7C+1f/2af93i7CFK449vpo7M8I6++hEHLbkMnkaG/TQ6Wq7rM+JZ5SAIC6ob7P+uzK/oyw2/KH0Omb5wEAr45/yi4Bklwow9rIFfi+MgspmY9h57W9PW6zu0xvdkWIBbMVCbhbkYDXLu2AslnV38MZFN7YW4U39lb19zAI6VVSqTd0zRpoNZqud7aT/gjI+lJ2ngZTHr/cJ31p9Fq8dmkHtsQ+jweG39vjYCZaOhoAcKjsuD2GZxOaOSJWkQtlWBaagu8rs3C+Nr+/h0MIGSDcxRKI3NxQUV6KJo26z/r0DwiCSlUNpbKiT/oc6JTNKnxSdBB3KxIw3juyv4fTYw41c+Qp8sJzyRmQSxQAAE2LBm9+uwmltcXsPvfGLMSiSWns30p1JV4/lIEGXR0AQxpsWfx/4Yuz/8Ts6GS2rQLlVbz29Yu8/h6euQbTwqezf7f91oaPTm7HT0VZJo8tmpTG9ssdFzPm6zWFqGooY/fhtsXs09TcyBvD+vmvwF3owRu/udd4quBH7DyxDUHew/HMPRshdhWzj21N+8BkP0uvz/g9YNo7cukg/DwD2X3Nve9dRfJRURMw955FOPztfsROSkBg0HAAQG1tDXbv2s770otPSEJiUjLv+c06HT7ZvR0ymS9mzZ6Ps2ezcOeMOQCAo0cOYMrUGfD29sHFCzk4eGAP+7yU1DSMHRfL/l1WWoxdH23jte0/fhJmPLsJAHp0I9tnl/phxVx+7v6jwyq8sbcKy2fJ8PQSOVwETgAABQTI/zDaZD8AeG9NMEYFCPGXL6vx4jIFeyPeH3Ib8fi2ErN9Gd+cFzDUrDyx0BcfH7mJ+xK8oJAJLO67PyMMEUFCk9fE7dOe3MUSLE9fDW9vH95248+vs2OBOWnJ5f5Ytnw1hCIRAEDfrsehg58hL+8c73nMDYvLfs5G5uYN3R6zte/n/owwSETOeOydGyisbAFg+ExjR4mx7m+G93Lrn4Jx8kIjZozzgLtwCD46rMLUSDdEBAl573lrewe0Lb/h2OujO/38jI+vSpWe1z9zU+d9J+sQInfBXTEeAICm5t+x7m8lyM7rnRmZqKgJSE55AAJnAbvN+DM2tx/3e8FNLIZIKIZKpUT6ijWdfncYt2N8rADmj73jmYeQnZXJ/s30WVFe2unr8wwcjlkvbYFQ6oVfPt6B/EP7uvsWATB/023mczb32FevhLP/b/y9sHiGF175pBL/b6Gv2WPGuD1zx0B3vjveWxPMHk9c5vY9ffM8kgNmYkFQ0m3/I9phgiPmRK1pbcS6PY+gQVeHIO/hmD9+Md479gYAw8k+dsRUvH/8HV7Q8T+LtvJO5gLnoVie8Aj2n92Db3K/ZIONe2MW4pvcLwEYAhBuW8Z2ntiGnSe2YUpoAlbMWI2vz33OPtecaeHToWnRIOOLZ1FaW4z1819BysSl+LWqewcIE9AwYweAtPiHMSU0AT8VZWHN7nQAlgMrxvr5r8DPM4AdD/P+bl66zeQ5iyalQamuxLo9jwAAnkvOQNq0/+IFUtN8x6OhVQ1Ne7PZcUs8pUAHMH3mHOi0Wry86Sn2i2xsTCz7xZS+Yg3kigB8uX83e3JLX7EGIjc3aDUahIaNhrPABXHTEvHvk0cQF5eIe+5dguOZhxAePgZSqTeAW1+AAPDOWxlo0qjZk2hKaprJl3NPLZ8lQ1qSNy/I4dp9TIXdx1QIU7hix9oQqHXtJl8cXAqZAFtWBbDtPbvUD2lJ3lg+S4bdx1RsOo1pz5Khzk54ItWX186KuTI8u9SPHef+jDAEDBuKVVuLkZ2nYU+02ZebeiUwYj53ZWU5tr/7FG+bSqVk9+vqWABuBU/ck1tKahrmzlvUK7/6rXk/rXX3RAne+lyJ1ARPLJjmiYvXdVDW6RE7Soz4KLHZ/pjPhtsfc2y89bkSu48Z0tn7M8KwY20IL0ACgBVzZahU6bHgxQIAwI61IVi3WI7sPMvHoq3MfTbmMJ8zN6BNSU1jvxdkMl/ACYibloiCa/nY9dE2s98dzA8hpj/mO+C+xX9kgyhzx15KahrunDEH6oZ6tn+ZzBfOLgLe8dhbwhSu2PTHAJTfbDX7ncBNf5kLvI25C4dgy6oA/JDbiFnPXTU5ZrjtMUG7OdYc6++tCUb8GHe89mkVdh9TsYGXpdei0WtxqeEaoj1HQixwg0avtek9cwQOk1ZLm/ZfAIAdmW+zJ+7S2mI2MAryHo6xgROQc/0MG8w06Opw8Je9cBG4IDowhtceN7i4VJYLTYsGfp6B7ON+noFo07ehqsE+X65KdSX+vH8dG6DdbKqBeKgHPIQSq9uYEpqA2BFTcargR14gtid7p9kArrN2goeNwJFLB9nxlNYW48ilg/ASyzDKjz/lWaC8ig1716BBV4cGXR2amhvhLvRgi73FAjd4CSS41HDN4sEuk8khFImg02rZmRuVqhrtbXp2n/iEJJMvSWZKXafVokmjNrQjFOH0qeNQN9TD2UWAstJiXMzNgcjNDfX1tQCAxFmG2QbuL8vQsNEQikQmX3gV58/i0wfvwacP3mPzrJHcy/DLSlmn72JP67TpO/Dap7fqiZh2mX66gxuwncpvQlPz7wiRuwAwfDFLRM4ov9nK/nI8na+BSt1uU19dcRdLMH3mHCgry3kzeMbFr9YcC3K5P+LiEnknXyYdYq4+JXPzBuxKnWHTrBFXZ+9ndxRVtbDBjItgCD49Xttlf7uPqVBU1YKpkYai1jCFK+bESpB9uYltCwAOZDXA3e0OxEXyT3xXSpsx67mrKKxsQWFlC9S6dkhEzr1S4CuTydGs06Go8KrFfcx9zgBw8MAe9jMNDYuAUCiC6ma1xR81UVETEDFmHO9YaNKocSH3Z3hIpAgOCbV47P105gTa2/QIDYtgt1lbjN1QVox9jyzF7iWzbJ418vVyhrvbHXb77gAMxwzzw+a6sgWt7R02HaNdHetyLwFU6naczjf8W8vO06D8Zmunx1SJphJ+Ih+EewR3ezyMab7jcV1T2q+1rQ4xc+Qp8oK70ANVDeW8VA6Xn6c/nJw6cKmMP5X+a1U+6jQqXuBjje8vfY2xgROQcd8bvBSYrZqaG3mzMdz0lrUrymTuwwDA5DV2l8x9GNr0bbhUlsvbfqksF3OiU9h+GDebanh/G6cfxc5CeA7tOsjTt+uRc/bWexgaNhrOLgL2Cyg8fAwa1fUouVHE7mM8vS2VeqO2tgYXc3MwNsaQLss5mwU3sRguAhcUFV5hT5De3j5Y+3QGr3/uLIQ9fZlVjzmxEqx/0A/rH/SzOINkrdb2DlxX3vplyMw82RtzggwYNhTxUWJk52kQFymGTOKMIzn2r+8IDgmFh0SKC7k/87YbF7+aOxaMn8sEu4lJybzUm7nUqSPingybtL+huq7d6ueNChAiTOHKnljvivHgpWkZxgGu8Qm4s9nLnioqvIKIMeOw6tFnzKbA3MUSjIuZDGVleaf/JqVSbzTrdDj83X52m3HwEhoWgUZ1PS7m5lhsJzgkFCKRGD+eONLl2PuyGDs7T4OcXzXsZ2guHdUdbfoO3ufcm4XXyjo9Qv1cERcpRmFlC+KjxAgYNhQ5v2oszmz1xMbxT2KC1xi8e+UTHK20/XxsDw4RHPWH0tpirNmdzqbmHk1ci0cT1/JmnIiBpr0ZDa2WT6RMsGL8Jcj9ArJUdDll6kw4uwjYoIe7j0wmZ0+gY2Ni4ezsApWqmj2JdjWdb0+FlS2Y9ZzhF/L+jDCsmCvDirmyXqvZsSdlnR4RQUL8fd1wdtsPuY29sgpO4ilFe5ueN5sgl/sjPDySTYNZOhaYX/bcYNrcSXegMzej54jHWV7eOeTlnWNTWWufzuAFrtbU9TDHgnGK1Pi7wz8giJ1R5OJ+RyTOSgY6YBLwMGm7osIrbJ99XYxtXEuY/2G0Sd2YI7qhbMNdMU7sj0LAMDvZ1bHY/FsrqnQ1ne5jzqbzfwVgCJKSA2bihfNv91tqziHSauZSOcaqGirQ0eGE6ED+RcJG+UXCSyxDVUOZzX1v2LsG6/Y8AqW6EmMDJ9rUjj2omm4CgMnMji3tmEs1RgfGwEXgwvZjLY1eizq9ms0jG2O+BJmUF6Or5bnMSZP5EuQWZjJfYNxAqa+X+lqyKKMQkSsv4UppM/sL31HFR4kRO0qMjw6rELnyEvtfX55op0ydCaFIZHJ8cDFpk4G8tNoaTBpUrWtHYWULquva0aT9rVdSoPaSl3cO//vqczieeQgymS/kcn+rn9vZd0dXwQvz/dHVKrfYSQnQ6TS8WUoAnR6PveWNvVWIXHkJHx1WQSZxNkmLOhImpftDbiPvu6OrWa9gsaLT+lRrnKo+D8+hEoidTReR9BWHCI4A4Hj+YXiJZfhT0jp2W5D3cDw+61kAhpmeqoZyxI6YiimhCQAM6aqUiUtRp1Eh+9rJHvXvIZRAPNTDJMVU1VCBNn1bj4Imc8Hf+vmvIFw+mrffT0VZKLl5HfMnLGFfI3CrIJvrZlON2foh4FaqcU50CoK8DbMFQd7DMSc6BSU3r9uUPjxVfd5iHtlccaOl2QH/gCC4iyVs8TT3RCiT+aK9vQ1FhVd5gRLwn0DrP78cS24UoVFdj3Exk+Eu7jrd5z9+Eh789Fs8+Om38B8/qduv3RzjkxjDOI3lKKytR0jasBnpB05iwdadNvclFIkQGmY4tlNS0zB8eBiaGhtM9uMeC3PnLYLAWcALgAsKLsPb24dNr1o79qQNm20euzWUdXq4u90BXy/DxLul1Ty2eGqxL2QSZxzIMrxfhZUtOJKjRkSQEO+tsb2Gw9iCrTvt/l6Fh4/hfX5KZQVUqmqEh0fyAqYlS1ewfxvP6gCGoEcm82WDlyaNGhXlpZArAtgraDPfH7pmDY4fOwTA0Iazi20hdcYAACAASURBVABTps5k22KKwX88ccQkgGIWdwCG4zQlNQ3GPAOHY/EHe7H882OITF7co/eHK0TuYpJaBwzHlqMFTd0JzMUCN0R7jkSdXn1bF2MDDpRW+6koC1UNFXjmno34cJWh8I1ZUs547esX8fDMNWwKDDC/RN8a5oIT46XwgCEo23NqJ1bMWG0yLkv1UebsOfV/eOaejezS+1MFP+JmUw1G+PCvpGzuNZ4q+NEkoNl5YhuGufuY7LfzxDZ2Nmz9/FeQcd8bnb4+a12qv4rm31rNLtE0l0oxrh9p0qjx44kj7PQ7gP/80pSzq5OmTJ2JNn0btBoNgkNCASdDioX5sjx9+jjb1hf7/oFly1fzao6YNnsj1WbuBGipduD5D8qxY20IL43V3Rol4/6YSwO06Tt4q5a6kp2nwb6TdexUPpe5aX11ZTkCAUgCQxCZvLjbRajZWZkIDx/D1gnV1tbgq6/+ifvue4gNdI2PBX27nr1cAzeYNqxkkpvUHPV3qu3tfdXYsfZWmvJKaTM+OqzC4hndu1o9U0jLpGgBw7Lrx/96g7fsmjlujD/DnqRltKoaeI0Ih29UDPzHT+r2QgXukntGWWkxtr/7Gm/b/s8/xvL01Vj16DPstuOZh9gZIWaVq/GPJOMfWwcP7IFU6o2Fi5Zj4aLlAEwvGZCXdw4STykSk5LZy3vU1tbgvb+8yjtWmELuxKRkvLTxbXbsvVXHZnwZBsDyJRYe31aC/RlhvDRWd1Oq5vpjjtXutFVY2YKPv1fh6SVyk+8OS+OPGzYefiIf7Lr0hdXjdVROEdHTO2x5oqdUgYb6SnuPhziw2YoErBq5FK9d2nHbX8NisGC+KPdk1vKCM0vL+ZnruriIxT26JlR3MXUr/z55pM/qyAYz5tpfbRoNjr38PBrKrP+hRwYHZtl+zq8a3neEpeX8cqEMW2Kfx7+rz/b4CtmzFQlYFpqC53O29NuKNYdJqxHHd7QyC5fVBVgf/diAuALqYCD3EvB+QRpvv6Fs420PS5oHsY8vqvNyey0wik9IwjPPvsqmVpgl2F2tRiL2M3reQriI3HDj1AkKjIhZI+SuGOps+t3BbOeumBML3LA++jE0tKrxWfE3Pe5b1VoH4R1DkRyY2OO2bEUzR6TbNo5/EsCtlQXEsZlLCRqn55iZBBeRG/IO/As5u7b36pg6u2Iy6T2RyYsx8aHHAKBHV3wmg4O5uwIApmUCsxUJdl9dNluRgCcilgEAvi473uc3n6XgiBBCCCGEg9JqhBBCCCEcFBwRQgghhHA4RHDkKVX09xAIIYQQQgA4SHBECCGEEOIoKDgihBBCCOGg4IgQQgghhIOCI0IIIYQQDgqOHFjHUDc03v8umuMe6u+hDGjM+9wWPqO/h0IIIcQBUHDkwLSzDDdrdD1HV7HtTU6tWrie+xya+f9DARIhhBAKjhxVc9xDaPcbA/E3GXBqtc/l2IllLgUnITz9IXQzHsfvYtPL5RNCCBk8KDhyQO3ySLRMvB+ik+9hiKZ/7kg8GLme24chTTXQzXi8v4dCCCGkHzn39wB6g7tYguXpq+Ht7cNu497Yknlcp9Vi10fb2H3SV6yByM2N3S99xRoAQEHBZSQmJQMA9O16HDr4GfLyzvH6TF+xBoFBw9m/j2ceQnZWJvt3Smoa/AOCcPi7/bjvvocgFIkAABcv5ODggT28tvTDJ+GOm9chKDV/h3JmXDlns3g37zTu09z7wO0zPiEJ42Im4+qVS4hPSEKzTofvvtuHefMWQygS8dqTy/2xbPlqdtyW3gd7Mb4xqaU+jd93ACgrLeZ9rsZtNet0+GT3diiVFbznMek17Zzn0S6PhLMy32RcsemrEZV6P+quF+CrdQ/b5bUSQghxLAMyOFq0xFDA/M5bGT2+y3dg0HDIZL74+/tvQqmsQPqKNZg7bxFUqmoolRW8QOvlTU8BuHUyBsALVry9fZC27E9s0BGfkIQ7Z8xBUeEV9oTfMdQN+qBJGKK5aTad5i6WQOTmhna9HnPvWcQGC+kr1mBczGRczM1Bk0bNjkFZWY7t7/LHpVIpAQAymRwikRhjx07E8cxDuHPGHMxP+QOOHjmAKVNnQCaTAwDiE5KQmJTMC5ZSUtN474M9paSmYey4WJP+wsMjoVJVA7gVrOmaNeznzGyrr6/ltRUxZhwvqEpfsQb3Lf6j2bvAO1ddhlOLBr+7DwOUdn1ZhBBCbhMDLq3GBA86rbbHgRFgOsuQczYLzi4ChIaNBgCMjYmFSCjG4e/2s8/JyzsHZWU5wsPH8NrSt+vx5f7d7Alf3VAPAJB4Stl9OgRC/O7uA5drJ8yOx00shkgohpfMB4e/3c+e8LkBgbtYgukz50BZWc6bQWH6YfqVSr3hLBDg2NGvAQACZwGuXL6AivISiIRiqFRKyOX+iItL5AUq7mIJ/AOCoGvWQKvRdOv97EpU1AREjBlnMgsmlXrz+ps7bxF0zRpegCOT+cLZRcAGf1FRExA+MpIXGMnl/pDJfC0eH076ZgxpqkHbyJlmx5ezazt2pc6gWSNCCBnABtzMUZNGjQu5PyMxKRkvbXybl06zhXEAoFJVo71Nz86qyGRyCEUirHr0GZPn1tbWwF0sYftub9OzMx+AIYgyTkv9LvZBh6u4y3EpK8vZ57LByn9O+FFRE+AhkeJC7s+858hkcnYMTBDJtJOSmoZmnQ4/nTkBmcwX7e1tKCq8itCw0RCKREhMSmZTi4Bp6speQsMi0N6mR1HhVXabccDLBDgFBfm8z9X4uaFhERAKRVi4aDkWLlrO7mculUkIIYQwBlxwBBhSWdlZmWwaae3TGRbrTGzFzE4AlmtYbDFEUwOnFsuzMaFho+HsIkDO2Sx2GzObVFFeCsAwQ2QcYMjl/mxaSqmsgFzuD5FQzAZQUqk3+9iUqTPRpm+DVqNBePiYHgeY3cEdB2NsTCy8vX1wIfcQAMMMEZyAosIr7D7Gs1nM37YGcXfU3ej5iyGEEHJbGnBpNa68vHP431efw5f7d/NSYT3BnJiZ1JRKpYSzi8Cw3Q66SutwZ3+4Y+Kmk8yZMnUmhCIRm37jvo5bMzGXAfwnhWWntGRPuYslGBczGfp2Pfuem5M4Kxne3j49HjeT1rxDRcERIYQMVgM6OGIY19o0adTQabUQubnBXSwBYH7VkzG53N9QhHyzmk1pXczNQaO6HnPnLYJc7t/jsTq1aiEoPYt2vzFmr7djXHvDvD7jmSKhSMQGgympaRg+PAxNjQ285+h0GpTcKOIFSkwKiwmiCgouw9vbB2NjYq0af9KGzUg/cBILtu606fUDhsBNLvdni93b9Xq06/W8fZwFAoSGRQAwFIyPHWcYHzPuJo0aFeWlkCsCEBU1weq+2/3GoMNVjCFNN80+Hpu+GukHTmLxB3vhGdj58UIIIeT2NODSasZLzgHzS8APf7cfy5avxtqnMwAY6lDq62vhHxDEa8/b24fdh9mPW6/SpFFj967tWJ6+2qTuyLio2FqC4rNomXg/WqPvhfD0x+x2JnCpKC/lzY6Eh4/hBUzZWZkIDx/D1gnV1tbgq6/+ifvue4idXQoPH8POskg8pUCHoZ4qOCQUIpGYTVllZ2VCJpOb1BxZSrWpK8sRCEASGILI5MXIP9S9q3sznwvzXl68kAOVSom4uER2tiwv7xxCwyIwdlwsxo6LRW1tDb795nPclXgvL9V28MAeSKXeJjVHllJtHUPd0DJhCQTFP5ldxg8AOlUNftPrIZR6QTFuIhrKirv1+gghhDg+p4jo6R22PNFTqkBDfaVdBmHPtuzJ+LpHfak57iG0jrkXHp+tvq0uBOkZOByzXtoCF7EYJ9/YiIrzZ/ukX2apf09qv6x9zxds3QlJYAh++XhHt4M/Qgghjm9QpNVuR8zVmhsf2H5b3c4iLGkexD6+qM7L7bXAKH3FGvZCmMCt5f8FBfk2B0Zt4TPQHLeyy6uSRyYvhiQwBOqyGxQYEULIADXg0moDhVOrFu4HnkdT6haT9Joj8h8/CTOe3QQXkRvyDvwLObu291pfuz7ahpTUNLy08W12W0+W5zPpNPHXf4ZLwUmz+3BfX9nP2cjcvMGmvgghhDg+SqsRQgghhHBQWo0QQgghhIOCI0IIIYQQDgqOCCGEEEI4KDgihBBCCOGg4IgQQgghhIOCI0IIIYQQDgqOCCGEEEI4BuVFIJlbXLRpGvHVuoe73D82fTWiUu+HpqYax15+3uHvp8XcsFWn1Zq9h1hvSElNY2/+CvTsooyOKj4hCXfOmGNyn77eFBU1AckpD+DfJ4/YdJ8+Qggh3Tdgg6MFW3fCRexxWwQzA8HBA3tw8MAe9sa/A5FMJkd7m569AW5fkHhKAQDqhvo+65MQQga7ARsc2VPOru29ejsMcnuQSr2ha9ZAq9H0WZ/9EZARQshgRzVHhFjBXSyByM0NFeWlaNKo+6xP/4AgqFTVNt9QlxBCSPcNqJkj7s1BGal/3cX+v/ENQ7WqGiRt2IzAyfEAYFJTxNQaMequF5itUWJqmMQ+vuw2W+uTmLSUUCS6Ne7SYpPaIaYWReAssLhPfX0trxaotrYGu3dt553cjfvTt+tNamqYGiZvbx922/HMQ7dNDUx8QhISk5J528yN3/g95b5fbmIxREIxVCol0lesQWDQcJN9LPVnbh9r3lOmz4ry0k5fH3P8CaVe+OXjHcg/tM/at4YQQogZAyo4qjh/Fp8+eA8A62qOAifHo+56AXalzmADq+lPvcAGQEw6jTn5WDL9qRcAAAeeTO9RfZO7WIL7Fv8RKlV1p4XUzMmXW/Qcn5CE+IQk3sl17LhYlJUW4+VNT7FB0KIlD7FtM8HAlcsX2HZSUtOwcNFySDylyM7KZJ+nUlVj+7tP8fqXyeQOX3SdkpqGiDHj8OX+3Z0WUaevWAO5IoAXGKakpmFsTCyyszIhk/kCTkDctEQUXMvHro+2se8fsw+3Haa/zt53ZWU5+56mpKbhzhlzoG6oZ/uXyXzh7CKASqXszbeIEEKIkQEVHHUXdyao4vxZaJSVcBF7wDNwuNVBjmfgcLiIPdCmaexx4bc1MwVyuT/i4hJRVlrMC0zMzeJwZ5OUygqoVNUQubnBXSxBk0aN2EkJaFTX4/ixQ+xzjh87BP+AIISHj0F2ViamTJ0JADj83X5eX+HhY+AfEMS2ZS/Gs3VctszGSaXeaFTXo+RGkcV94hOSTAIjALz3NzQsAkKhyOR976odpbICBQX5CA+PhFzuD61Gg+kz50BZWc4LgH86cwLh4ZEIDYtgn2ttMXZDWTH2PbK0i3eCEEKItQZ1cGQPDWXFuHHqBKJS70f6gZM9Wu7PnEjHjotlZ32MZ5CY2YSCgss9GrelGpomjRoV5aVs4COVeputeSkouIy4uES4icV2DY7sXfxeUHAZiUnJWPt0htn3010swbiYyVBWlnc6sySVeqNZp+MFicbBS3j4mC7bCQ4JhUgkxo8njnQ5dirGJoSQ/kEF2XaQs2s7dqXOwM87/wqh1Aupf92FBz/9Fv7jJ3W7rYMH9uDlTU/heOYhBAYNx0sb38bqJ9bDXSzphZEPfNlZmSbvZ0pqGvs4M1tXX19rsQ0mkDQOErnBi1zuD5nM12w73AAzNCwC6IBJwMOk7YoKr7B9UjE2IYT0D5o5sqP8Q/uQf2gfIpMXY+JDj8Fv3CRUnD9rU1vZWZnIzspkLzwYHBKKvLxzUKmq0d6mh0wm79FYmzRq6LRak9QYc1LWabVo0qhRX1/LpoS4J+nw8DG9sqzd3mk1BvN+pqSmdTsdaCndyQ165HJ/s8+NipoAuSIA/z7Z+UxR7KQE6HQak/RfZ0EbIYSQ3jFgZ460qhoIpV5QjJvY532LZIYVSDpVjcljC7buRPqBk1iwdadVbRmnVript/iEJHY/piC7OwoKLsPb2weJs26trEqclQwPiRQ5Z7MAGGYynF0EmDtvEa+vwKDhuJD7s92XtTOzcOb+2/fI0h4XvHMDP+BWLRYTADKWLF3B/m08qwPAZKbIXDvcwmumJox5P5laLuBWEfePJ46YvJ9SqTf7/ympabxZL4Zn4HAs/mAv0g+cRGz6wLwAJyGE9KUBO3OUuXkDFmzdickPP4nJDz8JwHQpf1e4y/wBAD6+SD9wEr/p9eySaXOXD+A+zsUUb1tivJQcAJp1Onyyeztv1ubggT1QqZRITEpml4ybq6fpSnZWJtQN9YYVV/9Z7t+s02HX//2F7Y+ZrVq2fDVe2vg2AMNyf+PVX9zl7QDYuilz4+8L5pbKA+Zva7L/84+xPH01Vj36DLvteOYhdswST6lJKszcSjJL7XCL5fPyzkHiKUViUjLvEgvv/eVVk9qvC7k/IzEpmX3fLX3GDWXFaNM0Aj6+UIydYP2bRAghxCyniOjpHbY80VOqQEN9pV0GYc+2CBmMmFSuuuyGVfcLJIQQYtmATasRMpiEJc4FABQeP9zPIyGEkNvfgE2rETIYMKnfNp0Wxzevt3kBACGEkFsoOCLkNtadGjpCCCHWobQaIYQQQggHBUeEEEIIIRwOERzRSjVCCCGEOAqHCI4IIYQQQhwFBUeEEEIIIRwUHBFCCCGEcFBwRAghhBDC4TDXOZqtSMATEcsAAO9e+QRHK7P6eUSEEEIIGYwcJjg6WpmFo5VZmK1IwKqRS6FqrcP52vz+HhYhhBBCBhmHS6udvnkeVboaTPSO6u+hEEIIIWQQcrjgiBBCCCGkP1FwRAghhBDCQcERIYQQQgiHwwVHGr0Wlxqu4U7fSZALZf09HEIIIYQMMg6zWo1r57W9+KU2D9um/BlVuhq8cP5taPTa/h4WIYQQQgYBhwyONo5/El4CCVZmr6egiBBCCCF9yuHSamKBG7wEElxquEaBESGEEEL6nMMFR4QQQggh/YmCI0IIIYQQDgqOCCGEEEI4HC44CvcIhp/IByWayv4eCiGEEEIGIYdZrTZbkYAnIpYBAL4uO46jlVn9PCJCCCGEDEZOEdHTO2x5oqdUgYZ6mt0hhBBCyMDicGk1QgghhJD+RMERIYQQQggHBUeEEEIIIRwUHBFCCCGEcFBwRAghhBDCQcERIYQQQggHBUeEEEIIIRwUHHHMSn8XyY9/AqFY1qN2No5/EhvHP8nbJha44S+TX8RsRUKP2jbX18GkHfj4zjcgF/Zs3IQQQghxoCtkWyt4TBImL3gel3/8GPnZe/p7OCYeHrkUI8RBeD5nC2+7Rq/FofIT7FXA7XEFcKavR0+9CGWzqsftEUIIIYRmjuxqtiIBdysS8E7+R2aDlaOVWfi67DiWhab0eJZHLHBDtOdI/Lv6LAVGhBBCiB1RcGQncqEMy0JT8H1lFs7X5lvc77Pib9DQqsajo//Qh6MjhBBCiLUcKq0Wl/ICQsbezf7d3t6Kn7/agpLLmSaPjUt8BOMSHwEAtOoa8cOedahXFphNu0nl4bgrbSuqCs/g9MFX2TYi49PYNhhNdWW8xy4c/4CXvrPUVrR0NADgUNnxTl8jk15bNXIpxntHdhpIEUIIIaTvOUxwFBmfhoDIGTj1xf+g5HKmyeOnD76K0wdftVvNUVzKCyb9zUp/F65ungCA4gtHMCJmHhThcbx+/EInAwCu/rSX19403/FoaFVD097cZd+X6q+i+bdWyIZ62Tx+QgghhPQOh0mrSWQh+K2tFY21pb3el1QeDr+wqSjPP2k2EAOAZo0KteVXIPUbieAxSQAAoViGETHz0FhbgnplAbuvWOAGL4EElxquQaPXdtm/pr0ZDa1qTPMdb/NrCPcIhnSoB36pzbO5DUIIIYSYcpjgiJmJmbtqJ5as/54NSHqDh3cQnJyAysIzXY7pt7ZWKMKmAgB8gsdhqFCCgrNf8vYTOwvhOVTSa+PlGu8dib0ztyE99D6sPrOJ0nKEEEKInTlMcFSvLMAXb83HgbcXobmxBtPu+zP+8NJJRMan9euYGmtL4B0QAaFYBkXYVKhVJSazTcxMUHdVaKu7/ZzztflYemINdhV9gQ/jX7P7dZMIIYSQwc5hgiNGs0aFQ+8tw4G3F6GprgyK8Lhe6WeIYCjcPOXs30KxjK034io4+yWGCiXwHxUPT58RJrNGgKHIuk6vRrTnSIgFbl32zcw0lWgqbR5/QWMJqnQ1CBYrbG6DEEIIIaYcLjhiuIqlcHGVQFtfxdveWFtqSHVZCJqYxyWyEAC3VpcNFXmw+9SUXEBzYw1GxMyDUCyDUCxD0kPvwN0r0KS9mpILaG1WY9I963CHy1DUlFww2++p6vPwE/kg3CO4y9cWLR0N4R1DoWqt63JfQgghhPQth1mtNiv9XQwLjOZtu3Hxe95yecCQ6vrl8DuYvOB5/OGlkwD4S/nrlQW4euYzjEt8BCFj70Z7eyvOf/8eRk9dwrbRrFEhe/8m3JW2FalP7QcAXDj+ASSyEHgHRPD6a9aocD33O4xLfATXc79Ds8b8BReZFWgLgpI6rQMSC9yQHDATl9UFVC9ECCGEOCCHCY6O7XrC6n1LLmdaXGUGAPnZe0yW+Rf+cpD3N1PjZK1WXSOqin62+LiyWYVPig52ef2iB4bfC8+hErx2aYfVfRNCCCGk7zhsWs1RBI9JwpjpD+Hqmc94y/fNOVqZhcvqAqyPfgzjvSNNHp+tSMD8wER8UnSwx7f8YOqc7vSdRDecJYQQQuzIKSJ6eoctT/SUKtBQb3tBsaPjXpHb+CrZXdk4/kkAwKbzf2W3iQVueHX8UzhUfsIuN53lthniHoCGtiY8n7OF7rNGCCGE9BAFR4QQQgghHJRWI4QQQgjhoOCIEEIIIYTDIYIjTyldyJAQQgghjsEhgiNCCCGEEEdBwREhhBBCCAcFR4QQQgghHBQcEUIIIYRwOMztQwgQn5CExKRk9u+y0mLs+mhbr/VnfFNe7j3q+kLHUDc0pW6BoPQshKc/BgB4Bg7HrJe2QOzji7rrBfhq3cNdthOZvBgxD65E7qcfIv/QPrP7cNvV1FTj2MvPo6Gs2OqxLti6Ey5iD6ue5z9+EmY8uwl3CFzwy8c7LI5poIpNX42o1PsBAHkH/oWcXdv7eUS2mzo7AA8+MQ43fq3H1udOWf085hhwEbmh7OdsZG7eYHa/dnkktHOeg/v+ZzDEwn0bCSF9j2aOHEh2ViZe3vQU3nkrA7W1Nb3eH3N/uX++PAM3Ln7f6/0Z0856BgDgeu5W8NBQVox9jyzF0U3PQCxXYPEHe+EZOLzTdkQyHwCAuqLE4j7Tn3oBAHDgyXTse2SpSYATm74ayz8/hsjkxTa9FnJLzq7t2JU6A3kH/oWIe+/rk/f0j+tisP3b+Vjw0Ohe78saFefP4tMH78HPO/8KxfjJWLB1p9n9nJX5uENVjMYHtuN3Md0GiBBHQTNHpF80xz2Edr8x8PhsNZxatSaPMyeXziRt2IzAyfHs37M3vml2tsl//CSI5Qpc+/5Qt2aLbGXN2AeDwszvEDJtJvzGThh0s2eM/EP7unztbsfeRFPqFuhmPA7xN5v6aGSEkM5QcET6XLs8Ei0T74fbkS02pxIWbN0JsVyBo5ueweh5C+Em87EqBUeIo3Fq1UJ0cjuaFr+JtvAZcCk42d9DImTQG7DBUVTUBCSnPACBswCA+fqdlNQ0jB0Xy/5tvE/6ijUAgIKCy2wtkL5dj0MHP0Ne3jl2P3exBMvTV8Pb24fdVltbg927tqNJo7a6v+5IX7EGgUG30k3HMw8hOyvTpra6IhTLkPTQO3D3CmS3mbsZL/dmvVw3yy7h2K4n2L/1wyfhjpvXISjNsWk8zExQdV4uKs6fxcTlj0Krsi0NuWDrTniNCGf/nvzwk5j8sOHGwca1SW2aRoQlzWPradp0Wpx8YyMqzp9lx8XUmZh7nMt41us3vb7b9UlRURMw955F+OH4N5gydQZ7/FlzrHOPz/iEJMTFJSLv8jlMmpSAZp0O3323D/PmLYazi8DkeO/LY29UjAwrn58IqcyV3VavasGHW37Br7kqbNqZCL9gd/ax5GWjkLxslMl+f1wXg6mzAnH4XwX46uOrAIAFD43G3PvDceZYGf6xNZdtw7hNrnWvT0NYlDevnc7aspazMh+C4p/QMmEJBKU5ZmdTmVoua2vxCCG2G5DBEVPYfPFCDg4e2MNui09IYr/E01esgUzmi7+//yaUygrI5f5Ytnw1Vj+xnhfUBAYNh8jNDe+8lQEAWJ6+GtNnzkHJjSJ2n0VLHgIAvPNWBi8Y4rK2v64wgZhOq8XLm54CcCsQBGD3kxRTtN1YW4JD7y0DAETGp2Fc4iOQyEJw+uCrAAyBUUDkDJz64n9QcjmT9zxuYNQx1A36oEkYorlp9gRgDa1KhTaNBr5RMRgx8264iD1QefFc1080gznJxKavRsS993UaoHiNCIeL2AMHnkwHAMx6aQvi/vQsG0Bx02lJGzbDNyrGbDux6auhGD8ZP+/8a4/TTc4CAe65dwkboDDHPvdYj09IAgD2eGGOvUVLHmKDKKFIhBEjRmLPJ3/DggV/wKy7U/DDD4agK3ZSAvLyzvX5sQcADz4xFgDw1rPZ+DXXdJZx48PHAcBs8NNdTCDG7Y8pyGacOlqKkFFShI3x4j03bIwXmtRt+Ol4uU19A4DLtRPQzXgcHQKhzf82CCH2MeAKsuVyf8TFJaKstJgNjADDFzfz5R0VNQFyRQBOnz4OpbICAKBUVuD06ePwkEgRHBLKPo/7C7tJo0ZFeSlEQjHcxGIAhmBF5OYGnVZrMcDpTn9dGRsTC5FQjMPf7We35eWdg7KyHOHhY6xux1qjpywFAPxy+C/stvzsPbhZdgneAREQ/qeI1E3qh+bGGtSUXABgKPZurC2Bq5snuw8AdAiE+N3dBy7XTtg8poayYpz+2xsAgOlrX4DYx7fT/f3GTQIAVF0wncHpDu5MUkNZMepvFMJFLIabrHuFtBJFAH7Tt3Vam2h/sAAAIABJREFUQN4d3JmbosKraNbpIJPJ2cezszJ5/xaUygqoVNUQubnBXSxht1/I/Rk6rRbOzi5Q19fh2tXLvH66e+wx75FvVAz8x0/q9usaFSODq5sALVq92cDI3qYkBsBd4oLswyUW+ztztBz1N5sRMkqKqbMDABhWtIWMkqK6rKlH4xzSdBMdrmK0+5n/d8wUutOsESG9b8DNHMlkvnB2EaCg4LLFfSSeUrS36VFUyP+FWVR4FXFxiZB4Sq3ur0mjxoXcn5GYlIyXNr5tNp1mz/5kMjmEIhFWPfqMyWO1tTVwF0usnoWyhpvUD421JSbL+ysLTmP01AfgKpaiWaOCtr4KUr+R8Akex84ceXgHo6rwDJo5dUW/i33Q4Sru8biYWZrI5MWY+NBjiEq9H1Gp9/OWTXPTEI5UIH31uy/hGxWD2RvftCmd1l3m0r4AeCsi9e16qBvq2b/r62tN2rHl2MvcvAGRyYuRuOE1NNfXdesSCr/mqnD5bDUS5gXjg6MpvDRZb5DJRWhSt+HXC523/8u/KzH3/nCMjJbhzNFyjIw2BMenjpb2yrgIIX1vwAVH/YGZlWJSDGufzkCzTodPdm9nZ4rsqTfbtpVadQMhzndj2n1/xrT7/gzAUGvEpN0YQzQ1cGrR2LVvvVaD4395FaPnLYRi/GREJi9G/qF9yNm1HTm7trPL9B3lmkNMYMdce4mpc+qNawIxgZFIKGZTuoAhzStyc+t2e9099pjrQ329bpVNKwX/sTUX/9iay9b0PP1GPFp07fj03Qs4c9T2FFZP/HpBhfi5wQiNNKTWQiO9cOPXeruMx6lViyFNN3vcDiGkZwZcWk2lqkZ7m56XVjCmbqiHs4sAoWH8a6KEho2Gs4uA9wu6O/LyzuF/X30OX+7fzWvfnv2pVEo4uwggk3WeSrIXbX0VPLyDIZWH87YrwuPQ1qJGi6YeQrEMI2Lm4cbF7/HPl2ew/3FrjRhO+mYMaapB28iZdhmfSOaD9rY2aFUqVP2n7oi57hGj6sJZ/KZvM9ne35hrOh14Mh2ammooxk6wex9uYjFEQjEKCvJ7HEx399jzDBwOF7EH6m8U9vgSCl99fBWr7/kahz75Fc6CIexsjb0JRc6QDrtV/O2jEMNZwP+aZGa0pMOEWPDH0XB1E9hl1uh392FARweGaHr/GmeEkM4NuOBIqaxAQUE+xo6LZQtRgVsF2QBQcqMIjep6xMUlQi73B3CrVklZWc5bmWMLJk3GBD327O9ibg4a1fWYO28R21ZnFmzdifQDJy1ehK4rlYVncIfLUEyc+//YbZHxaRgWGI3rud/xUmZuUr8u23Nq1UJQehbtfmPsctE7iSIAbZpGNJQVIyxxLn7Tt9lUW6T7z2o3v14IULriJpPBRSw2u+IuacNmpB84adXFMM3RajTQNWsglXqz24xXm1mru8deb/D0NgQuDbUtvO3M38aF0saPM89nZqK4gU/h5To4C4Zg2uwgi/swrl0yHPfJy0ehRau3y6xR28iZGNJUAyd9s9nHY9NX9+hYIIRYb0Cm1Q4e2AOVSonEpGR2CT53eXOTRo3t776G9BVrePUT3NVt1mJW/ghFInab8XJ/a/szXm7t7Q28tPFtXntNGjV279qO5emrTWo/jJdUM7/cLQkek4TJC56Hs/NQdtvcVYYg6sbF73H64KsouZyJxtpS3JW2FX94yXD9lfb2VnZVGgA0a1S4dOIjTF7wPLsPw9wtSQTFZ9Ey8X60Rt/L3jakO4yXzANA+oGT0NRU49vnH7dpliL/0D6IZD6ISr0f6QcMr6G7txlh6p/uEAjYbbM3vgkAvFoo48sHGD/O5dbD2a4mjRo/njiC5JQH8NLGtw19lRbj4oUc+AcEdbsta489e2BWirmKbn1Ntet/N7si7auPr8LT25WtTwL4S/m/+vgqwsZ4IWFeMBLmBaNF147DnxVg1qJQi2206Nrxxf/lY/biMJOxnTlajmmzgxAW5Y1f/l3Z49faLo+EfvgUuB3ZYnGlmk5Vg9/0egilXlCMm9gnFzQlZLByioie3mHLEz2lCjTU9/xLwd5tkb7HLNuvKjzDqzGytJwfMFwhu3XMvfD4bLXNF4JkanbqbxRavHcVcCuYuvb9odv6Pl+3G2s/n9vVutenwTfQvcdF4sw9BodobnZ5hewFW3dCEhjiMPVzhAxUAy6tRvqeh3cQ7nAZanG7tr7K5DHXc/swpKmmR/eUYtJR6srOUxrMdZFCps2kdEQfUoybCKHUq8vP53b0x3UxCIvy7nTZv7W0s57B7+4+EJ18r9P9IpMXQxIYAnXZDQqMCOllNHNE7IK5MKQxc1fSZjC/mAWlZ21Kr3UHNxXX3XQZ6R7mEgqA5XTh7Yq5eral9F53tcsjoZ3zHNz3P2NxBpV77A6095MQR0XBESGEEEIIB6XVCCGEEEI4KDgihBBCCOFwiOCIUmqEEEIIcRQOERwRQgghhDgKCo4IIYQQQjgoOCKEEEII4aDgiBBCCCGEw2HurTZbkYAnIpYBAN698gmOVmb184gIIYQQMhg5THB0tDILRyuzMFuRgFUjl0LVWofztfn9PSxCCCGEDDIOl1Y7ffM8qnQ1mOgd1d9DIYQQQsgg5HDBESGEEEJIf6LgiBBCCCGEg4IjQgghhBAOhwuONHotLjVcw52+kyAXyvp7OIQQQggZZBxmtRrXzmt78UttHrZN+TOqdDV44fzb0Oi1/T0sQgghhAwCDhkcbRz/JLwEEqzMXk9BESGEEEL6lMOl1cQCN3gJJLjUcI0CI0IIIYT0OYcLjgghhBBC+hMFR4QQQgghHBQcEUIIIYRwOFxwFO4RDD+RD0o0lf09FEIIIYQMQg6zWm22IgFPRCwDAHxddhxHK7P6eUSEEEIIGYycIqKnd9jyRE+pAg31NLtDCCGEkIHF4dJqhBBCCCH9iYIjQgghhPx/9u4+Lqoy7x/4h2QQZobnEYZHHwBTBEXFR0gNLLVMSM12Qwu77cmKuyzrZ20r/mrrV5a1bblueZfdZru3q6uWbbmJaTdoKSkqogU+8Tji8DAwDMhQ/v5gz+GcmQEGGGTEz/v18vVyzpxznWsO15zznet7XeeQRLeDI6bUiIiIqD9izxERERGRBIMjIiIiIgkGR0REREQSDI6IiIiIJHp0E8gld5ThmbTzcFP8im9z/fH4G6McVS8iIiKiPjFgUODgzO5ufKLQCxv+EY66Blfce1sFPFUtOHjC15H1IyIiIrqmHJJW2/zPEJwtU2JybK0jiiMiIiLqMxxzRERERCTB4IiIiIhIgsERERERkYTDgqPvT/ogIsSEJXeUOapIIiIiomvOZWTstKuOKixhTA3WPX0aALDi7ZHIOc6Za0RERHR96dF9jqTef+4U4qMNDIqIiIjouuawtJpWcwWlle4MjIiIiOi6xgHZRERERBIMjoiIiIgkGBwRERERSTgkOEoYU4PQgCbo9AMdURwRERFRn+nRbLUld5ThmbTzcFP8itMX1Hj8jVGOqhcRERFRn3DofY6IiIiIrnccc0REREQkweCIiIiISILBEREREZEEgyMiIiIiCQZHRERERBIMjoiIiIgkGBwRERERSTA4IiIiIpJgcEREREQkweCIiIiISILBEREREZEEgyMiIiIiCQZHRERERBIMjoiIiIgkGBwRERERSTA4IiIiIpJgcEREREQkweCIiIiISILBEREREZEEgyMiIiIiCQZHRERERBIMjoiIiIgkGBwRERERSTA4IiIiIpJgcEREREQkweCIiIiISILBEREREZEEgyMiIiIiCQZHRERERBIMjoiIiIgkXHt7B+H+Q/HsHauhdlcDAIxNRrz5zzUorjrf27vul5bM1OCZe7TYklWFtVsr+ro6/ZLQZk+UHMXG/e/2dXWuiZWLgrB0tkZ8fbq4EQsyi67JviNDTdiwKh/Bg5pQftkdj74Wg6JS5TXZNxGRLb0eHBVXnUfG5nQAwLIZGRgdNq63d+kQlhcLS9fy4nEjWnXXK/D08MIbuzNRa6ru6+o4TGSwOzY8NQTBGoVseV+3p7VbK7B2a4VYv2vp9YwzAIB5K+IZFBGRU+j14Oh6JVwsACAhRo11jw3GtgPV7K0hh5AGQ0L72vvGCDz6zgUUlTf1ce2unYQxNQgNaMK2LC0DIyJyGhxzRNTHcvKN2HagGhpvV0yJVvd1dYiIbngO6TladdcriNKOAAA0/9KMjw+sxw9ns7tczrIZGZgaNU18rTOUW6VV7oy7GwsmpMm2235kC77M2yG+9lH64bm5mdB6B3dYliNtz4zEyHAP8fXHX+utepnezxiMW+O8xNflerPNngLLlN63eXV4/N2L4usrLVfR0PQL9r4xQkzPWK5jqxzL1I20R2yI1k2sW33jr1jx54vIyTd26RhMikjE0unL4TbADYD8mEv/JtK/l7BNtVGPLQf/C4/c+rQ4Pg0A1qV9IP7/YOF3sjFAHe0PaG0rs2JT8OnBD7F46kNiuZblAPI23B572l536arNAACtX1u6TRhf5qZwAWC7vdhK00nbnvD+T6WNANDjvzFgX1snIrqe9Sg4Ei546oFeyPzHShRXnYeP0g+LE5bhp4qCLgUid8bdDQB48MOFANoGxT6WvAKvffE7AK0Xw7vG3dPpBemx5BUAgBVbHu718SrCxcdgakH0gycBtF3UAIgXjZWLggBAXEcITF5/OFQWsAgBlPSC88bDYVgyU4PNe/UAgIGuLngiNVBcRwiCVi4KErd5P2Mw4m9W46F155GTbxTruT0z0mpsy9LZGpTrzZj3u0IAwIanhmDFQi1y8u0fA3Nn3N24a9w9ssB41V2v4Lm5mWLA8sbuTDw3NxOzYlNwsiQPdY0GpIxfhGqjXlxHGJ/W2Zgje/YHAGp3NR6c/ri43rIZGYgfNhknS47ih7PZYhsG2tqL0Pak7G173SUERUKQtHJRENKS/fHW33Xi3317ZiQ2PDVEDJCENlR6+QpmPnhG3G7pbA2GaN1kwfKtcV5Wf+M194d2KY1nb1snIrre9SittnDiYvipNdhycKM4+6zWVI33vnmjy0HJl3k7ZL/mi6vOo6K2FJ4eXvBR+gEANJ6DAAD6+svtluOj9IOnhxfqG+uuyUDeuxN94akagHXbdOKyzXv1OFvRhMnRKnHZ2q0VsotVTr4RpZevwFvpishgdwCtF5qEUZ74Nq9OdqF57oMS8QIpkAZPBwvqUd/4K4ZoW3tQEmLUiL9ZjW0HqsWegaLyJuzJNSB00EAkxMhTN6eLGzHzuTMoKm9CUXkTDKYWWb0646P0Q8LwW5F77ntZj+G+gq/h6e6Jm4OiAbS2jQ1ZbwMA0qb+BxZOXAz1QC9syHq7S38re/cHWPdkniw5CqCtLSUMnw4/tQa7ftzaYR3saXvdtWSmBmnJ/jhb0YTNe/WIDHbHrHhv5Jyql/3dd2bXwlM1QEy93ZfkDwCytrd2awVOFzfi5lAP2d9P2usktIWupvHsbetdMXV0DQDg4Anfbm1PRNQbetRzNMgzANVGPX6qKOhxRWylwoDWVIkg5+cDSBh+Kx5JegqPJD1l81d8rakaOT9/iwUT0vDRQ9t6PZ02ROsGT4+b8OGKoVbvlevNiAx2R1F5U7uzlMr1ZvH/Qu/B9wUNParTMK07Brq6YOlsjdWMu2bzVQzTusvSKUJvhaCrs6a8PLyhHuiFqVHTZGlRgRBYAK1B75aDG7F0+nJEaUdg+5EtXb6tQ1f215kgnzC72rA9ba8rRoZ7oOCjWPG1NNgN9HOFp2oAbo3zkq0jENqJ1k+B0stXrFJj3xc0YOF0PwT6ueJSdQsAwGBqkfUQ2Urjdcbetm6PlUvOYeldpTh9QY1J6VPtrgMR0bXgFLPVbKXngLbUiqDWVI0XtmaI7y2YkIYFE9KsxpB8mbcDX+btEMekrEv7oFfvr9TZ+A0hMPJUDRDTXEBrmsRb2Xt/gms9FsTWWB5bNJ6DxHFCQT5hvb4/R7C37dnLnqn7tsaROdKVlqtWgXFnejJWSWrt5mFYu3kYVi45h7wt2Xhry1Bs/mdIj8okInKUHqXVLtdXQj3QC14e3j2qhNATcKLkqN3By2tf/A4PfrgQhbozGBYQKabepH44m41HP7oPf9n3DtwUbogNi+tRPW25oGvGQFcXDNO2n4ISegJyfzJ2eFHpzq95W87pmnCl5aqYZuttdY0GGK/UYZBnQKfrCmN3DhZ+h+1HtiB+2GRMikjstf3Zw7INB/mEwE3R/rGzp+31xKXqFtQ3/NJpO9BVm22mSSdHq1Df8IvYa2SLUPY5nf23DbCnrXfVwRO+uGK+CVr/Kw4rk4iop3oUHP3r5BcAgEeTnxYvED5KPzxx23NdumDYutjZM3vI3vFFvTleZEd2DfSGFjxxd6DVRUpg62JnOeMHaBu/kZbsjyUz29JhwoBse+XkG5H7kxG3xnmJA8F7k5DKjNKOwLIZGe2u56P0Ewdgbzv8Kb7M24GLl88hbeoyhPvLUzWX6yvhp9bIxg91dX/2OFlyFG4KN9weexcA6xlwHX2W3hrbJowJGhnugfczBre73vcFDRjo6oIVC7XispWLgjAy3AN7cg3tpriEMU6dBeuW7GnrRET9QY9yOsVV5/H77Svw3NxMccq1MABWuGDYuthkzl8LoC0tUmuqxq4ft2Lp9OX46KFtAIBC3RkcLPwOwwIixe0sp/oL6wmz2QDrx5VI69Sd2wt0pqi8CY++cwEbnhpiNRZDSGsVlTfhk3/p8cw9WnEMyeniRnybV4ebQ+UB0oLMIryfMRir7gvCqvtaA5tv8+qsBmR35vF3L+L9jMFW4456607MwvibBRPSbN6OwcvDG8/esRpuCjdZ+9hy8L/w7B2r8ewdq2Vpz43738UgzwBxjA8gT6N1tj97A5YfzmZD4zlILMfYZMSf9vw/pCUsk61nT9tzJCEdunS2RjbuSDqwevNePc7pmrDuscHiOs3mq3jtswqr9tLRGCfA+jYTwVCg4KNYNJuvijPm7GnrRET9gcvI2GlX+7oSRNQ7pNPvnfFxNwljarDu6dPYlqXF2s3D+ro6REQAeIdsIupDl6oGor7BFbMm6xEZaurr6hARAWBwRER9qKhUidUfRMFT1YLP1+Vi7/uHGSQRUZ9jWo2IiIhIgj1HRERERBIMjoiIiIgkuh0c+fgGd74SERER0XWGPUdEREREEgyOiIiIiCQYHBERERFJMDgiIiIikujRs9WuBympaRg9Jh4lxeex6eN3+7o6TikhRo11jw3GQFcX8TlaRERENyr2HF2ntmdGYu8bIxAZ7N7XVSEiIupX+n3P0a6dW7Br55a+roZTy8k3YtLjp/q6GkRERE6BPUdEREREEk7Rc5SSmoaQ0HBcrryEESNjUVVViR++P4DbZqWipdmMTzevh05XBgBISExGUvJccdtGk0n2vlYbgsVLlsNDqZTt48TxXKseJGE8ksByXFJCYjKmTEnCP/7xCWbPWQB//wCb6wGAT9hQzHzpdXj4+uHHTzagYPe2bh0LYfyPp0db3Hq6uBELMotsvvf5K1Hi/7/Nq8Pj714EALyfMRg3h3rgjzsu4XeLg8VtpOtYllff+CtW/PkicvKNYplLZmrwxN2B+GTPZcxP9EOwRiGrk9T7GYNxa5yX1WeyXDdk7ARMX7kGAHBg7WqUHTvSjSNFRETUO5wiOAIAf/8AmBoasGP7Zsy+YwEmTZ6OL3b9FXPmLMSkyTOwa+cWxMSMw+AhUXh5zdMAAE+1N5akL8f8hfdj86b1qDcaoNOV4c21L4rlCsGSpfSlGdBoAvHhX96ETlcmrrf8iVViWQDgoVQibfFjOHE8F+vfew0xMeMwN+U3SEhMRk52lkOPQWSwO9bcH4rSy1esAg9Anv7anhkJb6UrHn3nAorKm2yWF6xR4PWHQvHx13qs3VqBlYuCkJbsjyUzNdi8Vy8r7/2MwYi/WW2znIGuLngiNVBWztLZGqxcFIS1WyvE7RNGeeK1zyqwea9eDLza+yxERETOymmCI3OLGblHsgEArgoFykqLUaWvlK2Tn38U+flHxdf1RgPKSosRFRUNlVotBjSdiYkZB21wKP73wB6xx0mnK8OhQ/twy/RZGDwkQraffVm7xUBIr7+ElmYzNBqtrMzakvPY9vCirn9wiUA/V3iqBuCn0sYelSNoNl+VzT7TVZsBAFo/RZfLEgIjADhYUI+F0/0wROsmvq/1U0BvaMGhgtZep5x8I0ovX4G30hWRwe6yAK7s2BF8dt8d3f5cREREvclpgqOWZjP0+kvQaAIBAHq9zuZ66UszEBY+VLas0WTq0r68fXzR0mzG2aIzsuVni85gypQkePv4isvMLWYYamvE15Y9U46Uk29E7k9G3BrnhYKPYm2mrrriSstVnNO1BSWb9+p7bZq+rtqMiCB3TIlWo6i8CQkxaoQOGojcn4zt9mwRERE5I6cJjuyRvjQD2uBQ7Ni+WezZSUlNQ1RUdB/XzHGE8UBC6qrgo1iU680dps+cwQVdM26Nc8Gq+4Kw6r4gAK1jjYTPQ0REdL24boIjT7U3lCoVdOWlspRXdxhqa+DqpkBE5AgxrQYAEZEj4OqmkPUU9ZW1Wytk44SEHhlnFBnsjlnx3rLB3kRERNer62Yqf73RAFNDA5QqFTzV3gCsZ5vZ6+KFs6gz1GDKlCRotSEAWgduT5mS1O3gyydsKBZ+sBVL/r4X0XMXdnn79gzRulmlx4DWNJbG2xVTom0Pou4L9o5lChk7Afd99k+HHysiIiJHuG56jgDg66+2Y/GS5XjqmUwAQFVVJXKyszBu3JQulVNvNGD9e68hfWkGHnrkWXG5ren+19KSmRo8c48WbgoXcZmt6fVAa/pte2akLI3V1Z4bW/v7cMXQLpdVVN6ET/6lxzP3aFHwUazsPVv1b9Dr0Ww0Qh0QiKDR47p92wMiIqLe4DIydtrV7mzo4xuM2ppyR9fH4YQp+ocO7XP41HtqJUzbz/3JKAuoOprOH5++HDGp96LkcA6yXn3hWleZiIioXddNWs1eKalpSEhMFl9PmjwDAKxmppHjDNO6Y6CrS7vLhVsICHzChmLI1BloNjXgzFc7rlU1iYiI7NLveo6EG0MKd7O2vIM29Q5hdp0l6f2RAGDeuo3wGxYFY+Ul7H35edSWnL+W1SQiIupUvwuOiIiIiHqi36XViIiIiHqCwRERERGRBIMjIiIiIgkGR0REREQSDI6IiIiIJBgcEREREUkwOCIiIiKSYHBEXbZ67JNYPfbJvq7GDWHloiAUfBSLvW+MQGSwe19XhxxoyUwN8v4Sg5WLgvq6Kk7FU+2N5U+swv958Q3ExIzr6+o4pWt5Xlg99kksG77IoWXeFpyIXckbsCt5A24LTnRo2Y7C4KgTkyISseHBz3Bn3N19XRWZVXe9glcXvQsfpd813e+y4YswTB2Ov5z56zXd7/UiMtgde98Yge2ZkX1dFaLrkkqthtJD3dfVcKjr+bzweXEWbg9OdFiANNY/Gg8NX4T3Tn+KlKxH8U15tkPKdTTXvq4AXT9uC07E7cGJeO3kBuga9X1dnRvC2q0VssevEPV3Ol0Z3lz7Yl9Xw6ldy/PCsaoCfPjzVjw0fBF+rMrHsaqCHpU33j8GFaZKHLp8zEE17B3sOSK7aD00WByRgn+VZ/f4y0FERNePb8qzccpQiPSI+VArVH1dnWvCqXqOfJR+eG5uJrTewQAAY5MRb/5zDYqr2h5Oemfc3VgwIU18rTOU443dmag1VQNoTYMtTvgP/OPIX3Fb7FyxrELdGbz2xe9k+1s2IwNTo6aJr5t/acbHB9bjh7PZVu8tmJAm7ldaL6HO5yqLUFFbIq4jLUtYp76xTlaHVXe9Ak8PL1n9bX3Gg4XfYeP+dxHuPxTP3rEaave2Lud1aR9Yrdfe57M8BkJ5e07uQpBPmLiureMe6zsCALC7ZB9siYkZh9l3LMDX/9yO+AmJCAsfCgCoqqrE5k3rUW80iOsmJCYjKXmubHvhAcEaTSBm3nYXjhzJxi3TZwEAvtmzE5MmT4e/fwBOHM/Frp1bxO1SUtMweky8+Lqk+Dw2ffyurOyQsRMwfeUaAMCBtatRduyIzc/QGVsP1xUerLtkpgbP3KOFm8IFABAMBQo+irVaDwDezxiMm0M98Mcdl/C7xcHw9Gj9jfJtXh0ef/eizX2dLm7Egswi2b6XzNTgibsD8cmey5if6IdgjaLddbdnRmJkuIfVZ5Lu05EsHwAtsPz7ddQWhIdFa7UhWLxkOTyUSgCAucWM3bv+hvz8o7Ltkl94FWETE1ByOAdZr77Q5Trbezy3Z0bCW+mKR9+5gKLyJgCtf9P4m9VY8efWY7nuscE4cLwO08d4wdPjJnz8tR6To1UYGe4hO+ZXWq6ioekX7H1jRId/P8v2Va43y/afEKPGuscGY9uBagzRuuHWOC8AQH3jr1jx54vIyTd2+Xh0JCZmnN3fU3vaguXfuL0HhsfEjMPclN9A4aqwuZ5QzqFDrecpoW3ZajOOOi+8nzFYPN4A0Gy+irf+rsPmvXq7zwuRwe7Y8NQQ/FTaiAu6ZvG7Ly0LsO+8sHJREBZO98OfdurwZKrW5vkFaGszwvu26i/1eXEWVsU+iimDxjptKsyRnCY4Ei7Uxit1WLHlYdSaqhHuPxR3jV2I9/euBdB6sY8fNhl/2feOLOj4vwvWyS7mCteBWJL4MLYf2YIv83aIwcadcXfjy7wdAFoDEGlZljbufxcb97+LSRGJWDp9Ob44+ndxW1umRk2DscmIzH+sRHHVeay66xWkjF+Enyq61ssiBDRC3QEgLWEZJkUk4oez2cjYnA6g/cBKsOquVxDkEyrWRzi+ry5612qbBRPSoDOUY8WWhwEAz83NRNrU/5AFUlMDx6L2igHGlkab9fb28QWuAtNmzIKpoQGEr14jAAAgAElEQVQvr3laPJGNjotHTnYWACB9aQa0waHYsX2zeKJKX5oBpUqFBqMREZEj4Kpww5SpSfjfA3swZUoS7rjzHuzL2o2oqFHw9fUH0HbCBYB33spEvdEgnhhTUtNkF2BHWDJTg7Rkf1mQI7V5rx6b9+rFk5zB1GJ10pIK1ijw+kOhYnkrFwUhLdkfS2ZqsHmvXuw2F8prz0BXFzyRGigrZ+lsDVYuChLruT0zEqGDBuKhdeeRk28UT9g5p+p7JTAS/u668lKsf+9p2TK9Xieu11lbANqCp31Zu8U2lJKahtlzFkCvv2R18ewpe46nvW4f7423/q5DaqIP5k31wYlzJuiqzYi/WY2EGLXN/Ql/G+n+hLYhvWBtz4zEhqeGyAIkAFg6W4NyvRnzflcIANjw1BCsWKhFTn77bbE7vH187fqe2tMWtNoQzF94vxjkCO9HRI6Q/X2FH0JCWxDOAfMX3i/+ANNoAgEXYNSosXBVKPDOW5kAgCXpyxE/IdEqoO6plYuCkDDKE699VmEVTABdPy/cGueF+sZfxe/q9sxIPHC7BocKjCgqb7L7vODpcROeXRgktpn3MwYjYZSneH4RAqPSy1fE+gjr2AqMAKCw7iIqTJUYrA7uxpG6/jhNWi1t6n8AADZkvS1euIurzouBUbj/UIwOG4fcc9+LwUytqRq7ftwKN4UbYsPiZOVJg4uTJXkwNhkR5BMmvh/kE4ZmczMqah1zctUZyvH77SvEAO1yfSXUA73g5eFtdxmTIhIRP2wyDhZ+JwvEtuRstBnAdVTO4EHDsOfkLrE+xVXnsefkLvipNbg5KFq2fqHuDF7YmoFaUzVqTdWob6yDp4eXONhbrVDBT+GNk7U/w2husLlPjUYLD6USpoYGsedGr7+ElmazuE5CYjK0waGyX3Ceam8oVSqYGhr+fXLTwsNDiUMH98FQWwNXNwVKis/jRF4ulCoVamqqAABJM1t/EUp7pSIiR8BDqZRdgAGg7NgRfHbfHfjsvju6/etQ69f6S1VXbe5kTfs0m6/itc/axg0I5Qr76QppwHawoB71jb9iiNYNQOtAUG+lK0ovXxF7Dw4VGKE3tHRrX53xVHtj2oxZ0JWXynrwvH18AQCG2hoA9rUFrTYEU6YkyQIjT7U3QkLDYWo0igGUIOvVF7ApdXq3eo2kOjqeXXG2okm8yLgpbsJn+6o63d/mvXqcrWjC5OjW1EVksDtmxXsj51S97IK1M7sWnqoBmBItH7h8urgRM587g6LyJhSVN8FgaoG30tXhM5rs+Z7a2xZ0ujKsf++1DgPdmJhxGDlqjKwt1BsNOJ53GF7evhg8JEIs28NDCVeFwqrH2pIjzgtDtG640nIV53RNna9sh3K9GWl/OCt+V3XVZniqBiDQr2v9GJa9P98XtJ63he/8MK07Brq6iMttrWPJaG5AtdmAWJ/h3U6tqRUqxPoM7/Ba4iycoufIR+kHTw8vVNSWylI5UkE+IXBxuYqTJfLI/6eKAlQb9bLAxx7/OvkFRoeNQ+b8tbIUWHfVN9bJemOk6S17Z5RpPAcBgNVn7CqN5yA0m5txsiRPtvxkSR5mxaaI+xFcrq+UvbZMP6pdPeAzsPMgz9xiRu6RtmMYETkCrm4K8SQYFTUKdYYaXLxwVlxHmJlSVloMAPD19UdVVSVO5OVidFxruiz3SDZUajXcFG44W3RavED6+wfgqWcyZfuX9kI40o7sGsyK98aq+4Kw6r6gdnuQ7GV5QhV+YTqacIEMHTQQCTFq5OQbMSVaDY23K/bktn/h6K7BQyLg5e2L43mHZcs1Gi1ams3Q6y8BsN0WLLcVgt2k5Lmy1Jut1KkzkgbS9Q2/4FJ1i93b3RzqgchgdwT6ucJTNQC3xnnJ0jECywuZZfDeUS9FT9jzPbW3LVjy9vFFS7MZZ4vOiMsiIkeizlCDE3m5HdZLo9HC3GLGd/v3iIFRvdGA9e+91pOP267P9lUh/mY1PlwxtN10VFcYTC2ynsDe6NkFgHO6JlxpuSoG4QAwOVqFKy1XcbCg3uH7UytU+MPYpxGkDMBrJzdcF+NWnSI46gvFVeeRsTldTM09kvQUHkl6StbjRK2MLY2ovdL+hVQIVnTlpbLARHoSFHoFykqLZb/mJk2eAVc3hRj0SNfRaLTiBXR0XDxcXd2g118ST7rSX5G9rai8CTOfaz1Zb8+MxNLZGiydrem1MTuOpKs2Y2S4Bz5cMVRc9m1eXa/MdrF1YdNqQxAVFS2mwdprCxGRIwFAFkzbGrPW39n65e5M7cze72lE5IhO24ItUVGjZD2DYm/hv3sUpaT7BlqDNsuguzfl5Bsx6fFTYprLUT+eetul6hbUN/yCkeEeYtAtBHedjU+rNhu63OtjNDfgPw+/IgZJ88KTsebYn7pd/2vBKYIjy1SOrTE0FbVluHrVBbFh42Q9PDcHRcNPrUHOz992e98vbM0Qg6TRYeP7LDjS118GAKuene6UI6QaZYOqw+LgpnAT92Mvy+5Uyy+GZe+PwNfX32b6QyCcKIUASihHr9eJJ0TpCVgoS6MJ7FL9HU34Nb49M1L8hS/9tedMEmLUiL9Z3acn60mTZ8BDqRRTorYIaZOOehRuBEIatK0HwR31Db/0Sgq0u+z9ntrSWVuwTK12RDh/FBYWoN5o6NK2jib8eBKCJGmPjDO6O9EXnqoB4tgme0iHV3SX0dyAk7U/t3stcSZOM+ZoX8HX8FNr8FjyCnFZuP9QPD5zJYDWnp6K2lLED5uMSRGtd9T0UfohZfwiVBv1yPn5QI/27+XhDfVAL6sUU0VtGZrNzRgdNr7bZdsax7PqrlcQpR0hW++Hs9m4ePkc7hp3j/gZgbYB2VKX6yttjh8C2lKNs2JTEO7f2lsQ7j8Us2JTcPHyuW6lDw9eOoYgZQCivAZbvafRBMLVTSEb69Ne70BIaDg81d7i4GnphVCjCURLSzPOFp2RnYCBfwda/z7pXbxwFnWGGoyJmwhPdefpvpCxE3DfZ//EfZ/9EyFjJ3T5s9tifRFrZZnGchb2jplJfuFVpO88gHnrNnZ7Xx5KJSIiW9t2Smoahg6NRH1drdV60rYwe84CKFwVsgtrYeEp+PsHiGkbe+ue/MKr3a67PSzHgVjOVuqJpxcGQuPtip3ZrcerqLwJe3INGBnugfczrL973TVv3cZuHyt7v6eA/W1BIJRXWHhKXFZvNKCstBja4FDxjtnC+cPUaMS+vbtl23YUhEv1xnlBSINapjed8bww0NUFw7T2j0WL8hqMIGUALhrLe7FWzsMpeo6A1sCgorYMz96xGh89tA1A25RywWtf/A7LZmSIKTDA9hR9e9gKTiynwgOtQdmWgxuxdPpyq3q1Nz7Kli0H/wvP3rFanHp/sPA7XK6vxLAA+R1TbX3Gg4XfWQU0G/e/i0GeAVbrbdz/rtgbtuquV5A5f22Hn89eJ2vOoPGXK5gXnmyVL7aVSrEcb1BvNOC7/XswN+U34jihfVm7odFoxdlJkybPQLO5GQ1GY+sAS5fWFItWGwKNJlCcnltvNOAf2/4bi5csl405EsrsjVSbrQugrWm0APD8B6XY8NQQWRqrqz03lvsTpgB3dVxDTr4R2w5UY+lsjdWYFcvp4ABgKC9FGADvsCGInrsQBbu32V1nAMjJzkJU1ChxnFBVVSU+//yvmD//AfECatkWzC1mcRq4NJjOyc6CRqO1GnPU16m2t7ddwoan2tKUp4sb8fHXeiyc3rW71QvjPoQULdA69f7xP12Q/ZoX2o3l39DW389eDfpK+A2LQmBMHELGTujSgOSIyJF2fU/taQvWZcvHKQp27dwCX19/3L1gCe5esASA9W0hhG3PFp3u6uHoNlu3yGgvBepM54W1WyswOVolpgHtqf+88OTr4uaNjuIyMnba1e5s6OMbjNqaGyOCpFa3BSfioeGLrpsBddR2f5wtWVWyk3B70/l9woZi5kuvw02t7tG9X7pKmL79vwf2XLNxZDcy4R4/zUYj9r78PGpL7P+h15uEWzncaOPMrjXpfbmkgXh70/kdee5fNnwRYn2G48VjbzOtRv2DcJfUVbGPYqy/dTqPnI/WTyHegM7W8gu6ZtnyyOQ5UAcE4lJ+Xq8FRgmJyXh25R+g1YYAaJv+b89sJHKMEXPuhptShQsH9/dZYJS+NAPpSzPE1wmJyQgLH4rjeYcZGPWy9sawaf0UVjNphWehOerpCBeN5RjiGYopg8b2uKzexJ4j6rLVY58EAKefbUCtbKUELbvhhZ4EN6UK+Tv/B7mb1vdqnSzvdNzXqbIbRfTchRj/wKMAgB8/2dDltKkj2Xvnc3I8YeC4cFd2ga1U7eqxT6Ks4RI2/rzVYftfNnwR7gpLAgC8d/pTp7zjNoMjIiIiIgmm1YiIiIgkGBwRERERSThFcOTje2M8yI6IiIicn1MER0RERETOgsERERERkQSDIyIiIiIJBkdEREREEgyOnNjVgSrU3fseGqc80NdV6deE49wcNb2vq0JERE6AwZETa5j5LADA/Wjf3cX2RuBypQHuR/8O413/lwESERExOHJWjVMeQEvQKKi/zITLFed9OF9/4VZ4AB6HPoJp+uP4Va3p6+oQEVEfYnDkhFq00Wgafy+UB97HTUZ95xuQQ7gf3Yab6ithmv54X1eFiIj6kGtfV6A3eKq9sSR9Ofz9A8Rl0gdbCu+bGhqw6eN3xXXSl2ZAqVKJ6wlPjC4sPIWk5LkA2n84YvrSDISFDxVf78vajZzsLPF1SmoaQkLD8fVX2zF//gPiwxZPHM/Frp1bZGWZh07AgMvnoCi2/YRyoV65R7JlD++03Ket4yDdZ0JiMsbETcSZ0yeRkJiMRpMJX321DXPmLISHUikr71o/JNLywaTt7dPyuANASfF52d/VsqxGkwmfbl4Pna5Mtp2QXmuY9TxatNFw1Vk/gTo+fTliUu9F9blCfL5imUM+KxEROZd+GRwtuKd1APM7b2X2+CnfYeFDodEE4sO/vAmdrgzpSzMwe84C6PWXoNOVyQKtl9c8DaDtYgxAFqz4+wcgbfFjYtCRkJiMW6bPwtmi0+IF/+pAFczhE3CT8bLNdJqn2htKlQotZjNm37FADBbSl2ZgTNxEnMjLRb3RINZBV16K9e/J66XX6wAAGo0WSqUao0ePx76s3bhl+izclfJbfLNnJyZNng6NRgsASEhMRlLyXFmwlJKaJjsOjpSSmobRY+Kt9hcVFQ29/hKAtmDN1GgU/87CspqaKllZI0eNkQVV6UszMH/h/TafAu9acQouTUb86jkI0Dn0YxER0XWi36XVhODB1NDQ48AIsO5lyD2SDVc3BSIiRwAARsfFQ+mhxtdfbRe3yc8/Cl15KaKiRsnKMreYsWP7ZvGCb6itAQB4+/iK61xVeOBXzwC4/bzfZn1UajWUHmr4aQLw9T+3ixd8aUDgqfbGtBmzoCsvlfWgCPsR9uvr6w9XhQJ7v/kCAKBwVeD0qeMoK70IpYcaer0OWm0IpkxJkgUqnmpvhISGw9RoRIPR2KXj2ZmYmHEYOWqMVS+Yr6+/bH+z5yyAqdEoC3A0mkC4uinE4C8mZhyihkfLAiOtNgQaTWC77cPF3Iib6ivRPHyGzfrlblqPTanT2WtERNSP9bueo3qjAcfzDiMpeS5eWv22LJ3WHZYBgF5/CS3NZrFXRaPRwkOpxEOPPGu1bVVVJTzV3uK+W5rNYs8H0BpEWaalflUH4Kq7utN66cpLxW3FYOXfF/yYmHHw8vbF8bzDsm00Gq1YByGIFMpJSU1Do8mEH77fD40mEC0tzThbdAYRkSPgoVQiKXmumFoErFNXjhIRORItzWacLTojLrMMeIUAp7CwQPZ3tdw2InIkPDyUuHvBEty9YIm4nq1UJhERkaDfBUdAayorJztLTCM99Uxmu+NMukvonQDaH8PSHTcZK+HS1H5vTETkCLi6KZB7JFtcJvQmlZUWA2jtIbIMMLTaEDEtpdOVQasNgdJDLQZQvr7+4nuTJs9As7kZDUYjoqJG9TjA7AppPQSj4+Lh7x+A43m7AbT2EMEFOFt0WlzHsjdLeN3dIG5A9YWefxgiIrou9bu0mlR+/lH8vz88hx3bN8tSYT0hXJiF1JRer4Orm6J1uQN0ltaR9v5I6yRNJ9kyafIMeCiVYvpN+jnaemJOAfh3CstBacme8lR7Y0zcRJhbzOIxtyVp5lz4+wf0uN5CWnOAnsEREdGNql8HRwLLsTb1RgNMDQ1QqlTwVHsDsD3ryZJWG9I6CPnyJTGldSIvF3WGGsyeswBabUiP6+pypQGK4iNoCRpl8347lmNvhM9n2VPkoVSKwWBKahqGDo1EfV2tbBuTyYiLF87KAiUhhSUEUYWFp+DvH4DRcfF21T/5hVeRvvMA5q3b2K3PD7QGblptiDjYvcVsRovZLFvHVaFARORIAK0DxkePaa2fUO96owFlpcXQBociJmac3ftuCRqFq+5q3FR/2eb78enLkb7zABZ+sBU+YR23FyIiuj71u7Sa5ZRzwPYU8K+/2o7FS5bjqWcyAbSOQ6mpqUJIaLisPH//AHEdYT3peJV6owGbN63HkvTlVuOOLAcV20tx/giaxt+LK7F3wuPQJ+JyIXApKy2W9Y5ERY2SBUw52VmIiholjhOqqqrE55//FfPnPyD2LkVFjRJ7Wbx9fIGrreOpBg+JgFKpFlNWOdlZ0Gi0VmOO2ku1GcpLEQbAO2wIoucuRMHurt3dW/i7CMfyxPFc6PU6TJmSJPaW5ecfRUTkSIweE4/RY+JRVVWJf375d9yadKcs1bZr5xb4+vpbjTlqL9V2daAKTePugeL8Dzan8QOASV+JX8xmePj6IXjMeNSWnO/S5yMiIufnMjJ22tXubOjjG4zamnKHVMKRZTmS5X2PrqXGKQ/gyqg74fW35dfVjSB9woZi5kuvw02txoG1q1F27Mg12a8w1b8nY7/sPebz1m2Ed9gQ/PjJhi4Hf0RE5PxuiLTa9Ui4W3Pdb9ZfV4+ziEyeA3VAIC7l5/VaYJS+NEO8ESbQNv2/sLCg24FRc9R0NE55sNO7kkfPXQjvsCEwlFxgYERE1E/1u7Raf+FypQGeO59HferrVuk1ZxQydgKmr1wDN6UK+Tv/B7mb1vfavjZ9/C5SUtPw0uq3xWU9mZ4vpNPUX/weboUHbK4j/Xwlh3OQ9eoL3doXERE5P6bViIiIiCSYViMiIiKSYHBEREREJMHgiIiIiEiCwRERERGRBIMjIiIiIgkGR0REREQSDI6IiIiIJG7Im0AKj7hoNtbh8xXLOl0/Pn05YlLvhbHyEva+/Px19zytmJhxmJvyG7Q0m3v0eI0bhfB8PgA8XkREN6B+23M0b91GPjmdukWjCYSrm6Kvq0FERH3khuw56qrcTet79XEYvS0//yjy84/2dTWuGzxeREQ3tn7bc0RERETUHf2q50j6cFBB6p82if+3fGBog74SyS+8irCJCQBgNaZIGGskqD5XaHOMkjCGSR0QKC7r6vgkYZxL/qmjiBk1Dh5KJfZl7UZU1CiEhQ+VPVjVU+2NJenL4e8fIG5v+eDV9KUZCAuXpxSrqiqxedN61BsNVvv1UCoBAOYWM3bv+pvYcyLsq6y0GHq9DknJc22ud62lL81ATU0VfH39ERY+FCXF51FYeApJyXPRaDLJxgolJCaL9RZYriOMy1K4tqbTbB0rYb/S42p53FNS0xASGo5/bPtvzF94v/g3Kik+j00fvysrS2h7fJAtEZFz6VfBUdmxI/jsvjsAtI45clN7dRighE1MQPW5QmxKnS4GVtOeflEMgIR0mhD8tGfa0y8CAHY+md7jwdpxYydh966/IX5CIuIn3oIL5wpRU1OFqKhoaLUh0OnKcFfqb/Hd/j1iYCJc/PV6HXKyswDA6kKcvjQDSpVKtkwICE6fOi5e4FNS03D3giXw9vEVywKA0WPi0Wgy4cO/vAmdrgzpSzMwbcYsXLxw1iqA6G2eam8oVSp4+/rBUFONE8dzMXpMPJQqFf755d9xa9Kd0GgCxXpqg0OxY/tm8XgJx6LBaBSPw9SEJLz/xz+g3mhAQmIybpk+C4OHRIjbCEGkqdGId97KFNezPO6+vv4AgMVLluPQoX3Iyc4Sy4uJGcd0HRHRdaBfBUddJe0JKjt2BEZdOdzUXvAJG2p3kOMTNhRuai80G+scMotNV16K/PyjiJ+QCMUABX74fj8mTZ4hW+ezTzfIXp8tOoMpU5Kg0Wi7tK/4CYmoM9Rg397d4rJ9e3cjJDQcUVGjZMGRZU9KTU0VNJpAqNRqu4MjaS+dpfZ65WxRqdVQeqhhajRi+98/wYJ7HoC5xYzv9u+Bt48vcBXQ6y8hITEZ2uBQq54wpUoFU0ODWG97xhjNnrMApkaj7BicyMvFmLiJ4rESyvb3D8C+rN2y42cLe4uIiJzTDR0cOUJtyXlcOLgfMan3In3ngR5P96+pqRL/b2o0ir0bUpYpoO4QLuRlpcWy4KbeaEBZaTFCQsPhqfZuq4skmAAgSyXZy1HBgDCb7PihwwAApUolBpUpqWnQ6y9BpyvD7DkLUGeowcULZ8VthcCqrLS4g/K1su202hBoNIE4dGhfh4GgUHZJ8XlZYJSTndVpoERERM6DwZEDCOm36LkLMf6BR5H6p01oNjXgwNrVKDt2xKH7EgIjXXmpmDqT3pfnRuDt44uWZjPOFp0RA5LjeYfhqfZGSGg4ykqL2w3+Jk2eAVc3Bc4WnbZZtlCGNBiMiBwBVzcFDLU1snWl+wbagrbCwlO99MmJiOhaYHDkQAW7t6Fg9zYxSAoaM8HhwZG3jy8AIPdIdo/KqTcaYGpoEHuIhEDAMjiQ9h71lKPSahqNVuxVGx0XDwCyQEmv19ncTqsNQVRUNFqazdDrL9lcx56eJYGQ7jxbdAZA29/GMogiIqLrS78Njhr0lfAOG4LgMeOv+R2tlZrWGUomfaXVe/PWbYTfsKguBQNSwoVXuBBbzjbrCmF2V9LMuWKaLGnmXHh5++K7/Xu6XF5nHJVW8/X1F3uEpIHS4CERgIs8OBGCP5VajcVLlkOvvwSNJrDdsjWaQMAFsp4lYUxX/IREcWxSSmoaRo+Jx76s3eKMN41G22HgZUkIFrvbFoiIqHf02+Ao69UXMG/dRkxc9iQmLnsSgPVU/s5Y9XQEBCJ95wH8Yjbjx082oGD3Npu3D5C+LyUM3u6J/PyjiIgc2RrU/Ht6ek52FkaMjO1yWTnZWTDU1mBuym8wekxrD0yjyYRN//VHp31khjD+R0hd+fr6i71cEZEjYTIZxRl03+3fg7kpv8FTz2QCAPZl7YZGo5XNVLMUETlSHNAt0OnK8PVX2zE35Td4afXbACCbuQe09bgJ453sYSgvRRgAtTYYIWMd38tIRETd4zIydtrV7mzo4xuM2ppyh1TCkWWRbelLMwBYT/GnNsI9nUwNDdfkOAm3iHBTq3tlfBoREXUP75DdD8XEjMN9ix+VvdYGh3KgsISn2hvLn1iFlNQ0cZmQUuzpeC57RSbPgTogEJfy8xgYERE5EfYc9VPCmBiBPffdudFY3hLB8q7ZvUUYsD9AoUD+zv+5rp/bR0TUHzE4IiIiIpJgWo2IiIhIgsERERERkYRTBEdMqREREZGzcIrgiIiIiMhZMDgiIiIikmBwRERERCTB4IiIiIhIwmmerXZbcCKeGLkYAPDe6U/xTfm1uUsxERERkZTTBEfflGfjm/Js3BaciIeGL4L+SjWOVRX0dbWIiIjoBuN0abVDl4+hwlSJ8f4xfV0VIiIiugE5XXBERERE1JcYHBERERFJMDgiIiIiknC64MhobsDJ2p9xS+AEaD00fV0dIiIiusE4zWw1qY0/b8WPVfl4d9LvUWGqxIvH3obR3NDX1SIiIqIbgFMGR6vHPgk/hTcezFnFoIiIiIiuKadLq6kVKvgpvHGy9mcGRkRERHTNOV1wRERERNSXGBwRERERSTA4IiIiIpJwuuAoymswgpQBuGgs7+uqEBER0Q3IaWar3RaciCdGLgYAfFGyD9+UZ/dxjYiIiOhG5DIydtrV7mzo4xuM2hr27hAREVH/4nRpNSIiIqK+xOCIiIiISILBEREREZEEgyMiIiIiCQZHRERERBIMjoiIiIgkGBwRERERSTA46sDM9Pcw9/FP4aHWdGm71WOfxOqxT8qWqRUq/HHi73BbcKIjq4jVY5/EruQN+OSWtdB6dK2eREREZM1p7pANANEJaRg17QEc/vx1XDyV1dfV6ZZlwxdhmDocz+e+LltuNDdgd+l+8S7gjrgDuLCvRw7+DrpGfY/LIyIiIvYcOdRtwYm4PTgR7xR8bDNY+aY8G1+U7MPiiJQe9/KoFSrE+gzH/146wsCIiIjIgRgcOYjWQ4PFESn4V3k2jlUVtLve385/idorBjwy4rfXsHZERERkL6dIq81Mfw+DwmLF11Pn/x5T5/8eAFBfXYKsT55Co7G1d2TwqGRMnPc8XF0H2nwfADzUGiQ/8A48/cLEZRdO/AuHdv1Btl/L9a6Y6vDtlhWo0RWK6zQ11GLomFkYk/Rwu+sAQKzvCADA7pJ9HX5WIb320PBFGOsf3WEgRURERNeeUwRHezc9AaDzMUe23p+Z/h6SH3hHFiBNmvd/cHL/x+I60QlpGJP0MAz6CyjI2QIA8NVG4da0dWhuMmDn2wvQaNTDVxuFUYn3I3vbS+I+B4XFwl3lg51vLwAAJD/wDhIWrLYKyKYGjkXtFQOMLY2dft6TNWfQ+MsVaAb6dedwERERUS+6btJqHmoNhsXNQWnBAVngVHhkBwZ6eCNg8Bhx2f7PnpWtU3H2MK6Y6uCtGSIuGz/7PwEAOdvXiEFOja5QFhgB8p6pRqMeVaWn4ebuDXe1r7iOWqGCn8IbJ2t/htHc0OlnMbY0ovaKAVMDx3bxKAUwChAAABXnSURBVLSJ8hoM34Fe+LEqv9tlEBERkTWn6Dmyh7vaF27u3hgy+nYMGX271fsqH634f8vUmyUPtQbuKh/UVV20So91h9rVAz4DvXtcjj3G+kdjVeyjqDBVYvn3a+wKxoiIiMh+101wJLA1dkhKCIxqKn4W03VCCq23CD1BXVXWcKnL2xyrKsCi/RkY6x+NjxJew4c/b3XIbQGIiIio1XWTVmsy1qC5yQCVb1CH6wk9SIVHdrS7TqNRj6aGWrirfLp8g0dbjOYGVJsNiPUZDrVC1en6Qk/TRWN5t/dZWHcRFaZKDFYHd7sMIiIisuZUwVFDrQ4AEBw52eq9RqMe5/K+wqCwWExJebHTMoQgSeg1Gqj0kq1XeGQHPLwCkLAwU1zmq41C4sKXu1X3g5eOIUgZgCivwZ2uG+s7Ah4DBkJ/pbpb+yIiIqLe41RptYunsqDy0WJM0sPiuCLpgGhhppn0fct1Lp7KQnDkZIxJelicfl+QswVhI6dZ7auuqhi3pq3Db186AKBtmn53CDPQ5oUndzg9X61QYW7oDJwyFHIaPxERkRNyGRk77Wp3NvTxDUZtTffTQv3RbcGJeGj4Irx2ckO7gc+y4YtwS+AEPJ/7eo/ubK1WqPCHsU/jZO3P2Pjz1m6XQ0RERHJOlVa73n1Tno1ThkKsin0UY/2jrd6/LTgRd4Ul4dOzu3r8yA9hnNMtgRP4wFkiIiIHYnDkYGuO/QmnDIWYF54sWy6k0947/anDZpe9lf8Raq8Y8Jepr+CTW9YySCIiInIAptWIiIiIJNhzRERERCTB4IiIiIhIwimCIx9f3siQiIiInINTBEdEREREzoLBEREREZEEgyMiIiIiCQZHRERERBJO9Wy1G11CYjKSkueKr0uKz2PTx+/22v4sH8orPFuuRlfYa/uUujpQhfrU16EoPgKPQ58AAHzChmLmS69DHRCI6nOF+HzFsk7LiZ67EHH3PYi8zz5Cwe5tNteRlmusvIS9Lz+P2pLzdtd13rqNcFN72bVdyNgJmL5yDQYo3PDjJxvarVN/FZ++HDGp9wIA8nf+D3I3re/jGjnOzXEaPPj8eDQ1mLF62T6Hlj1v3UYA6LDNR89diPEPPIoBCgVKDucg69UX7C5f2Pb0l/+w628i/B27831xBjEx4zA35TdoaTbj083rodOVOXwf9rR1YZ1fzOYOzwct2mg0zHoOntufxU3Gnj1BgXqOPUdOJCc7Cy+veRrvvJWJqqrKXt9fja4Q/3jrLvz15em4cOJfvb4/Sw0znwUAuB9tO1nUlpzHtocX4Zs1z0KtDcbCD7bCJ2xoh+UoNQEAAEPZxXbXmfb0iwCAnU+mY9vDi6xO9PHpy7Hk73sRPXdhtz4LtcndtB6bUqcjf+f/YOSd83t8TNdsTMLrf52Fm+P67x3gfcKGwk3thQZ9+9/7kLETEHffgyg/dhibUqdbBUY+YUOx8IOtYpBFvc+eti6sU37sMCYuexLx6cttluWqK8AA/XnU/WY9flX337Z+vWDPEfWJxikPoCVoFLz+thwuVxqs3i87dgSf3XdHh2Ukv/AqwiYmiK9vW/2mzd6mkLEToNYG4+d/7b4mv37tqfuNoCjrKwyZOgNBo8fdcL1n9hJ6Gd2UKgCAOiAQS/6+12YPQ9CYCQCAM1/tuCZ1y920/rru9cvPP4r8/KPXZF/2tHV7evlUe99EferrME1/HOov1zi6mtQFDI7ommvRRqNp/L1Q7Xm9293H89ZthFobjG/WPIsRc+6GShNgVwqOyFkIaa7yY4dx5qsduOU/X8SJbZ8ykLyBuVxpgPLAetQvfBPNUdPhVnigr6t0w+q3wZGQb1a4KgDYHr+TkpqG0WPixdeW66QvzQAAFBaeEscCmVvM2L3rb7JfJJ5qbyxJXw5//wBxWVVVJTZvWo96o8Hu/XVF+tIMhIW3pZv2Ze1GTnZWt8rqjIdag+QH3oGnX5i47Pi+D1CQs0W23pSUFzFk9O1W218uOYm9m54QX5uHTsCAy+egKM7tVn2EnqBL+XkoO3YE45c80mE6oiPz1m2E37Ao8fXEZU9i4rInAcBqrEWzsQ6RyXPEMQbNpgYcWLsaZceOiPWS9gJYvi9l2evV2XgEW2JixmH2HQvw7b4vMWnydLH92dPWpe0zITEZU6YkIf/UUUyYkIhGkwlffbUNc+YshKubwqq9X4u2N/m2UNz3xBi4K9tOUc+sbTteZ45dxrrnDoqv718Rh8Q5g8XXFRfrrcYE2Soz+6uL+O91ebL15j0wArPvjYKr4qZ2yzJUN2HFG1MxYuwgAECNvgkfvf4jfsqzP9gPGj0Ov5ibcearHfAOaa17R6nh9kjHIQEAAgKRvrPtoiodC/OLuRktjQ1Y+MFWqAMCAcBq7JJ0HA2Adsf+Wbb3jtZtT1fanlYbgsVLlsNDqRS3t2x7lm0TsH0uthzfabmOcE4vKy2GXq/r8PzvaK66AijO/4CmcfdAUZxrs2ddOH90ddwZ2a9fBkdCwz9xPBe7dm4RlyUkJotfpPSlGdBoAvHhX96ETlcmfvGWP7FK9iUJCx8KpUqFd97KBAAsSV+OaTNm4eKFs+I6C+55AADwzluZsi+glL3764zwpTU1NODlNU8DaAsEATj8IiUM2q6ruojd7y8GAEQnpGFM0sPw1gzBoV1/ANAaGIVGT8fBf/xfXDyVJdtOGhhdHaiCOXwCbjJetvmlt0eDXo9moxGBMXEYNuN2uKm9UH6ieycr4UQen74cI++c32GA4jcsCm5qL+x8Mh0AMPOl1zHlsZViACVNpyW/8CoCY+JslhOfvhzBYyfi8MY/9biXwFWhwB133iNeJIS2L23rCYnJACC2F6HtLbjnATGI8lAqMWzYcGz59M+YN++3mHl7Cr79tjXoip+QiPz8o9e07X3/TSm+/6YUQOuYI3eVot3gY8UbUzHkZl989MaP+P6bUnHQ9JqNSWJQc3OcBnPuHY7P3jsulrvijamYPDMMtVVN+PyTMwDagixp8HX/ijjcvyJOFkSNGDsIFRfr8fBtu8Sg674nRndpkLahvBRhExMwYs7dMJSXoqW5GQ36rvekFuzehoLd28RJB83GunYDlAEKN8T99kExYBICofj05WIAJaTThPJs8QkbiimPrYRRV97jHlt7297sOQtkA6tTUtNwy/RZMNTWiMGK5Y+C9KUZUKpUsmUpqWkYOWoMdmzfLGvXjzz2nNXA7dFj4tFoMonn7fSlGVbn/97g9vN+mKY/jqsKj26fJ6ln+t2AbK02BFOmJKGk+LwYGAGtJ27h5B0TMw7a4FAcOrRP/CLodGU4dGgfvLx9MXhIhLid9BdFvdGAstJiKD3UUKnVAFqDFaVKBVNDQ7tflq7srzOj4+Kh9FDj66+2i8vy849CV16KqKhRdpdjrxGTFgEAfvz6j+KygpwtuFxyEv6hI+Hx74GDKt8gNNZVovLicQCtg73rqi7CXeUjrgMAVxUe+NUzAG4/7+92nWpLzuPQn9cCAKY99aL4C7g9wliNiuPWPThdIe1Jqi05j5oLRXBTq6HSdG3wpHdwKH4xN3erl8AW6a/ns0Vn0GgyQaPRiu/nZGfJvgs6XRn0+ktQqlTwVHuLy4/nHYapoQGurm4w1FTj5zOnZPvpatsTjlFgTBxCxk5wyGe1NPm2UAy52Re5B8rEoOenPD1OHbkE30EemHxbqLhs9bJ94joAUHSqGgDg4+8ulhU/PQQVF+tlvVL/vS7PqndJ2pv0/TelqLncCHeVokuDxnM3rUfJ4RyETUyQ9dS0J3j0OBh15TZ7IrtC2pNUcfwImk0N8A4O7VIZKo0Gbmp1t3tsLXXW9uqNBmz6+F1Z4HK26DQAwNvH1+79aLUhiIqKxulTx8WAqt5owHf798DVTYGIyBGy9auqKvGXP78h7rempkp2/hc4uq3fVH8ZV93VaAmyfU7PevUFm4PyyXH6Xc+RRhMIVzcFCgtPtbuOt48vWprNOFt0Rrb8bNEZTJmS1KUvW73RgON5h5GUPBcvrX7bZheuI/en0WjhoVTioUeetXqvqqoSnmpvh/6iUfkGoa7qotX0/vLCQxgx+TdwV/ui0ahHQ00FfIOGI2DwGLHnyMt/MCqKvkejZFzRr+oAXHVXW+6my4ReGiGlEJN6L2JS75V1Mwu/iqvPFTrVAOkzX+1AYEwcblv9ZrfSaV1lK+0LQDYj0txihqG2RnxdU1NlVU532l7Wqy8geu5CJL3wGhprqh0+JTwgWA1XxU1InDNYllYDgBbzrwgIbmtrlqm39so6W1DtsPp1RmirQno39U+brNKxwnvOdFuEsmNHcCk/D2ETE5C+80CX02lS9rQ9wDoV1h0aTSDg0hZYCS5eOIs6Q43sRwUAqx+90h8Zlnq7rdO11e+Co74g9EoJKYannslEo8nUa/fW6M2yu8ugv4Ahrrdj6vzfY+r83wNoHWskpN0ENxkr4dJkdOi+zQ1G7PvjHzBizt0IHjsR0XMXomD3NjE9IEzTd5Z7DgmBnZC2EMY59cbFTwiMlB5qMTUA2E432KOrbU+4P9QXKx7q1QuFrbFDUrbSZcLYImdRcjgHZ77agekr12D8kkfE4EgIOuat24iFH2x1mouu5Y+Q9J0Heu2eSLaGSkhTus7A0W3d5UoDbqq/7ICaUXf0u7SaXn8JLc1mq18AUobaGptdqBGRI+DqppD9iumK/Pyj+H9/eA47tm+Wle/I/en1Ori6KVp/AV0DDTUV8PIfDF+t/CISHDUFzU0GNBlr4KHWYFjcHFw48S/89eXp4j/pWCOBi7kRN9VXonn4DIfUT6kJEMdqVPx73JFw3yNBxfEj+MXcbLW8rwn3dNr5ZDqMlZcQPHqcw/ehUquh9FCjsLCgx8F0V9uecO+emgtFvXYxryw3osX8KzRaZYfrabRKNJlacPCb4h6X5WjCcTKUl6Ls2BEYdeVwU3tZ3d+r/MTRbqVxe5v0Xj8evn4IHjPe4fvQaLRoNJnww/fdT8cDrdcHXAUiIkfKlg8eEgEvb1/o9bpulevotv6r5yDg6lXcZOz9+92Rbf0uONLpylBYWIDRY+LFgahA24BsoK0LdcqUJGi1IQDaxirpykt7PBNBSJMJQY8j93ciLxd1hhrMnrNALKsj89ZtRPrOA92+MVx50fcY4DYQ42f/p7gsOiENg8JicS7vK1nKTOUb1Gl5LlcaoCg+gpagUQ650Zl3cCiajXWoLTmPyKTZ+MXc3K2xRaZ/j50I6oUApTMdjd9IfuFVpO88YNfNMG1pMBphajTC19dfXGZrRo89utr2HMVQ3QRPbzfcPMa6vXz/TSku/FSDEWMH4f4VtgfAA4BeZ4Kr4iYxzWY5I62jsoQB2b1FpdHA1c0NJn0loucuhHfYkG5dZGtLzqPZWAe1NrjXxnh1pKOxdD09D1kG5pazke0ljLcbOWoMYmJav+ueam9MmzELdYYanMjr3gxaR2sePgM31VfCxdxo833hvMAbfvaefplW27Vzizj9UshRS6c31xsNWP/ea0hfmiEbPyHtsrWXremlltM97d2f5XRrf3/gpdVvy8qrNxqwedN6LElfbjX2w3Jaq/Brpj2DRyVj4rzn4eo6UFw2+6HWL9uFE//CoV1/wMVTWairKsataevw25dapwe3tFwRZ6UBQKNRj5P7P8bEec+L6whsPZJEcf4Imsbfiyuxd4qPDekKW1OI/3979xdTZR3HcfyDdFD5p6ABHUhrhsa/sZJmKlEzqWls5tyqBWytra2JXaSO1ppZF13IBWwuty7catVFa9ZNzk3pzywgtiwSSjayYSqHhhhQwGIw7II99IPjOcA5D+d5Duf9uoNznt/5jecZ+5zn+/t9H+uW/pnXakL65nbp9Cklrs2YLg9I/lv55+K3pVpTjSmlmdulZ7cPmP26KSnMu13WYtOKPc/pyNGGqc+62q32ixeUnbNuwWPN99qzU31ti94+uUMVVZtUUbVJ0syt/PW1LTpYt81v3ZG5aPrD+p+1IT99eoyJ8Um1fnlNJY9m+32WVYKzxrrdVn47zG7nYLWQCKe8+m3DO9p55Nj0dRfKeLPnZbUGMNfH3e5aD9S6Yq7/Q/PR3PSVcnMLtHdftfbuq9b4xLi+O39WW7fuWPBYH7x/XHuerpweS1r8RzUtxERWvsbv3aKks8cC7lQb8l3X3dJ0EA53kT78xeUVld0K5cDVaV4NDvhsmYSdYyHyrG37vZdbZ6wxCrSdX5rqkD1W8JRSP9kfciNIa83OwJXLQXdtWGGq69xp1yxojQXzPT+xruSF/dr4REXAnlgLfR/+Z/WqW+zgY9e1bj1vctnwjaAdsq3PS0hO5npYJEuurIbIS12zTvEJywP+fmSg1++1FT+d0rJ/+sJ6jpBVjhryXQ/6Pqsv0j3bHgupNIXQeIs3a2Va+pznJ9ZNlYaH5+xxNNrfp3hPgu7ftTdCM4suhYUP6vmql2f8nOXNCbpz2S52XesjOw9rMiVDiedPBH3ffY/vUnJG5nQjXNiPO0ewhdUYcrbbddK2WN+SPFd/CKm8thBmKS5anzIeLcwOy3TwtRd/2+BmL01YzHKvZO/5mMjK18iTtUr57HDAu+lmOdNNrR2WIsIRAACAgbIaAACAgXAEAABgcEU4oqQGAADcwhXhCAAAwC0IRwAAAAbCEQAAgIFwBAAAYHDNs9XKvaU6kFclSXq382M1+pocnhEAAIhFrglHjb4mNfqaVO4t1Usbn1H/2F9qu3nJ6WkBAIAY47qy2vc32tQ72qfNawqdngoAAIhBrgtHAAAATiIcAQAAGAhHAAAABteFo+HxEXUMdumRzIeUtXKt09MBAAAxxjW71Uwnuz7Vjzd/0fEtb6p3tE9vtDVoeHzE6WkBAIAY4MpwdPSBV5TuWaUXm18nFAEAgIhyXVkt2ZOkdM8qdQx2EYwAAEDEuS4cAQAAOIlwBAAAYCAcAQAAGFwXjnJT1+uuxAz9MexzeioAACAGuWa3Wrm3VAfyqiRJX1z7Wo2+JodnBAAAYlFcXlHZrVAOXJ3m1eAAd3cAAMDS4rqyGgAAgJMIRwAAAIaQwxElNQAAsBRx5wgAAMBAOAIAADAQjgAAAAyEIwAAAENYTSCrd/foUGW3EjyT+ubCGtXUFdg1LwAAAEfE35m5/q1QD27/LVXvfb5Of4/coWfLe5WSNKGW9jQ75wcAABBRtpTVPjqTrd97EvVw0aAdwwEAADiGNUcAAAAGwhEAAICBcAQAAGCwLRy1dqzWhuxRVe/usWtIAACAiIvLKyq7Zddg24sHVP9qpyTpYEOemi+ycw0AAESXsPocmU7U/qqS/CFCEQAAiGq2ldWy1o7pet8KghEAAIhqLMgGAAAwEI4AAAAMhCMAAACDLeFoe/GAcjL+1Z/9y+0YDgAAwDFh7Var3t2jQ5XdSvBMqvNKsmrqCuyaFwAAgCNs7XMEAAAQ7VhzBAAAYCAcAQAAGAhHAAAAhv8AOtXdRC2X2M8AAAAASUVORK5CYII=;" vertex="1" parent="WIyWlLk6GJQsqaUBKTNV-1">
          <mxGeometry x="520" y="-1170" width="258.44" height="215" as="geometry" />
        </mxCell>
        <mxCell id="ITZqo2qJiZWr1Mnri4VZ-13" value="Students" style="swimlane;fontStyle=0;align=center;verticalAlign=top;childLayout=stackLayout;horizontal=1;startSize=26;horizontalStack=0;resizeParent=1;resizeLast=0;collapsible=1;marginBottom=0;rounded=0;shadow=0;strokeWidth=1;" vertex="1" parent="WIyWlLk6GJQsqaUBKTNV-1">
          <mxGeometry x="360" y="-1291" width="200" height="100" as="geometry">
            <mxRectangle x="130" y="380" width="160" height="26" as="alternateBounds" />
          </mxGeometry>
        </mxCell>
        <mxCell id="ITZqo2qJiZWr1Mnri4VZ-21" value="Extends" style="endArrow=block;endSize=16;endFill=0;html=1;rounded=0;entryX=-0.013;entryY=0.668;entryDx=0;entryDy=0;entryPerimeter=0;exitX=0.35;exitY=0.005;exitDx=0;exitDy=0;exitPerimeter=0;" edge="1" parent="ITZqo2qJiZWr1Mnri4VZ-13" source="ITZqo2qJiZWr1Mnri4VZ-13">
          <mxGeometry width="160" relative="1" as="geometry">
            <mxPoint x="70" y="-10.5" as="sourcePoint" />
            <mxPoint x="157.39999999999986" y="-135.06799999999998" as="targetPoint" />
            <Array as="points">
              <mxPoint x="70" y="-135.5" />
            </Array>
          </mxGeometry>
        </mxCell>
        <mxCell id="ITZqo2qJiZWr1Mnri4VZ-14" value="+ school: string" style="text;align=left;verticalAlign=top;spacingLeft=4;spacingRight=4;overflow=hidden;rotatable=0;points=[[0,0.5],[1,0.5]];portConstraint=eastwest;" vertex="1" parent="ITZqo2qJiZWr1Mnri4VZ-13">
          <mxGeometry y="26" width="200" height="34" as="geometry" />
        </mxCell>
        <mxCell id="ITZqo2qJiZWr1Mnri4VZ-15" value="" style="line;html=1;strokeWidth=1;align=left;verticalAlign=middle;spacingTop=-1;spacingLeft=3;spacingRight=3;rotatable=0;labelPosition=right;points=[];portConstraint=eastwest;" vertex="1" parent="ITZqo2qJiZWr1Mnri4VZ-13">
          <mxGeometry y="60" width="200" height="8" as="geometry" />
        </mxCell>
        <mxCell id="ITZqo2qJiZWr1Mnri4VZ-16" value="+ study()" style="text;align=left;verticalAlign=top;spacingLeft=4;spacingRight=4;overflow=hidden;rotatable=0;points=[[0,0.5],[1,0.5]];portConstraint=eastwest;" vertex="1" parent="ITZqo2qJiZWr1Mnri4VZ-13">
          <mxGeometry y="68" width="200" height="32" as="geometry" />
        </mxCell>
        <mxCell id="ITZqo2qJiZWr1Mnri4VZ-17" value="Teacher" style="swimlane;fontStyle=0;align=center;verticalAlign=top;childLayout=stackLayout;horizontal=1;startSize=26;horizontalStack=0;resizeParent=1;resizeLast=0;collapsible=1;marginBottom=0;rounded=0;shadow=0;strokeWidth=1;" vertex="1" parent="WIyWlLk6GJQsqaUBKTNV-1">
          <mxGeometry x="680" y="-1290.5" width="200" height="100" as="geometry">
            <mxRectangle x="130" y="380" width="160" height="26" as="alternateBounds" />
          </mxGeometry>
        </mxCell>
        <mxCell id="ITZqo2qJiZWr1Mnri4VZ-18" value="+ major: string" style="text;align=left;verticalAlign=top;spacingLeft=4;spacingRight=4;overflow=hidden;rotatable=0;points=[[0,0.5],[1,0.5]];portConstraint=eastwest;" vertex="1" parent="ITZqo2qJiZWr1Mnri4VZ-17">
          <mxGeometry y="26" width="200" height="34" as="geometry" />
        </mxCell>
        <mxCell id="ITZqo2qJiZWr1Mnri4VZ-19" value="" style="line;html=1;strokeWidth=1;align=left;verticalAlign=middle;spacingTop=-1;spacingLeft=3;spacingRight=3;rotatable=0;labelPosition=right;points=[];portConstraint=eastwest;" vertex="1" parent="ITZqo2qJiZWr1Mnri4VZ-17">
          <mxGeometry y="60" width="200" height="8" as="geometry" />
        </mxCell>
        <mxCell id="ITZqo2qJiZWr1Mnri4VZ-20" value="+ teach()" style="text;align=left;verticalAlign=top;spacingLeft=4;spacingRight=4;overflow=hidden;rotatable=0;points=[[0,0.5],[1,0.5]];portConstraint=eastwest;" vertex="1" parent="ITZqo2qJiZWr1Mnri4VZ-17">
          <mxGeometry y="68" width="200" height="32" as="geometry" />
        </mxCell>
        <mxCell id="ITZqo2qJiZWr1Mnri4VZ-24" value="Extends" style="endArrow=block;endSize=16;endFill=0;html=1;rounded=0;entryX=0.999;entryY=0.308;entryDx=0;entryDy=0;entryPerimeter=0;exitX=0.599;exitY=0.014;exitDx=0;exitDy=0;exitPerimeter=0;" edge="1" parent="WIyWlLk6GJQsqaUBKTNV-1" source="ITZqo2qJiZWr1Mnri4VZ-17">
          <mxGeometry width="160" relative="1" as="geometry">
            <mxPoint x="801" y="-1275.9" as="sourcePoint" />
            <mxPoint x="719.8" y="-1426.208" as="targetPoint" />
            <Array as="points">
              <mxPoint x="800" y="-1426" />
            </Array>
          </mxGeometry>
        </mxCell>
      </root>
    </mxGraphModel>
  </diagram>
</mxfile>
